%TF.GenerationSoftware,KiCad,Pcbnew,7.0.7*%
%TF.CreationDate,2024-05-20T11:42:57-06:00*%
%TF.ProjectId,KindFlowerPCB,4b696e64-466c-46f7-9765-725043422e6b,rev?*%
%TF.SameCoordinates,Original*%
%TF.FileFunction,Copper,L1,Top*%
%TF.FilePolarity,Positive*%
%FSLAX46Y46*%
G04 Gerber Fmt 4.6, Leading zero omitted, Abs format (unit mm)*
G04 Created by KiCad (PCBNEW 7.0.7) date 2024-05-20 11:42:57*
%MOMM*%
%LPD*%
G01*
G04 APERTURE LIST*
%ADD10C,0.300000*%
%TA.AperFunction,NonConductor*%
%ADD11C,0.300000*%
%TD*%
%TA.AperFunction,ComponentPad*%
%ADD12R,1.600000X1.600000*%
%TD*%
%TA.AperFunction,ComponentPad*%
%ADD13C,1.600000*%
%TD*%
%TA.AperFunction,ComponentPad*%
%ADD14C,2.200000*%
%TD*%
%TA.AperFunction,ComponentPad*%
%ADD15R,2.200000X2.200000*%
%TD*%
%TA.AperFunction,ComponentPad*%
%ADD16O,1.600000X1.600000*%
%TD*%
%TA.AperFunction,Conductor*%
%ADD17C,0.250000*%
%TD*%
G04 APERTURE END LIST*
D10*
D11*
X134537539Y-93719638D02*
X134537539Y-91719638D01*
X135680396Y-93719638D02*
X134823253Y-92576780D01*
X135680396Y-91719638D02*
X134537539Y-92862495D01*
X136537539Y-93719638D02*
X136537539Y-92386304D01*
X136537539Y-91719638D02*
X136442301Y-91814876D01*
X136442301Y-91814876D02*
X136537539Y-91910114D01*
X136537539Y-91910114D02*
X136632777Y-91814876D01*
X136632777Y-91814876D02*
X136537539Y-91719638D01*
X136537539Y-91719638D02*
X136537539Y-91910114D01*
X137489920Y-92386304D02*
X137489920Y-93719638D01*
X137489920Y-92576780D02*
X137585158Y-92481542D01*
X137585158Y-92481542D02*
X137775634Y-92386304D01*
X137775634Y-92386304D02*
X138061349Y-92386304D01*
X138061349Y-92386304D02*
X138251825Y-92481542D01*
X138251825Y-92481542D02*
X138347063Y-92672019D01*
X138347063Y-92672019D02*
X138347063Y-93719638D01*
X140156587Y-93719638D02*
X140156587Y-91719638D01*
X140156587Y-93624400D02*
X139966111Y-93719638D01*
X139966111Y-93719638D02*
X139585158Y-93719638D01*
X139585158Y-93719638D02*
X139394682Y-93624400D01*
X139394682Y-93624400D02*
X139299444Y-93529161D01*
X139299444Y-93529161D02*
X139204206Y-93338685D01*
X139204206Y-93338685D02*
X139204206Y-92767257D01*
X139204206Y-92767257D02*
X139299444Y-92576780D01*
X139299444Y-92576780D02*
X139394682Y-92481542D01*
X139394682Y-92481542D02*
X139585158Y-92386304D01*
X139585158Y-92386304D02*
X139966111Y-92386304D01*
X139966111Y-92386304D02*
X140156587Y-92481542D01*
X141108968Y-92386304D02*
X141108968Y-93719638D01*
X141108968Y-92576780D02*
X141204206Y-92481542D01*
X141204206Y-92481542D02*
X141394682Y-92386304D01*
X141394682Y-92386304D02*
X141680397Y-92386304D01*
X141680397Y-92386304D02*
X141870873Y-92481542D01*
X141870873Y-92481542D02*
X141966111Y-92672019D01*
X141966111Y-92672019D02*
X141966111Y-93719638D01*
X143680397Y-93624400D02*
X143489921Y-93719638D01*
X143489921Y-93719638D02*
X143108968Y-93719638D01*
X143108968Y-93719638D02*
X142918492Y-93624400D01*
X142918492Y-93624400D02*
X142823254Y-93433923D01*
X142823254Y-93433923D02*
X142823254Y-92672019D01*
X142823254Y-92672019D02*
X142918492Y-92481542D01*
X142918492Y-92481542D02*
X143108968Y-92386304D01*
X143108968Y-92386304D02*
X143489921Y-92386304D01*
X143489921Y-92386304D02*
X143680397Y-92481542D01*
X143680397Y-92481542D02*
X143775635Y-92672019D01*
X143775635Y-92672019D02*
X143775635Y-92862495D01*
X143775635Y-92862495D02*
X142823254Y-93052971D01*
X144537540Y-93624400D02*
X144728016Y-93719638D01*
X144728016Y-93719638D02*
X145108968Y-93719638D01*
X145108968Y-93719638D02*
X145299445Y-93624400D01*
X145299445Y-93624400D02*
X145394683Y-93433923D01*
X145394683Y-93433923D02*
X145394683Y-93338685D01*
X145394683Y-93338685D02*
X145299445Y-93148209D01*
X145299445Y-93148209D02*
X145108968Y-93052971D01*
X145108968Y-93052971D02*
X144823254Y-93052971D01*
X144823254Y-93052971D02*
X144632778Y-92957733D01*
X144632778Y-92957733D02*
X144537540Y-92767257D01*
X144537540Y-92767257D02*
X144537540Y-92672019D01*
X144537540Y-92672019D02*
X144632778Y-92481542D01*
X144632778Y-92481542D02*
X144823254Y-92386304D01*
X144823254Y-92386304D02*
X145108968Y-92386304D01*
X145108968Y-92386304D02*
X145299445Y-92481542D01*
X146156588Y-93624400D02*
X146347064Y-93719638D01*
X146347064Y-93719638D02*
X146728016Y-93719638D01*
X146728016Y-93719638D02*
X146918493Y-93624400D01*
X146918493Y-93624400D02*
X147013731Y-93433923D01*
X147013731Y-93433923D02*
X147013731Y-93338685D01*
X147013731Y-93338685D02*
X146918493Y-93148209D01*
X146918493Y-93148209D02*
X146728016Y-93052971D01*
X146728016Y-93052971D02*
X146442302Y-93052971D01*
X146442302Y-93052971D02*
X146251826Y-92957733D01*
X146251826Y-92957733D02*
X146156588Y-92767257D01*
X146156588Y-92767257D02*
X146156588Y-92672019D01*
X146156588Y-92672019D02*
X146251826Y-92481542D01*
X146251826Y-92481542D02*
X146442302Y-92386304D01*
X146442302Y-92386304D02*
X146728016Y-92386304D01*
X146728016Y-92386304D02*
X146918493Y-92481542D01*
X150061351Y-92672019D02*
X149394684Y-92672019D01*
X149394684Y-93719638D02*
X149394684Y-91719638D01*
X149394684Y-91719638D02*
X150347065Y-91719638D01*
X151394684Y-93719638D02*
X151204208Y-93624400D01*
X151204208Y-93624400D02*
X151108970Y-93433923D01*
X151108970Y-93433923D02*
X151108970Y-91719638D01*
X152442303Y-93719638D02*
X152251827Y-93624400D01*
X152251827Y-93624400D02*
X152156589Y-93529161D01*
X152156589Y-93529161D02*
X152061351Y-93338685D01*
X152061351Y-93338685D02*
X152061351Y-92767257D01*
X152061351Y-92767257D02*
X152156589Y-92576780D01*
X152156589Y-92576780D02*
X152251827Y-92481542D01*
X152251827Y-92481542D02*
X152442303Y-92386304D01*
X152442303Y-92386304D02*
X152728018Y-92386304D01*
X152728018Y-92386304D02*
X152918494Y-92481542D01*
X152918494Y-92481542D02*
X153013732Y-92576780D01*
X153013732Y-92576780D02*
X153108970Y-92767257D01*
X153108970Y-92767257D02*
X153108970Y-93338685D01*
X153108970Y-93338685D02*
X153013732Y-93529161D01*
X153013732Y-93529161D02*
X152918494Y-93624400D01*
X152918494Y-93624400D02*
X152728018Y-93719638D01*
X152728018Y-93719638D02*
X152442303Y-93719638D01*
X153775637Y-92386304D02*
X154156589Y-93719638D01*
X154156589Y-93719638D02*
X154537542Y-92767257D01*
X154537542Y-92767257D02*
X154918494Y-93719638D01*
X154918494Y-93719638D02*
X155299446Y-92386304D01*
X156823256Y-93624400D02*
X156632780Y-93719638D01*
X156632780Y-93719638D02*
X156251827Y-93719638D01*
X156251827Y-93719638D02*
X156061351Y-93624400D01*
X156061351Y-93624400D02*
X155966113Y-93433923D01*
X155966113Y-93433923D02*
X155966113Y-92672019D01*
X155966113Y-92672019D02*
X156061351Y-92481542D01*
X156061351Y-92481542D02*
X156251827Y-92386304D01*
X156251827Y-92386304D02*
X156632780Y-92386304D01*
X156632780Y-92386304D02*
X156823256Y-92481542D01*
X156823256Y-92481542D02*
X156918494Y-92672019D01*
X156918494Y-92672019D02*
X156918494Y-92862495D01*
X156918494Y-92862495D02*
X155966113Y-93052971D01*
X157775637Y-93719638D02*
X157775637Y-92386304D01*
X157775637Y-92767257D02*
X157870875Y-92576780D01*
X157870875Y-92576780D02*
X157966113Y-92481542D01*
X157966113Y-92481542D02*
X158156589Y-92386304D01*
X158156589Y-92386304D02*
X158347066Y-92386304D01*
D12*
%TO.P,A1,1,~{RESET}*%
%TO.N,unconnected-(A1-~{RESET}-Pad1)*%
X136246945Y-135890000D03*
D13*
%TO.P,A1,2,3V3*%
%TO.N,+3.3V*%
X136246945Y-133350000D03*
%TO.P,A1,3,AREF*%
%TO.N,unconnected-(A1-AREF-Pad3)*%
X136246945Y-130810000D03*
%TO.P,A1,4,GND*%
%TO.N,GND*%
X136246945Y-128270000D03*
%TO.P,A1,5,A0*%
%TO.N,Net-(A1-A0)*%
X136246945Y-125730000D03*
%TO.P,A1,6,A1*%
%TO.N,Net-(A1-A1)*%
X136246945Y-123190000D03*
%TO.P,A1,7,A2*%
%TO.N,Net-(A1-A2)*%
X136246945Y-120650000D03*
%TO.P,A1,8,A3*%
%TO.N,unconnected-(A1-A3-Pad8)*%
X136246945Y-118110000D03*
%TO.P,A1,9,A4*%
%TO.N,unconnected-(A1-A4-Pad9)*%
X136246945Y-115570000D03*
%TO.P,A1,10,A5*%
%TO.N,Net-(A1-A5)*%
X136246945Y-113030000D03*
%TO.P,A1,11,SCK*%
%TO.N,unconnected-(A1-SCK-Pad11)*%
X136246945Y-110490000D03*
%TO.P,A1,12,MOSI*%
%TO.N,unconnected-(A1-MOSI-Pad12)*%
X136246945Y-107950000D03*
%TO.P,A1,13,MISO*%
%TO.N,unconnected-(A1-MISO-Pad13)*%
X136246945Y-105410000D03*
%TO.P,A1,14,RX*%
%TO.N,unconnected-(A1-RX-Pad14)*%
X136246945Y-102870000D03*
%TO.P,A1,15,TX*%
%TO.N,unconnected-(A1-TX-Pad15)*%
X136246945Y-100330000D03*
%TO.P,A1,16,SPARE*%
%TO.N,unconnected-(A1-SPARE-Pad16)*%
X136246945Y-97790000D03*
%TO.P,A1,17,SDA*%
%TO.N,unconnected-(A1-SDA-Pad17)*%
X156566945Y-97790000D03*
%TO.P,A1,18,SCL*%
%TO.N,unconnected-(A1-SCL-Pad18)*%
X156566945Y-100330000D03*
%TO.P,A1,19,D0*%
%TO.N,unconnected-(A1-D0-Pad19)*%
X156566945Y-102870000D03*
%TO.P,A1,20,D1*%
%TO.N,unconnected-(A1-D1-Pad20)*%
X156566945Y-105410000D03*
%TO.P,A1,21,D2*%
%TO.N,Net-(A1-D2)*%
X156566945Y-107950000D03*
%TO.P,A1,22,D3*%
%TO.N,unconnected-(A1-D3-Pad22)*%
X156566945Y-110490000D03*
%TO.P,A1,23,D4*%
%TO.N,unconnected-(A1-D4-Pad23)*%
X156566945Y-113030000D03*
%TO.P,A1,24,D5*%
%TO.N,unconnected-(A1-D5-Pad24)*%
X156566945Y-115570000D03*
%TO.P,A1,25,D6*%
%TO.N,unconnected-(A1-D6-Pad25)*%
X156566945Y-118110000D03*
%TO.P,A1,26,USB*%
%TO.N,+5V*%
X156566945Y-120650000D03*
%TO.P,A1,27,EN*%
%TO.N,unconnected-(A1-EN-Pad27)*%
X156566945Y-123190000D03*
%TO.P,A1,28,VBAT*%
%TO.N,+BATT*%
X156566945Y-125730000D03*
%TD*%
D14*
%TO.P,J1,2,Pin_2*%
%TO.N,GND*%
X144076945Y-145415000D03*
D15*
%TO.P,J1,1,Pin_1*%
%TO.N,+BATT*%
X141536945Y-145415000D03*
%TD*%
D16*
%TO.P,R2,2*%
%TO.N,GND*%
X152014445Y-121285000D03*
D13*
%TO.P,R2,1*%
%TO.N,Net-(A1-A5)*%
X152014445Y-113665000D03*
%TD*%
D15*
%TO.P,J6,1,Pin_1*%
%TO.N,+3.3V*%
X150109445Y-107315000D03*
D14*
%TO.P,J6,2,Pin_2*%
%TO.N,Net-(A1-A5)*%
X150109445Y-104775000D03*
%TD*%
D15*
%TO.P,J3,1,Pin_1*%
%TO.N,+5V*%
X148521945Y-145415000D03*
D14*
%TO.P,J3,2,Pin_2*%
%TO.N,GND*%
X151061945Y-145415000D03*
%TD*%
D15*
%TO.P,J4,1,Pin_1*%
%TO.N,+3.3V*%
X142489445Y-104775000D03*
D14*
%TO.P,J4,2,Pin_2*%
%TO.N,Net-(A1-A2)*%
X142489445Y-107315000D03*
%TD*%
D15*
%TO.P,J5,1,Pin_1*%
%TO.N,+3.3V*%
X142489445Y-97790000D03*
D14*
%TO.P,J5,2,Pin_2*%
%TO.N,Net-(A1-A1)*%
X142489445Y-100330000D03*
%TD*%
D15*
%TO.P,J8,1,Pin_1*%
%TO.N,+BATT*%
X151130000Y-134620000D03*
D14*
%TO.P,J8,2,Pin_2*%
%TO.N,Net-(A1-D2)*%
X151130000Y-132080000D03*
%TO.P,J8,3,Pin_3*%
%TO.N,GND*%
X151130000Y-129540000D03*
%TD*%
D16*
%TO.P,R3,2*%
%TO.N,GND*%
X148204445Y-121285000D03*
D13*
%TO.P,R3,1*%
%TO.N,Net-(A1-A0)*%
X148204445Y-113665000D03*
%TD*%
D15*
%TO.P,J2,1,Pin_1*%
%TO.N,+3.3V*%
X150109445Y-100330000D03*
D14*
%TO.P,J2,2,Pin_2*%
%TO.N,Net-(A1-A0)*%
X150109445Y-97790000D03*
%TD*%
%TO.P,J7,3,Pin_3*%
%TO.N,GND*%
X143510000Y-134620000D03*
%TO.P,J7,2,Pin_2*%
%TO.N,Net-(A1-D2)*%
X143510000Y-132080000D03*
D15*
%TO.P,J7,1,Pin_1*%
%TO.N,+BATT*%
X143510000Y-129540000D03*
%TD*%
D16*
%TO.P,R5,2*%
%TO.N,GND*%
X140584445Y-121285000D03*
D13*
%TO.P,R5,1*%
%TO.N,Net-(A1-A1)*%
X140584445Y-113665000D03*
%TD*%
D16*
%TO.P,R4,2*%
%TO.N,GND*%
X144394445Y-121285000D03*
D13*
%TO.P,R4,1*%
%TO.N,Net-(A1-A2)*%
X144394445Y-113665000D03*
%TD*%
D17*
%TO.N,+BATT*%
X146685000Y-140970000D02*
X151086879Y-136568121D01*
X145981945Y-140970000D02*
X146685000Y-140970000D01*
X141536945Y-145415000D02*
X145981945Y-140970000D01*
X151086879Y-136568121D02*
X151130000Y-136568121D01*
%TO.N,+5V*%
X157691945Y-121775000D02*
X156566945Y-120650000D01*
X148521945Y-144848055D02*
X157691945Y-135678055D01*
X157691945Y-135678055D02*
X157691945Y-121775000D01*
X148521945Y-145415000D02*
X148521945Y-144848055D01*
%TO.N,+BATT*%
X151130000Y-136568121D02*
X151130000Y-134620000D01*
%TO.N,+3.3V*%
X153139445Y-114590000D02*
X147079445Y-120650000D01*
X153139445Y-110345000D02*
X153139445Y-114590000D01*
X150109445Y-107315000D02*
X153139445Y-110345000D01*
X147079445Y-109365000D02*
X147079445Y-120650000D01*
X147079445Y-120650000D02*
X147079445Y-121568491D01*
X136246945Y-132400991D02*
X136246945Y-133350000D01*
X147079445Y-121568491D02*
X136246945Y-132400991D01*
X142489445Y-104775000D02*
X147079445Y-109365000D01*
X143914445Y-103350000D02*
X142489445Y-104775000D01*
X143914445Y-99215000D02*
X143914445Y-103350000D01*
X142489445Y-97790000D02*
X143914445Y-99215000D01*
X151534445Y-105890000D02*
X150109445Y-107315000D01*
X151534445Y-101755000D02*
X151534445Y-105890000D01*
X150109445Y-100330000D02*
X151534445Y-101755000D01*
X152690000Y-99405000D02*
X151034445Y-99405000D01*
X151034445Y-99405000D02*
X150109445Y-100330000D01*
X153670000Y-97502407D02*
X153670000Y-98425000D01*
X153670000Y-98425000D02*
X152690000Y-99405000D01*
X152532593Y-96365000D02*
X153670000Y-97502407D01*
X143914445Y-96365000D02*
X152532593Y-96365000D01*
X142489445Y-97790000D02*
X143914445Y-96365000D01*
X135745000Y-96665000D02*
X141364445Y-96665000D01*
X141364445Y-96665000D02*
X142489445Y-97790000D01*
X135121945Y-97288055D02*
X135745000Y-96665000D01*
X135121945Y-132225000D02*
X135121945Y-97288055D01*
X136246945Y-133350000D02*
X135121945Y-132225000D01*
%TO.N,Net-(A1-A1)*%
X141064445Y-101755000D02*
X142489445Y-100330000D01*
X141064445Y-113185000D02*
X141064445Y-101755000D01*
X140584445Y-113665000D02*
X141064445Y-113185000D01*
%TO.N,Net-(A1-A2)*%
X144394445Y-109220000D02*
X142489445Y-107315000D01*
X144394445Y-113665000D02*
X144394445Y-109220000D01*
%TO.N,Net-(A1-A5)*%
X148654445Y-110305000D02*
X148654445Y-105920000D01*
X152014445Y-113665000D02*
X148654445Y-110305000D01*
X148654445Y-105920000D02*
X149799445Y-104775000D01*
X149799445Y-104775000D02*
X150109445Y-104775000D01*
%TO.N,Net-(A1-A0)*%
X148553811Y-97790000D02*
X150109445Y-97790000D01*
X148204445Y-98139366D02*
X148553811Y-97790000D01*
X148204445Y-113665000D02*
X148204445Y-98139366D01*
%TO.N,+BATT*%
X147320000Y-125730000D02*
X156566945Y-125730000D01*
X143510000Y-129540000D02*
X147320000Y-125730000D01*
X156566945Y-127951203D02*
X156566945Y-125730000D01*
X153708148Y-130810000D02*
X156566945Y-127951203D01*
X152745000Y-133005000D02*
X152745000Y-131696852D01*
X152745000Y-131696852D02*
X153631852Y-130810000D01*
X151130000Y-134620000D02*
X152745000Y-133005000D01*
X153631852Y-130810000D02*
X153708148Y-130810000D01*
%TO.N,Net-(A1-D2)*%
X143510000Y-132080000D02*
X151130000Y-132080000D01*
%TO.N,+5V*%
X149268121Y-145415000D02*
X149268121Y-145371879D01*
%TD*%
%TA.AperFunction,Conductor*%
%TO.N,GND*%
G36*
X155419796Y-126375185D02*
G01*
X155454332Y-126408377D01*
X155566899Y-126569141D01*
X155727803Y-126730045D01*
X155888568Y-126842613D01*
X155932193Y-126897189D01*
X155941445Y-126944188D01*
X155941445Y-127640749D01*
X155921760Y-127707788D01*
X155905126Y-127728430D01*
X154523985Y-129109570D01*
X154462662Y-129143055D01*
X154392970Y-129138071D01*
X154337037Y-129096199D01*
X154331310Y-129087861D01*
X154303777Y-129044043D01*
X154299816Y-129037738D01*
X154172262Y-128910184D01*
X154147137Y-128894397D01*
X154019523Y-128814211D01*
X153849254Y-128754631D01*
X153849249Y-128754630D01*
X153714960Y-128739500D01*
X153714954Y-128739500D01*
X153625046Y-128739500D01*
X153625039Y-128739500D01*
X153490750Y-128754630D01*
X153490745Y-128754631D01*
X153320476Y-128814211D01*
X153167737Y-128910184D01*
X153040184Y-129037737D01*
X152944209Y-129190479D01*
X152933578Y-129220862D01*
X152892856Y-129277638D01*
X152827903Y-129303384D01*
X152759341Y-129289927D01*
X152708939Y-129241539D01*
X152695963Y-129208853D01*
X152656396Y-129044043D01*
X152560019Y-128811368D01*
X152428432Y-128596638D01*
X152428430Y-128596636D01*
X152427732Y-128595819D01*
X152427731Y-128595819D01*
X151778517Y-129245034D01*
X151717194Y-129278519D01*
X151647502Y-129273535D01*
X151591569Y-129231663D01*
X151588486Y-129226750D01*
X151588451Y-129226775D01*
X151583558Y-129219843D01*
X151480360Y-129109346D01*
X151480358Y-129109345D01*
X151445300Y-129088026D01*
X151398248Y-129036375D01*
X151386590Y-128967485D01*
X151414027Y-128903228D01*
X151422047Y-128894397D01*
X152074178Y-128242266D01*
X152074178Y-128242264D01*
X152073374Y-128241577D01*
X152073358Y-128241566D01*
X151858631Y-128109980D01*
X151625956Y-128013603D01*
X151381072Y-127954812D01*
X151129999Y-127935052D01*
X150878927Y-127954812D01*
X150634043Y-128013603D01*
X150401368Y-128109980D01*
X150186637Y-128241568D01*
X150185820Y-128242266D01*
X150836833Y-128893280D01*
X150870318Y-128954603D01*
X150865334Y-129024295D01*
X150827408Y-129077148D01*
X150724262Y-129161064D01*
X150724258Y-129161069D01*
X150673947Y-129232344D01*
X150619205Y-129275761D01*
X150549680Y-129282690D01*
X150487445Y-129250931D01*
X150484962Y-129248516D01*
X149832266Y-128595820D01*
X149831568Y-128596637D01*
X149699980Y-128811368D01*
X149603603Y-129044043D01*
X149544812Y-129288927D01*
X149525052Y-129540000D01*
X149544812Y-129791072D01*
X149603603Y-130035956D01*
X149699980Y-130268631D01*
X149831566Y-130483358D01*
X149831577Y-130483374D01*
X149832264Y-130484178D01*
X149832266Y-130484178D01*
X150481481Y-129834963D01*
X150542804Y-129801478D01*
X150612495Y-129806462D01*
X150668429Y-129848333D01*
X150671514Y-129853249D01*
X150671549Y-129853225D01*
X150676441Y-129860156D01*
X150779639Y-129970653D01*
X150779641Y-129970654D01*
X150792019Y-129978181D01*
X150814696Y-129991971D01*
X150861749Y-130043621D01*
X150873408Y-130112511D01*
X150845972Y-130176769D01*
X150837951Y-130185601D01*
X150341473Y-130682079D01*
X150318582Y-130700125D01*
X150186346Y-130781160D01*
X150186343Y-130781161D01*
X149994776Y-130944776D01*
X149831161Y-131136343D01*
X149831160Y-131136346D01*
X149699533Y-131351141D01*
X149699532Y-131351143D01*
X149688428Y-131377952D01*
X149644588Y-131432356D01*
X149578294Y-131454421D01*
X149573867Y-131454500D01*
X145066133Y-131454500D01*
X144999094Y-131434815D01*
X144953339Y-131382011D01*
X144951572Y-131377952D01*
X144940467Y-131351143D01*
X144940466Y-131351141D01*
X144905837Y-131294632D01*
X144859478Y-131218982D01*
X144841234Y-131151538D01*
X144862350Y-131084935D01*
X144890891Y-131054929D01*
X144967546Y-130997546D01*
X145053796Y-130882331D01*
X145104091Y-130747483D01*
X145110500Y-130687873D01*
X145110499Y-128875450D01*
X145130184Y-128808412D01*
X145146813Y-128787775D01*
X147542770Y-126391819D01*
X147604094Y-126358334D01*
X147630452Y-126355500D01*
X155352757Y-126355500D01*
X155419796Y-126375185D01*
G37*
%TD.AperFunction*%
%TA.AperFunction,Conductor*%
G36*
X152862348Y-129784866D02*
G01*
X152917373Y-129827925D01*
X152933578Y-129859138D01*
X152944209Y-129889519D01*
X153040184Y-130042262D01*
X153167740Y-130169818D01*
X153167806Y-130169859D01*
X153167839Y-130169896D01*
X153173184Y-130174159D01*
X153172437Y-130175095D01*
X153214098Y-130222193D01*
X153224747Y-130291246D01*
X153197377Y-130353895D01*
X153170562Y-130386308D01*
X153166629Y-130390630D01*
X152520041Y-131037218D01*
X152458718Y-131070703D01*
X152389026Y-131065719D01*
X152338072Y-131030070D01*
X152265224Y-130944776D01*
X152192115Y-130882335D01*
X152073656Y-130781161D01*
X152073653Y-130781160D01*
X151941415Y-130700124D01*
X151918524Y-130682078D01*
X151423165Y-130186719D01*
X151389680Y-130125396D01*
X151394664Y-130055704D01*
X151432589Y-130002852D01*
X151535739Y-129918934D01*
X151586052Y-129847655D01*
X151640793Y-129804239D01*
X151710318Y-129797309D01*
X151772553Y-129829067D01*
X151775037Y-129831483D01*
X152427732Y-130484179D01*
X152428424Y-130483371D01*
X152428432Y-130483360D01*
X152560019Y-130268631D01*
X152656396Y-130035956D01*
X152695963Y-129871146D01*
X152730753Y-129810554D01*
X152792780Y-129778390D01*
X152862348Y-129784866D01*
G37*
%TD.AperFunction*%
%TA.AperFunction,Conductor*%
G36*
X139168412Y-97310185D02*
G01*
X139214167Y-97362989D01*
X139224111Y-97432147D01*
X139218415Y-97455454D01*
X139164077Y-97610742D01*
X139164075Y-97610750D01*
X139143880Y-97789996D01*
X139143880Y-97790003D01*
X139164075Y-97969249D01*
X139164076Y-97969254D01*
X139223656Y-98139523D01*
X139284584Y-98236488D01*
X139319629Y-98292262D01*
X139447183Y-98419816D01*
X139518428Y-98464582D01*
X139581189Y-98504018D01*
X139599923Y-98515789D01*
X139770189Y-98575367D01*
X139770190Y-98575368D01*
X139770195Y-98575369D01*
X139860691Y-98585565D01*
X139904485Y-98590499D01*
X139904488Y-98590500D01*
X139904491Y-98590500D01*
X139994402Y-98590500D01*
X139994403Y-98590499D01*
X140061549Y-98582933D01*
X140128694Y-98575369D01*
X140128697Y-98575368D01*
X140128700Y-98575368D01*
X140298967Y-98515789D01*
X140451707Y-98419816D01*
X140579261Y-98292262D01*
X140659952Y-98163843D01*
X140712286Y-98117553D01*
X140781339Y-98106905D01*
X140845188Y-98135280D01*
X140883560Y-98193669D01*
X140888945Y-98229816D01*
X140888945Y-98937870D01*
X140888946Y-98937876D01*
X140895353Y-98997483D01*
X140945647Y-99132328D01*
X140945651Y-99132335D01*
X141031897Y-99247544D01*
X141031900Y-99247547D01*
X141108549Y-99304927D01*
X141150420Y-99360861D01*
X141155404Y-99430552D01*
X141139965Y-99468983D01*
X141058978Y-99601140D01*
X140962572Y-99833887D01*
X140923176Y-99997983D01*
X140888385Y-100058574D01*
X140826359Y-100090738D01*
X140756790Y-100084262D01*
X140701766Y-100041202D01*
X140685560Y-100009988D01*
X140675234Y-99980479D01*
X140675234Y-99980478D01*
X140579261Y-99827738D01*
X140451707Y-99700184D01*
X140450063Y-99699151D01*
X140298968Y-99604211D01*
X140128699Y-99544631D01*
X140128694Y-99544630D01*
X139994405Y-99529500D01*
X139994399Y-99529500D01*
X139904491Y-99529500D01*
X139904484Y-99529500D01*
X139770195Y-99544630D01*
X139770190Y-99544631D01*
X139599921Y-99604211D01*
X139447182Y-99700184D01*
X139319629Y-99827737D01*
X139223656Y-99980476D01*
X139164076Y-100150745D01*
X139164075Y-100150750D01*
X139143880Y-100329996D01*
X139143880Y-100330003D01*
X139164075Y-100509249D01*
X139164076Y-100509254D01*
X139223656Y-100679523D01*
X139280391Y-100769815D01*
X139319629Y-100832262D01*
X139447183Y-100959816D01*
X139599923Y-101055789D01*
X139770189Y-101115367D01*
X139770190Y-101115368D01*
X139770195Y-101115369D01*
X139860691Y-101125565D01*
X139904485Y-101130499D01*
X139904488Y-101130500D01*
X139904491Y-101130500D01*
X139994402Y-101130500D01*
X139994403Y-101130499D01*
X140061549Y-101122933D01*
X140128694Y-101115369D01*
X140128697Y-101115368D01*
X140128700Y-101115368D01*
X140298967Y-101055789D01*
X140451707Y-100959816D01*
X140579261Y-100832262D01*
X140675234Y-100679522D01*
X140685560Y-100650009D01*
X140726280Y-100593235D01*
X140791232Y-100567486D01*
X140859794Y-100580941D01*
X140910198Y-100629327D01*
X140923176Y-100662017D01*
X140962571Y-100826110D01*
X140973677Y-100852921D01*
X140981146Y-100922390D01*
X140949871Y-100984869D01*
X140946797Y-100988055D01*
X140680653Y-101254199D01*
X140668396Y-101264020D01*
X140668579Y-101264241D01*
X140662568Y-101269213D01*
X140615217Y-101319636D01*
X140594334Y-101340519D01*
X140594322Y-101340532D01*
X140590066Y-101346017D01*
X140586282Y-101350447D01*
X140554382Y-101384418D01*
X140554381Y-101384420D01*
X140544729Y-101401976D01*
X140534055Y-101418226D01*
X140521774Y-101434061D01*
X140521769Y-101434068D01*
X140503260Y-101476838D01*
X140500690Y-101482084D01*
X140478248Y-101522906D01*
X140473267Y-101542307D01*
X140466966Y-101560710D01*
X140459007Y-101579102D01*
X140459006Y-101579105D01*
X140451716Y-101625127D01*
X140450532Y-101630846D01*
X140438946Y-101675972D01*
X140438945Y-101675982D01*
X140438945Y-101696016D01*
X140437418Y-101715413D01*
X140434285Y-101735196D01*
X140435231Y-101745203D01*
X140438670Y-101781583D01*
X140438945Y-101787421D01*
X140438945Y-103923429D01*
X140419260Y-103990468D01*
X140366456Y-104036223D01*
X140297298Y-104046167D01*
X140273991Y-104040471D01*
X140128702Y-103989632D01*
X140128694Y-103989630D01*
X139994405Y-103974500D01*
X139994399Y-103974500D01*
X139904491Y-103974500D01*
X139904484Y-103974500D01*
X139770195Y-103989630D01*
X139770190Y-103989631D01*
X139599921Y-104049211D01*
X139447182Y-104145184D01*
X139319629Y-104272737D01*
X139223656Y-104425476D01*
X139164076Y-104595745D01*
X139164075Y-104595750D01*
X139143880Y-104774996D01*
X139143880Y-104775003D01*
X139164075Y-104954249D01*
X139164076Y-104954254D01*
X139223656Y-105124523D01*
X139319629Y-105277261D01*
X139319629Y-105277262D01*
X139447183Y-105404816D01*
X139599923Y-105500789D01*
X139713968Y-105540695D01*
X139770190Y-105560368D01*
X139770195Y-105560369D01*
X139860691Y-105570565D01*
X139904485Y-105575499D01*
X139904488Y-105575500D01*
X139904491Y-105575500D01*
X139994402Y-105575500D01*
X139994403Y-105575499D01*
X140061549Y-105567933D01*
X140128694Y-105560369D01*
X140128696Y-105560368D01*
X140128700Y-105560368D01*
X140128703Y-105560366D01*
X140128707Y-105560366D01*
X140273990Y-105509529D01*
X140343769Y-105505967D01*
X140404396Y-105540695D01*
X140436624Y-105602688D01*
X140438945Y-105626570D01*
X140438945Y-106463429D01*
X140419260Y-106530468D01*
X140366456Y-106576223D01*
X140297298Y-106586167D01*
X140273991Y-106580471D01*
X140128702Y-106529632D01*
X140128694Y-106529630D01*
X139994405Y-106514500D01*
X139994399Y-106514500D01*
X139904491Y-106514500D01*
X139904484Y-106514500D01*
X139770195Y-106529630D01*
X139770190Y-106529631D01*
X139599921Y-106589211D01*
X139447182Y-106685184D01*
X139319629Y-106812737D01*
X139223656Y-106965476D01*
X139164076Y-107135745D01*
X139164075Y-107135750D01*
X139143880Y-107314996D01*
X139143880Y-107315003D01*
X139164075Y-107494249D01*
X139164076Y-107494254D01*
X139223656Y-107664523D01*
X139280391Y-107754815D01*
X139319629Y-107817262D01*
X139447183Y-107944816D01*
X139599923Y-108040789D01*
X139713968Y-108080695D01*
X139770190Y-108100368D01*
X139770195Y-108100369D01*
X139860691Y-108110565D01*
X139904485Y-108115499D01*
X139904488Y-108115500D01*
X139904491Y-108115500D01*
X139994402Y-108115500D01*
X139994403Y-108115499D01*
X140061549Y-108107933D01*
X140128694Y-108100369D01*
X140128696Y-108100368D01*
X140128700Y-108100368D01*
X140128703Y-108100366D01*
X140128707Y-108100366D01*
X140273990Y-108049529D01*
X140343769Y-108045967D01*
X140404396Y-108080695D01*
X140436624Y-108142688D01*
X140438945Y-108166570D01*
X140438945Y-112262461D01*
X140419260Y-112329500D01*
X140366456Y-112375255D01*
X140347038Y-112382236D01*
X140137956Y-112438258D01*
X140137947Y-112438261D01*
X139931712Y-112534431D01*
X139931710Y-112534432D01*
X139745303Y-112664954D01*
X139584399Y-112825858D01*
X139453877Y-113012265D01*
X139453876Y-113012267D01*
X139357706Y-113218502D01*
X139357703Y-113218511D01*
X139298811Y-113438302D01*
X139298809Y-113438313D01*
X139278977Y-113664998D01*
X139278977Y-113665001D01*
X139298809Y-113891686D01*
X139298811Y-113891697D01*
X139357703Y-114111488D01*
X139357706Y-114111497D01*
X139453876Y-114317732D01*
X139453877Y-114317734D01*
X139584399Y-114504141D01*
X139745303Y-114665045D01*
X139745306Y-114665047D01*
X139931711Y-114795568D01*
X140137949Y-114891739D01*
X140357753Y-114950635D01*
X140519675Y-114964801D01*
X140584443Y-114970468D01*
X140584445Y-114970468D01*
X140584447Y-114970468D01*
X140641118Y-114965509D01*
X140811137Y-114950635D01*
X141030941Y-114891739D01*
X141237179Y-114795568D01*
X141423584Y-114665047D01*
X141584492Y-114504139D01*
X141715013Y-114317734D01*
X141811184Y-114111496D01*
X141870080Y-113891692D01*
X141887079Y-113697384D01*
X141889913Y-113665001D01*
X141889913Y-113664998D01*
X141870080Y-113438313D01*
X141870080Y-113438308D01*
X141811184Y-113218504D01*
X141715013Y-113012266D01*
X141712368Y-113008488D01*
X141690042Y-112942281D01*
X141689945Y-112937368D01*
X141689945Y-108901784D01*
X141709630Y-108834745D01*
X141762434Y-108788990D01*
X141831592Y-108779046D01*
X141861394Y-108787221D01*
X141993334Y-108841873D01*
X142238297Y-108900683D01*
X142489445Y-108920449D01*
X142740593Y-108900683D01*
X142985556Y-108841873D01*
X143012368Y-108830766D01*
X143081836Y-108823298D01*
X143144315Y-108854573D01*
X143147501Y-108857647D01*
X143732626Y-109442771D01*
X143766111Y-109504094D01*
X143768945Y-109530452D01*
X143768945Y-112450811D01*
X143749260Y-112517850D01*
X143716068Y-112552386D01*
X143555304Y-112664953D01*
X143394399Y-112825858D01*
X143263877Y-113012265D01*
X143263876Y-113012267D01*
X143167706Y-113218502D01*
X143167703Y-113218511D01*
X143108811Y-113438302D01*
X143108809Y-113438313D01*
X143088977Y-113664998D01*
X143088977Y-113665001D01*
X143108809Y-113891686D01*
X143108811Y-113891697D01*
X143167703Y-114111488D01*
X143167706Y-114111497D01*
X143263876Y-114317732D01*
X143263877Y-114317734D01*
X143394399Y-114504141D01*
X143555303Y-114665045D01*
X143555306Y-114665047D01*
X143741711Y-114795568D01*
X143947949Y-114891739D01*
X144167753Y-114950635D01*
X144329675Y-114964801D01*
X144394443Y-114970468D01*
X144394445Y-114970468D01*
X144394447Y-114970468D01*
X144451118Y-114965509D01*
X144621137Y-114950635D01*
X144840941Y-114891739D01*
X145047179Y-114795568D01*
X145233584Y-114665047D01*
X145394492Y-114504139D01*
X145525013Y-114317734D01*
X145621184Y-114111496D01*
X145680080Y-113891692D01*
X145697079Y-113697384D01*
X145699913Y-113665001D01*
X145699913Y-113664998D01*
X145680080Y-113438313D01*
X145680080Y-113438308D01*
X145621184Y-113218504D01*
X145525013Y-113012266D01*
X145394492Y-112825861D01*
X145394490Y-112825858D01*
X145233585Y-112664953D01*
X145072822Y-112552386D01*
X145029197Y-112497809D01*
X145019945Y-112450811D01*
X145019945Y-109302742D01*
X145021669Y-109287122D01*
X145021384Y-109287096D01*
X145022116Y-109279340D01*
X145022118Y-109279333D01*
X145019945Y-109210185D01*
X145019945Y-109180650D01*
X145019076Y-109173772D01*
X145018617Y-109167943D01*
X145017154Y-109121372D01*
X145011567Y-109102144D01*
X145007619Y-109083084D01*
X145005109Y-109063208D01*
X145005108Y-109063206D01*
X145005108Y-109063204D01*
X144987957Y-109019887D01*
X144986064Y-109014358D01*
X144973063Y-108969609D01*
X144973061Y-108969606D01*
X144962868Y-108952371D01*
X144954306Y-108934894D01*
X144946932Y-108916270D01*
X144946372Y-108915499D01*
X144919524Y-108878545D01*
X144916333Y-108873686D01*
X144892617Y-108833583D01*
X144892610Y-108833574D01*
X144878451Y-108819415D01*
X144865813Y-108804619D01*
X144861774Y-108799060D01*
X144854039Y-108788413D01*
X144842716Y-108779046D01*
X144818133Y-108758709D01*
X144813821Y-108754786D01*
X144032091Y-107973056D01*
X143998606Y-107911733D01*
X144003590Y-107842041D01*
X144005179Y-107838000D01*
X144016318Y-107811111D01*
X144075128Y-107566148D01*
X144077435Y-107536827D01*
X144102317Y-107471544D01*
X144158547Y-107430072D01*
X144228272Y-107425584D01*
X144288733Y-107458878D01*
X146417626Y-109587771D01*
X146451111Y-109649094D01*
X146453945Y-109675452D01*
X146453945Y-120591016D01*
X146452418Y-120610415D01*
X146449285Y-120630194D01*
X146449285Y-120630195D01*
X146453670Y-120676583D01*
X146453945Y-120682421D01*
X146453945Y-121258037D01*
X146434260Y-121325076D01*
X146417626Y-121345718D01*
X145758600Y-122004744D01*
X145697277Y-122038229D01*
X145627585Y-122033245D01*
X145571652Y-121991373D01*
X145547235Y-121925909D01*
X145558537Y-121864658D01*
X145620711Y-121731326D01*
X145620714Y-121731317D01*
X145673317Y-121535000D01*
X144905021Y-121535000D01*
X144837982Y-121515315D01*
X144792227Y-121462511D01*
X144782283Y-121393353D01*
X144782548Y-121391603D01*
X144799431Y-121285003D01*
X144799431Y-121284996D01*
X144782548Y-121178397D01*
X144791503Y-121109104D01*
X144836499Y-121055652D01*
X144903251Y-121035013D01*
X144905021Y-121035000D01*
X145673317Y-121035000D01*
X145673317Y-121034999D01*
X145620714Y-120838682D01*
X145620710Y-120838673D01*
X145524579Y-120632517D01*
X145394102Y-120446179D01*
X145233265Y-120285342D01*
X145046927Y-120154865D01*
X144840773Y-120058734D01*
X144644445Y-120006127D01*
X144644445Y-120774424D01*
X144624760Y-120841463D01*
X144571956Y-120887218D01*
X144502798Y-120897162D01*
X144501047Y-120896897D01*
X144425931Y-120885000D01*
X144425926Y-120885000D01*
X144362964Y-120885000D01*
X144362959Y-120885000D01*
X144287843Y-120896897D01*
X144218549Y-120887942D01*
X144165097Y-120842946D01*
X144144458Y-120776194D01*
X144144445Y-120774424D01*
X144144445Y-120006127D01*
X143948116Y-120058734D01*
X143741962Y-120154865D01*
X143555624Y-120285342D01*
X143394787Y-120446179D01*
X143264310Y-120632517D01*
X143168179Y-120838673D01*
X143168175Y-120838682D01*
X143115572Y-121034999D01*
X143115573Y-121035000D01*
X143883869Y-121035000D01*
X143950908Y-121054685D01*
X143996663Y-121107489D01*
X144006607Y-121176647D01*
X144006342Y-121178397D01*
X143989459Y-121284996D01*
X143989459Y-121285003D01*
X144006342Y-121391603D01*
X143997387Y-121460896D01*
X143952391Y-121514348D01*
X143885639Y-121534987D01*
X143883869Y-121535000D01*
X143115573Y-121535000D01*
X143168175Y-121731317D01*
X143168179Y-121731326D01*
X143264310Y-121937482D01*
X143394787Y-122123820D01*
X143555624Y-122284657D01*
X143741962Y-122415134D01*
X143948118Y-122511265D01*
X143948127Y-122511269D01*
X144144444Y-122563872D01*
X144144445Y-122563871D01*
X144144445Y-121795575D01*
X144164130Y-121728536D01*
X144216934Y-121682781D01*
X144286092Y-121672837D01*
X144287776Y-121673091D01*
X144320144Y-121678218D01*
X144362960Y-121685000D01*
X144362964Y-121685000D01*
X144425930Y-121685000D01*
X144468745Y-121678218D01*
X144501047Y-121673102D01*
X144570339Y-121682056D01*
X144623792Y-121727052D01*
X144644432Y-121793803D01*
X144644445Y-121795575D01*
X144644445Y-122563872D01*
X144840762Y-122511269D01*
X144840771Y-122511266D01*
X144974103Y-122449092D01*
X145043180Y-122438600D01*
X145106964Y-122467120D01*
X145145204Y-122525596D01*
X145145759Y-122595463D01*
X145114189Y-122649155D01*
X137575421Y-130187922D01*
X137514098Y-130221407D01*
X137444406Y-130216423D01*
X137388473Y-130174551D01*
X137380756Y-130161647D01*
X137380221Y-130161957D01*
X137377512Y-130157265D01*
X137355197Y-130125396D01*
X137246992Y-129970861D01*
X137246990Y-129970858D01*
X137086086Y-129809954D01*
X136899680Y-129679433D01*
X136899681Y-129679433D01*
X136899679Y-129679432D01*
X136841077Y-129652105D01*
X136788639Y-129605933D01*
X136769488Y-129538739D01*
X136789704Y-129471858D01*
X136841080Y-129427341D01*
X136899427Y-129400133D01*
X136972417Y-129349025D01*
X136430811Y-128807419D01*
X136397326Y-128746096D01*
X136402310Y-128676404D01*
X136444182Y-128620471D01*
X136462190Y-128609258D01*
X136484990Y-128597641D01*
X136574586Y-128508045D01*
X136586199Y-128485252D01*
X136634170Y-128434458D01*
X136701991Y-128417661D01*
X136768126Y-128440197D01*
X136784364Y-128453866D01*
X137325970Y-128995472D01*
X137377081Y-128922478D01*
X137473209Y-128716331D01*
X137473214Y-128716317D01*
X137532084Y-128496610D01*
X137532086Y-128496599D01*
X137551911Y-128270002D01*
X137551911Y-128269997D01*
X137532086Y-128043400D01*
X137532084Y-128043389D01*
X137473214Y-127823682D01*
X137473210Y-127823673D01*
X137377078Y-127617516D01*
X137377076Y-127617512D01*
X137325971Y-127544526D01*
X137325970Y-127544526D01*
X136784364Y-128086132D01*
X136723041Y-128119617D01*
X136653349Y-128114633D01*
X136597416Y-128072761D01*
X136586201Y-128054751D01*
X136574586Y-128031955D01*
X136574582Y-128031951D01*
X136574581Y-128031949D01*
X136484995Y-127942363D01*
X136484989Y-127942358D01*
X136470649Y-127935052D01*
X136462195Y-127930744D01*
X136411401Y-127882773D01*
X136394605Y-127814952D01*
X136417142Y-127748817D01*
X136430810Y-127732580D01*
X136972417Y-127190973D01*
X136899428Y-127139866D01*
X136899426Y-127139865D01*
X136841078Y-127112657D01*
X136788639Y-127066484D01*
X136769487Y-126999291D01*
X136789703Y-126932410D01*
X136841074Y-126887895D01*
X136899679Y-126860568D01*
X137086084Y-126730047D01*
X137246992Y-126569139D01*
X137377513Y-126382734D01*
X137473684Y-126176496D01*
X137532580Y-125956692D01*
X137552413Y-125730000D01*
X137532580Y-125503308D01*
X137473684Y-125283504D01*
X137377513Y-125077266D01*
X137246992Y-124890861D01*
X137246990Y-124890858D01*
X137086086Y-124729954D01*
X136899679Y-124599432D01*
X136899673Y-124599429D01*
X136841670Y-124572382D01*
X136789230Y-124526210D01*
X136770078Y-124459017D01*
X136790293Y-124392135D01*
X136841670Y-124347618D01*
X136899679Y-124320568D01*
X137086084Y-124190047D01*
X137246992Y-124029139D01*
X137377513Y-123842734D01*
X137473684Y-123636496D01*
X137532580Y-123416692D01*
X137552413Y-123190000D01*
X137532580Y-122963308D01*
X137473684Y-122743504D01*
X137377513Y-122537266D01*
X137246992Y-122350861D01*
X137246990Y-122350858D01*
X137086086Y-122189954D01*
X136899679Y-122059432D01*
X136899673Y-122059429D01*
X136841670Y-122032382D01*
X136789230Y-121986210D01*
X136770078Y-121919017D01*
X136790293Y-121852135D01*
X136841670Y-121807618D01*
X136899679Y-121780568D01*
X137086084Y-121650047D01*
X137246992Y-121489139D01*
X137377513Y-121302734D01*
X137473684Y-121096496D01*
X137490162Y-121034999D01*
X139305572Y-121034999D01*
X139305573Y-121035000D01*
X140073869Y-121035000D01*
X140140908Y-121054685D01*
X140186663Y-121107489D01*
X140196607Y-121176647D01*
X140196342Y-121178397D01*
X140179459Y-121284996D01*
X140179459Y-121285003D01*
X140196342Y-121391603D01*
X140187387Y-121460896D01*
X140142391Y-121514348D01*
X140075639Y-121534987D01*
X140073869Y-121535000D01*
X139305573Y-121535000D01*
X139358175Y-121731317D01*
X139358179Y-121731326D01*
X139454310Y-121937482D01*
X139584787Y-122123820D01*
X139745624Y-122284657D01*
X139931962Y-122415134D01*
X140138118Y-122511265D01*
X140138127Y-122511269D01*
X140334444Y-122563872D01*
X140334445Y-122563871D01*
X140334445Y-121795575D01*
X140354130Y-121728536D01*
X140406934Y-121682781D01*
X140476092Y-121672837D01*
X140477776Y-121673091D01*
X140510144Y-121678218D01*
X140552960Y-121685000D01*
X140552964Y-121685000D01*
X140615930Y-121685000D01*
X140658745Y-121678218D01*
X140691047Y-121673102D01*
X140760339Y-121682056D01*
X140813792Y-121727052D01*
X140834432Y-121793803D01*
X140834445Y-121795575D01*
X140834445Y-122563872D01*
X141030762Y-122511269D01*
X141030771Y-122511265D01*
X141236927Y-122415134D01*
X141423265Y-122284657D01*
X141584102Y-122123820D01*
X141714579Y-121937482D01*
X141810710Y-121731326D01*
X141810714Y-121731317D01*
X141863317Y-121535000D01*
X141095021Y-121535000D01*
X141027982Y-121515315D01*
X140982227Y-121462511D01*
X140972283Y-121393353D01*
X140972548Y-121391603D01*
X140989431Y-121285003D01*
X140989431Y-121284996D01*
X140972548Y-121178397D01*
X140981503Y-121109104D01*
X141026499Y-121055652D01*
X141093251Y-121035013D01*
X141095021Y-121035000D01*
X141863317Y-121035000D01*
X141863317Y-121034999D01*
X141810714Y-120838682D01*
X141810710Y-120838673D01*
X141714579Y-120632517D01*
X141584102Y-120446179D01*
X141423265Y-120285342D01*
X141236927Y-120154865D01*
X141030773Y-120058734D01*
X140834445Y-120006127D01*
X140834445Y-120774424D01*
X140814760Y-120841463D01*
X140761956Y-120887218D01*
X140692798Y-120897162D01*
X140691047Y-120896897D01*
X140615931Y-120885000D01*
X140615926Y-120885000D01*
X140552964Y-120885000D01*
X140552959Y-120885000D01*
X140477843Y-120896897D01*
X140408549Y-120887942D01*
X140355097Y-120842946D01*
X140334458Y-120776194D01*
X140334445Y-120774424D01*
X140334445Y-120006127D01*
X140138116Y-120058734D01*
X139931962Y-120154865D01*
X139745624Y-120285342D01*
X139584787Y-120446179D01*
X139454310Y-120632517D01*
X139358179Y-120838673D01*
X139358175Y-120838682D01*
X139305572Y-121034999D01*
X137490162Y-121034999D01*
X137532580Y-120876692D01*
X137552413Y-120650000D01*
X137550883Y-120632517D01*
X137532580Y-120423313D01*
X137532580Y-120423308D01*
X137473684Y-120203504D01*
X137377513Y-119997266D01*
X137246992Y-119810861D01*
X137246990Y-119810858D01*
X137086086Y-119649954D01*
X136899679Y-119519432D01*
X136899673Y-119519429D01*
X136841670Y-119492382D01*
X136789230Y-119446210D01*
X136770078Y-119379017D01*
X136790293Y-119312135D01*
X136841670Y-119267618D01*
X136899679Y-119240568D01*
X137086084Y-119110047D01*
X137246992Y-118949139D01*
X137377513Y-118762734D01*
X137473684Y-118556496D01*
X137532580Y-118336692D01*
X137552413Y-118110000D01*
X137532580Y-117883308D01*
X137473684Y-117663504D01*
X137377513Y-117457266D01*
X137246992Y-117270861D01*
X137246990Y-117270858D01*
X137086086Y-117109954D01*
X136899679Y-116979432D01*
X136899673Y-116979429D01*
X136841670Y-116952382D01*
X136789230Y-116906210D01*
X136770078Y-116839017D01*
X136790293Y-116772135D01*
X136841670Y-116727618D01*
X136899679Y-116700568D01*
X137086084Y-116570047D01*
X137246992Y-116409139D01*
X137377513Y-116222734D01*
X137473684Y-116016496D01*
X137532580Y-115796692D01*
X137552413Y-115570000D01*
X137532580Y-115343308D01*
X137487861Y-115176415D01*
X137473686Y-115123511D01*
X137473683Y-115123502D01*
X137377513Y-114917266D01*
X137246992Y-114730861D01*
X137246990Y-114730858D01*
X137086086Y-114569954D01*
X136899679Y-114439432D01*
X136899673Y-114439429D01*
X136841670Y-114412382D01*
X136789230Y-114366210D01*
X136770078Y-114299017D01*
X136790293Y-114232135D01*
X136841670Y-114187618D01*
X136899679Y-114160568D01*
X137086084Y-114030047D01*
X137246992Y-113869139D01*
X137377513Y-113682734D01*
X137473684Y-113476496D01*
X137532580Y-113256692D01*
X137552413Y-113030000D01*
X137550861Y-113012266D01*
X137534553Y-112825861D01*
X137532580Y-112803308D01*
X137473684Y-112583504D01*
X137377513Y-112377266D01*
X137246992Y-112190861D01*
X137246990Y-112190858D01*
X137086086Y-112029954D01*
X136899679Y-111899432D01*
X136899673Y-111899429D01*
X136841670Y-111872382D01*
X136789230Y-111826210D01*
X136770078Y-111759017D01*
X136790293Y-111692135D01*
X136841670Y-111647618D01*
X136899679Y-111620568D01*
X137086084Y-111490047D01*
X137246992Y-111329139D01*
X137377513Y-111142734D01*
X137473684Y-110936496D01*
X137532580Y-110716692D01*
X137552413Y-110490000D01*
X137532580Y-110263308D01*
X137478076Y-110059894D01*
X137473686Y-110043511D01*
X137473683Y-110043502D01*
X137455064Y-110003573D01*
X137377513Y-109837266D01*
X137246992Y-109650861D01*
X137246990Y-109650858D01*
X137086086Y-109489954D01*
X136899679Y-109359432D01*
X136899673Y-109359429D01*
X136841670Y-109332382D01*
X136789230Y-109286210D01*
X136770078Y-109219017D01*
X136790293Y-109152135D01*
X136841670Y-109107618D01*
X136853409Y-109102144D01*
X136899679Y-109080568D01*
X137086084Y-108950047D01*
X137246992Y-108789139D01*
X137377513Y-108602734D01*
X137473684Y-108396496D01*
X137532580Y-108176692D01*
X137552413Y-107950000D01*
X137551959Y-107944816D01*
X137540261Y-107811103D01*
X137532580Y-107723308D01*
X137473684Y-107503504D01*
X137377513Y-107297266D01*
X137246992Y-107110861D01*
X137246990Y-107110858D01*
X137086086Y-106949954D01*
X136899679Y-106819432D01*
X136899673Y-106819429D01*
X136841670Y-106792382D01*
X136789230Y-106746210D01*
X136770078Y-106679017D01*
X136790293Y-106612135D01*
X136841670Y-106567618D01*
X136899679Y-106540568D01*
X137086084Y-106410047D01*
X137246992Y-106249139D01*
X137377513Y-106062734D01*
X137473684Y-105856496D01*
X137532580Y-105636692D01*
X137552413Y-105410000D01*
X137551959Y-105404816D01*
X137532580Y-105183313D01*
X137532580Y-105183308D01*
X137473684Y-104963504D01*
X137377513Y-104757266D01*
X137246992Y-104570861D01*
X137246990Y-104570858D01*
X137086086Y-104409954D01*
X136899679Y-104279432D01*
X136899673Y-104279429D01*
X136841670Y-104252382D01*
X136789230Y-104206210D01*
X136770078Y-104139017D01*
X136790293Y-104072135D01*
X136841670Y-104027618D01*
X136899679Y-104000568D01*
X137086084Y-103870047D01*
X137246992Y-103709139D01*
X137377513Y-103522734D01*
X137473684Y-103316496D01*
X137532580Y-103096692D01*
X137552413Y-102870000D01*
X137532580Y-102643308D01*
X137473684Y-102423504D01*
X137377513Y-102217266D01*
X137246992Y-102030861D01*
X137246990Y-102030858D01*
X137086086Y-101869954D01*
X136899679Y-101739432D01*
X136899673Y-101739429D01*
X136851953Y-101717177D01*
X136841669Y-101712381D01*
X136789230Y-101666210D01*
X136770078Y-101599017D01*
X136790293Y-101532135D01*
X136841670Y-101487618D01*
X136842202Y-101487370D01*
X136899679Y-101460568D01*
X137086084Y-101330047D01*
X137246992Y-101169139D01*
X137377513Y-100982734D01*
X137473684Y-100776496D01*
X137532580Y-100556692D01*
X137552413Y-100330000D01*
X137532580Y-100103308D01*
X137473684Y-99883504D01*
X137377513Y-99677266D01*
X137246992Y-99490861D01*
X137246990Y-99490858D01*
X137086086Y-99329954D01*
X136899679Y-99199432D01*
X136899673Y-99199429D01*
X136871983Y-99186517D01*
X136841669Y-99172381D01*
X136789230Y-99126210D01*
X136770078Y-99059017D01*
X136790293Y-98992135D01*
X136841670Y-98947618D01*
X136842202Y-98947370D01*
X136899679Y-98920568D01*
X137086084Y-98790047D01*
X137246992Y-98629139D01*
X137377513Y-98442734D01*
X137473684Y-98236496D01*
X137532580Y-98016692D01*
X137552413Y-97790000D01*
X137532580Y-97563308D01*
X137519253Y-97513573D01*
X137501307Y-97446593D01*
X137502970Y-97376743D01*
X137542133Y-97318881D01*
X137606362Y-97291377D01*
X137621082Y-97290500D01*
X139101373Y-97290500D01*
X139168412Y-97310185D01*
G37*
%TD.AperFunction*%
%TA.AperFunction,Conductor*%
G36*
X155734022Y-88274397D02*
G01*
X155934949Y-88283174D01*
X155939874Y-88283588D01*
X156154014Y-88310280D01*
X156356330Y-88336915D01*
X156360920Y-88337697D01*
X156572216Y-88382001D01*
X156771561Y-88426194D01*
X156775785Y-88427289D01*
X156975503Y-88486748D01*
X156982795Y-88488919D01*
X157177724Y-88550379D01*
X157181553Y-88551728D01*
X157382846Y-88630272D01*
X157571835Y-88708554D01*
X157575275Y-88710105D01*
X157769557Y-88805084D01*
X157951064Y-88899570D01*
X157954145Y-88901289D01*
X158139995Y-89012031D01*
X158312736Y-89122079D01*
X158315379Y-89123862D01*
X158410631Y-89191870D01*
X158491572Y-89249661D01*
X158654171Y-89374427D01*
X158656483Y-89376291D01*
X158821762Y-89516275D01*
X158973954Y-89655734D01*
X159128158Y-89809937D01*
X159267615Y-89962127D01*
X159407599Y-90127405D01*
X159409461Y-90129713D01*
X159495047Y-90241251D01*
X159534219Y-90292301D01*
X159660004Y-90468473D01*
X159661836Y-90471188D01*
X159771862Y-90643894D01*
X159807160Y-90703131D01*
X159882606Y-90829744D01*
X159884328Y-90832833D01*
X159978824Y-91014360D01*
X160073775Y-91208584D01*
X160075355Y-91212089D01*
X160153616Y-91401027D01*
X160232153Y-91602299D01*
X160233525Y-91606194D01*
X160294977Y-91801095D01*
X160356597Y-92008072D01*
X160357705Y-92012345D01*
X160401890Y-92211646D01*
X160446200Y-92422972D01*
X160446990Y-92427605D01*
X160473606Y-92629785D01*
X160500306Y-92843989D01*
X160500723Y-92848955D01*
X160509591Y-93052024D01*
X160518390Y-93264764D01*
X160518390Y-150574999D01*
X160509312Y-150794459D01*
X160500744Y-150990795D01*
X160500327Y-150995763D01*
X160473233Y-151213126D01*
X160447035Y-151412129D01*
X160446245Y-151416762D01*
X160401524Y-151630049D01*
X160357776Y-151827382D01*
X160356668Y-151831654D01*
X160294611Y-152040101D01*
X160233624Y-152233523D01*
X160232252Y-152237417D01*
X160153257Y-152439865D01*
X160075486Y-152627618D01*
X160073906Y-152631122D01*
X159985576Y-152811806D01*
X159978642Y-152825992D01*
X159978472Y-152826339D01*
X159884501Y-153006852D01*
X159882768Y-153009961D01*
X159771515Y-153196668D01*
X159662047Y-153368499D01*
X159660215Y-153371214D01*
X159533884Y-153548151D01*
X159409737Y-153709940D01*
X159407861Y-153712267D01*
X159267288Y-153878243D01*
X159128466Y-154029740D01*
X158973633Y-154184573D01*
X158822139Y-154323392D01*
X158656172Y-154463959D01*
X158653844Y-154465836D01*
X158492039Y-154589993D01*
X158315125Y-154716307D01*
X158312410Y-154718139D01*
X158140553Y-154827624D01*
X157953846Y-154938875D01*
X157950737Y-154940609D01*
X157770242Y-155034568D01*
X157575022Y-155130007D01*
X157571517Y-155131587D01*
X157383767Y-155209356D01*
X157181290Y-155288361D01*
X157177396Y-155289733D01*
X156984003Y-155350710D01*
X156775547Y-155412769D01*
X156771274Y-155413877D01*
X156573893Y-155457636D01*
X156360668Y-155502343D01*
X156356036Y-155503132D01*
X156156938Y-155529345D01*
X155939651Y-155556428D01*
X155934685Y-155556845D01*
X155740494Y-155565324D01*
X155561600Y-155572723D01*
X155518890Y-155574490D01*
X155518653Y-155574500D01*
X137080000Y-155574500D01*
X136862728Y-155565513D01*
X136664080Y-155556839D01*
X136659114Y-155556422D01*
X136443319Y-155529524D01*
X136242733Y-155503115D01*
X136238101Y-155502326D01*
X136025826Y-155457818D01*
X135827472Y-155413843D01*
X135823200Y-155412735D01*
X135615496Y-155350899D01*
X135421340Y-155289681D01*
X135417445Y-155288309D01*
X135215566Y-155209536D01*
X135027229Y-155131524D01*
X135023744Y-155129953D01*
X134964503Y-155100992D01*
X134829007Y-155034750D01*
X134648000Y-154940525D01*
X134644891Y-154938791D01*
X134458617Y-154827797D01*
X134286335Y-154718040D01*
X134283621Y-154716209D01*
X134107081Y-154590162D01*
X133944900Y-154465716D01*
X133942572Y-154463839D01*
X133776940Y-154323557D01*
X133776760Y-154323392D01*
X133625103Y-154184424D01*
X133470574Y-154029895D01*
X133331439Y-153878055D01*
X133191159Y-153712426D01*
X133189282Y-153710098D01*
X133064837Y-153547918D01*
X132938789Y-153371377D01*
X132936957Y-153368662D01*
X132827202Y-153196382D01*
X132716207Y-153010107D01*
X132714473Y-153006998D01*
X132620249Y-152825992D01*
X132561755Y-152706343D01*
X132525045Y-152631252D01*
X132523494Y-152627817D01*
X132445472Y-152439457D01*
X132366680Y-152237530D01*
X132365317Y-152233658D01*
X132304112Y-152039544D01*
X132242257Y-151831778D01*
X132241155Y-151827526D01*
X132197375Y-151630049D01*
X132197175Y-151629145D01*
X132191495Y-151602057D01*
X132152671Y-151416894D01*
X132151883Y-151412265D01*
X132151313Y-151407940D01*
X132125489Y-151211792D01*
X132098574Y-150995865D01*
X132098160Y-150990934D01*
X132089488Y-150792318D01*
X132080500Y-150575000D01*
X132080500Y-150574500D01*
X132080500Y-97268250D01*
X134491785Y-97268250D01*
X134496170Y-97314638D01*
X134496445Y-97320476D01*
X134496445Y-132142255D01*
X134494720Y-132157872D01*
X134495006Y-132157899D01*
X134494271Y-132165665D01*
X134496445Y-132234814D01*
X134496445Y-132264343D01*
X134496446Y-132264360D01*
X134497313Y-132271231D01*
X134497771Y-132277050D01*
X134499235Y-132323624D01*
X134499236Y-132323627D01*
X134504825Y-132342867D01*
X134508769Y-132361911D01*
X134510970Y-132379327D01*
X134511281Y-132381791D01*
X134528435Y-132425119D01*
X134530327Y-132430647D01*
X134543326Y-132475388D01*
X134553525Y-132492634D01*
X134562083Y-132510103D01*
X134569459Y-132528732D01*
X134596843Y-132566423D01*
X134600051Y-132571307D01*
X134623772Y-132611416D01*
X134623778Y-132611424D01*
X134637935Y-132625580D01*
X134650573Y-132640376D01*
X134662350Y-132656586D01*
X134662351Y-132656587D01*
X134698254Y-132686288D01*
X134702565Y-132690210D01*
X134892853Y-132880499D01*
X134947531Y-132935177D01*
X134981016Y-132996500D01*
X134979625Y-133054949D01*
X134961312Y-133123296D01*
X134961309Y-133123313D01*
X134941477Y-133349999D01*
X134941477Y-133350001D01*
X134961309Y-133576686D01*
X134961311Y-133576697D01*
X135020203Y-133796488D01*
X135020206Y-133796497D01*
X135116376Y-134002732D01*
X135116377Y-134002734D01*
X135246899Y-134189141D01*
X135407803Y-134350045D01*
X135432407Y-134367273D01*
X135476032Y-134421849D01*
X135483226Y-134491348D01*
X135451703Y-134553703D01*
X135391474Y-134589117D01*
X135374538Y-134592138D01*
X135339461Y-134595908D01*
X135204616Y-134646202D01*
X135204609Y-134646206D01*
X135089400Y-134732452D01*
X135089397Y-134732455D01*
X135003151Y-134847664D01*
X135003147Y-134847671D01*
X134952853Y-134982517D01*
X134946446Y-135042116D01*
X134946446Y-135042123D01*
X134946445Y-135042135D01*
X134946445Y-136737870D01*
X134946446Y-136737876D01*
X134952853Y-136797483D01*
X135003147Y-136932328D01*
X135003151Y-136932335D01*
X135089397Y-137047544D01*
X135089400Y-137047547D01*
X135204609Y-137133793D01*
X135204616Y-137133797D01*
X135339462Y-137184091D01*
X135339461Y-137184091D01*
X135346389Y-137184835D01*
X135399072Y-137190500D01*
X137094817Y-137190499D01*
X137154428Y-137184091D01*
X137289276Y-137133796D01*
X137404491Y-137047546D01*
X137490741Y-136932331D01*
X137541036Y-136797483D01*
X137547445Y-136737873D01*
X137547444Y-135042128D01*
X137541036Y-134982517D01*
X137536189Y-134969522D01*
X137490742Y-134847671D01*
X137490738Y-134847664D01*
X137404492Y-134732455D01*
X137404489Y-134732452D01*
X137289280Y-134646206D01*
X137289273Y-134646202D01*
X137154427Y-134595908D01*
X137154428Y-134595908D01*
X137119349Y-134592137D01*
X137054798Y-134565399D01*
X137014950Y-134508006D01*
X137012457Y-134438181D01*
X137048110Y-134378092D01*
X137061484Y-134367272D01*
X137068028Y-134362690D01*
X137086084Y-134350047D01*
X137246992Y-134189139D01*
X137377513Y-134002734D01*
X137473684Y-133796496D01*
X137532580Y-133576692D01*
X137552413Y-133350000D01*
X137550307Y-133325933D01*
X137540838Y-133217702D01*
X137532580Y-133123308D01*
X137473684Y-132903504D01*
X137377513Y-132697266D01*
X137246992Y-132510861D01*
X137246990Y-132510858D01*
X137222009Y-132485877D01*
X137188524Y-132424554D01*
X137193508Y-132354862D01*
X137222007Y-132310517D01*
X139964956Y-129567569D01*
X140026277Y-129534086D01*
X140095969Y-129539070D01*
X140151902Y-129580942D01*
X140175855Y-129641367D01*
X140184631Y-129719251D01*
X140184631Y-129719254D01*
X140244211Y-129889523D01*
X140300946Y-129979815D01*
X140340184Y-130042262D01*
X140467738Y-130169816D01*
X140620478Y-130265789D01*
X140680010Y-130286620D01*
X140790745Y-130325368D01*
X140790750Y-130325369D01*
X140881246Y-130335565D01*
X140925040Y-130340499D01*
X140925043Y-130340500D01*
X140925046Y-130340500D01*
X141014957Y-130340500D01*
X141014958Y-130340499D01*
X141082433Y-130332897D01*
X141149249Y-130325369D01*
X141149252Y-130325368D01*
X141149255Y-130325368D01*
X141319522Y-130265789D01*
X141472262Y-130169816D01*
X141599816Y-130042262D01*
X141680508Y-129913840D01*
X141732840Y-129867552D01*
X141801894Y-129856903D01*
X141865742Y-129885278D01*
X141904114Y-129943668D01*
X141909500Y-129979815D01*
X141909500Y-130687870D01*
X141909501Y-130687876D01*
X141915908Y-130747483D01*
X141966202Y-130882328D01*
X141966206Y-130882335D01*
X142052452Y-130997544D01*
X142052455Y-130997547D01*
X142129104Y-131054927D01*
X142170975Y-131110861D01*
X142175959Y-131180552D01*
X142160520Y-131218983D01*
X142079533Y-131351140D01*
X141983127Y-131583887D01*
X141943731Y-131747983D01*
X141908940Y-131808574D01*
X141846914Y-131840738D01*
X141777345Y-131834262D01*
X141722321Y-131791202D01*
X141706115Y-131759988D01*
X141695789Y-131730479D01*
X141695789Y-131730478D01*
X141599816Y-131577738D01*
X141472262Y-131450184D01*
X141463862Y-131444906D01*
X141319523Y-131354211D01*
X141149254Y-131294631D01*
X141149249Y-131294630D01*
X141014960Y-131279500D01*
X141014954Y-131279500D01*
X140925046Y-131279500D01*
X140925039Y-131279500D01*
X140790750Y-131294630D01*
X140790745Y-131294631D01*
X140620476Y-131354211D01*
X140467737Y-131450184D01*
X140340184Y-131577737D01*
X140244211Y-131730476D01*
X140184631Y-131900745D01*
X140184630Y-131900750D01*
X140164435Y-132079996D01*
X140164435Y-132080003D01*
X140184630Y-132259249D01*
X140184631Y-132259254D01*
X140244211Y-132429523D01*
X140336318Y-132576110D01*
X140340184Y-132582262D01*
X140467738Y-132709816D01*
X140492198Y-132725185D01*
X140576234Y-132777989D01*
X140620478Y-132805789D01*
X140629252Y-132808859D01*
X140790745Y-132865368D01*
X140790750Y-132865369D01*
X140881246Y-132875565D01*
X140925040Y-132880499D01*
X140925043Y-132880500D01*
X140925046Y-132880500D01*
X141014957Y-132880500D01*
X141014958Y-132880499D01*
X141082104Y-132872934D01*
X141149249Y-132865369D01*
X141149252Y-132865368D01*
X141149255Y-132865368D01*
X141319522Y-132805789D01*
X141472262Y-132709816D01*
X141599816Y-132582262D01*
X141695789Y-132429522D01*
X141706115Y-132400009D01*
X141746835Y-132343235D01*
X141811787Y-132317486D01*
X141880349Y-132330941D01*
X141930753Y-132379327D01*
X141943731Y-132412017D01*
X141983126Y-132576110D01*
X142079533Y-132808859D01*
X142211160Y-133023653D01*
X142211161Y-133023656D01*
X142237888Y-133054949D01*
X142374776Y-133215224D01*
X142566341Y-133378836D01*
X142698585Y-133459875D01*
X142721474Y-133477920D01*
X143216833Y-133973280D01*
X143250318Y-134034603D01*
X143245334Y-134104295D01*
X143207408Y-134157148D01*
X143104262Y-134241064D01*
X143104258Y-134241069D01*
X143053947Y-134312344D01*
X142999205Y-134355761D01*
X142929680Y-134362690D01*
X142867445Y-134330931D01*
X142864962Y-134328516D01*
X142212266Y-133675820D01*
X142211568Y-133676637D01*
X142079980Y-133891368D01*
X141983603Y-134124043D01*
X141944036Y-134288853D01*
X141909245Y-134349445D01*
X141847219Y-134381609D01*
X141777650Y-134375133D01*
X141722626Y-134332073D01*
X141706420Y-134300859D01*
X141695790Y-134270479D01*
X141644810Y-134189345D01*
X141599816Y-134117738D01*
X141472262Y-133990184D01*
X141447137Y-133974397D01*
X141319523Y-133894211D01*
X141149254Y-133834631D01*
X141149249Y-133834630D01*
X141014960Y-133819500D01*
X141014954Y-133819500D01*
X140925046Y-133819500D01*
X140925039Y-133819500D01*
X140790750Y-133834630D01*
X140790745Y-133834631D01*
X140620476Y-133894211D01*
X140467737Y-133990184D01*
X140340184Y-134117737D01*
X140244211Y-134270476D01*
X140184631Y-134440745D01*
X140184630Y-134440750D01*
X140164435Y-134619996D01*
X140164435Y-134620003D01*
X140184630Y-134799249D01*
X140184631Y-134799254D01*
X140244211Y-134969523D01*
X140322645Y-135094349D01*
X140340184Y-135122262D01*
X140467738Y-135249816D01*
X140620478Y-135345789D01*
X140790745Y-135405367D01*
X140790745Y-135405368D01*
X140790750Y-135405369D01*
X140881246Y-135415565D01*
X140925040Y-135420499D01*
X140925043Y-135420500D01*
X140925046Y-135420500D01*
X141014957Y-135420500D01*
X141014958Y-135420499D01*
X141082104Y-135412934D01*
X141149249Y-135405369D01*
X141149252Y-135405368D01*
X141149255Y-135405368D01*
X141319522Y-135345789D01*
X141472262Y-135249816D01*
X141599816Y-135122262D01*
X141695789Y-134969522D01*
X141706419Y-134939141D01*
X141747140Y-134882364D01*
X141812092Y-134856615D01*
X141880654Y-134870070D01*
X141931058Y-134918456D01*
X141944036Y-134951146D01*
X141983603Y-135115956D01*
X142079980Y-135348631D01*
X142211566Y-135563358D01*
X142211577Y-135563374D01*
X142212264Y-135564178D01*
X142212266Y-135564178D01*
X142861481Y-134914963D01*
X142922804Y-134881478D01*
X142992495Y-134886462D01*
X143048429Y-134928333D01*
X143051514Y-134933249D01*
X143051549Y-134933225D01*
X143056441Y-134940156D01*
X143151666Y-135042116D01*
X143159638Y-135050652D01*
X143194698Y-135071973D01*
X143241749Y-135123623D01*
X143253407Y-135192513D01*
X143225970Y-135256770D01*
X143217950Y-135265601D01*
X142565819Y-135917731D01*
X142565819Y-135917732D01*
X142566636Y-135918430D01*
X142566638Y-135918432D01*
X142781368Y-136050019D01*
X143014043Y-136146396D01*
X143258927Y-136205187D01*
X143510000Y-136224947D01*
X143761072Y-136205187D01*
X144005956Y-136146396D01*
X144238631Y-136050019D01*
X144453360Y-135918432D01*
X144453371Y-135918424D01*
X144454179Y-135917732D01*
X143803165Y-135266718D01*
X143769680Y-135205395D01*
X143774664Y-135135703D01*
X143812588Y-135082853D01*
X143915739Y-134998934D01*
X143966052Y-134927655D01*
X144020793Y-134884239D01*
X144090318Y-134877309D01*
X144152553Y-134909067D01*
X144155037Y-134911483D01*
X144807732Y-135564179D01*
X144808424Y-135563371D01*
X144808432Y-135563360D01*
X144940019Y-135348631D01*
X145036396Y-135115956D01*
X145095187Y-134871072D01*
X145114947Y-134620000D01*
X145095187Y-134368927D01*
X145036396Y-134124043D01*
X144940019Y-133891368D01*
X144808432Y-133676638D01*
X144808430Y-133676636D01*
X144807732Y-133675819D01*
X144807731Y-133675819D01*
X144158517Y-134325034D01*
X144097194Y-134358519D01*
X144027502Y-134353535D01*
X143971569Y-134311663D01*
X143968486Y-134306750D01*
X143968451Y-134306775D01*
X143963558Y-134299843D01*
X143860360Y-134189346D01*
X143860358Y-134189345D01*
X143825300Y-134168026D01*
X143778248Y-134116375D01*
X143766590Y-134047485D01*
X143794027Y-133983228D01*
X143802047Y-133974397D01*
X144298522Y-133477922D01*
X144321407Y-133459879D01*
X144453659Y-133378836D01*
X144645224Y-133215224D01*
X144808836Y-133023659D01*
X144940466Y-132808859D01*
X144951572Y-132782048D01*
X144995412Y-132727644D01*
X145061706Y-132705579D01*
X145066133Y-132705500D01*
X149573867Y-132705500D01*
X149640906Y-132725185D01*
X149686661Y-132777989D01*
X149688428Y-132782048D01*
X149699532Y-132808856D01*
X149699533Y-132808858D01*
X149780520Y-132941016D01*
X149798765Y-133008462D01*
X149777649Y-133075064D01*
X149749105Y-133105072D01*
X149672452Y-133162455D01*
X149586206Y-133277664D01*
X149586202Y-133277671D01*
X149535908Y-133412517D01*
X149529501Y-133472116D01*
X149529500Y-133472135D01*
X149529500Y-135767870D01*
X149529501Y-135767876D01*
X149535908Y-135827483D01*
X149586202Y-135962328D01*
X149586206Y-135962335D01*
X149672452Y-136077544D01*
X149672455Y-136077547D01*
X149787664Y-136163793D01*
X149787671Y-136163797D01*
X149828060Y-136178861D01*
X149922517Y-136214091D01*
X149982127Y-136220500D01*
X150250548Y-136220499D01*
X150317586Y-136240183D01*
X150363341Y-136292987D01*
X150373285Y-136362146D01*
X150344260Y-136425701D01*
X150338228Y-136432180D01*
X146462228Y-140308181D01*
X146400905Y-140341666D01*
X146374547Y-140344500D01*
X146064682Y-140344500D01*
X146049065Y-140342776D01*
X146049038Y-140343062D01*
X146041276Y-140342327D01*
X145972148Y-140344500D01*
X145942595Y-140344500D01*
X145941874Y-140344590D01*
X145935702Y-140345369D01*
X145929890Y-140345826D01*
X145883323Y-140347290D01*
X145883312Y-140347292D01*
X145864079Y-140352879D01*
X145845039Y-140356822D01*
X145825162Y-140359334D01*
X145825155Y-140359335D01*
X145825153Y-140359336D01*
X145825151Y-140359336D01*
X145825150Y-140359337D01*
X145781813Y-140376494D01*
X145776287Y-140378386D01*
X145731556Y-140391382D01*
X145731553Y-140391383D01*
X145714308Y-140401581D01*
X145696846Y-140410135D01*
X145678217Y-140417511D01*
X145678212Y-140417513D01*
X145640509Y-140444906D01*
X145635627Y-140448112D01*
X145595525Y-140471828D01*
X145581353Y-140486000D01*
X145566568Y-140498628D01*
X145550357Y-140510407D01*
X145520654Y-140546310D01*
X145516722Y-140550631D01*
X142289171Y-143778181D01*
X142227848Y-143811666D01*
X142201490Y-143814500D01*
X140389074Y-143814500D01*
X140389068Y-143814501D01*
X140329461Y-143820908D01*
X140194616Y-143871202D01*
X140194609Y-143871206D01*
X140079400Y-143957452D01*
X140079397Y-143957455D01*
X139993151Y-144072664D01*
X139993147Y-144072671D01*
X139942853Y-144207517D01*
X139936446Y-144267116D01*
X139936445Y-144267135D01*
X139936445Y-146562870D01*
X139936446Y-146562876D01*
X139942853Y-146622483D01*
X139993147Y-146757328D01*
X139993151Y-146757335D01*
X140079397Y-146872544D01*
X140079400Y-146872547D01*
X140194609Y-146958793D01*
X140194616Y-146958797D01*
X140329462Y-147009091D01*
X140329461Y-147009091D01*
X140336389Y-147009835D01*
X140389072Y-147015500D01*
X141097130Y-147015499D01*
X141164167Y-147035183D01*
X141209922Y-147087987D01*
X141219866Y-147157146D01*
X141190841Y-147220702D01*
X141163101Y-147244492D01*
X141034684Y-147325182D01*
X140907129Y-147452737D01*
X140811156Y-147605476D01*
X140751576Y-147775745D01*
X140751575Y-147775750D01*
X140731380Y-147954996D01*
X140731380Y-147955003D01*
X140751575Y-148134249D01*
X140751576Y-148134254D01*
X140811156Y-148304523D01*
X140907128Y-148457262D01*
X140907129Y-148457262D01*
X141034683Y-148584816D01*
X141187423Y-148680789D01*
X141357690Y-148740367D01*
X141357690Y-148740368D01*
X141357695Y-148740369D01*
X141448191Y-148750565D01*
X141491985Y-148755499D01*
X141491988Y-148755500D01*
X141491991Y-148755500D01*
X141581902Y-148755500D01*
X141581903Y-148755499D01*
X141649049Y-148747933D01*
X141716194Y-148740369D01*
X141716197Y-148740368D01*
X141716200Y-148740368D01*
X141886467Y-148680789D01*
X142039207Y-148584816D01*
X142166761Y-148457262D01*
X142262734Y-148304522D01*
X142322313Y-148134255D01*
X142342510Y-147955000D01*
X142322313Y-147775745D01*
X142262734Y-147605478D01*
X142166761Y-147452738D01*
X142039207Y-147325184D01*
X141910787Y-147244492D01*
X141864497Y-147192158D01*
X141853849Y-147123105D01*
X141882224Y-147059256D01*
X141940614Y-147020884D01*
X141976757Y-147015499D01*
X142684817Y-147015499D01*
X142744428Y-147009091D01*
X142879276Y-146958796D01*
X142994491Y-146872546D01*
X143052174Y-146795491D01*
X143108106Y-146753622D01*
X143177798Y-146748638D01*
X143216229Y-146764077D01*
X143348313Y-146845019D01*
X143580988Y-146941396D01*
X143745798Y-146980963D01*
X143806390Y-147015754D01*
X143838554Y-147077780D01*
X143832078Y-147147349D01*
X143789019Y-147202373D01*
X143757807Y-147218578D01*
X143727424Y-147229209D01*
X143574682Y-147325184D01*
X143447129Y-147452737D01*
X143351156Y-147605476D01*
X143291576Y-147775745D01*
X143291575Y-147775750D01*
X143271380Y-147954996D01*
X143271380Y-147955003D01*
X143291575Y-148134249D01*
X143291576Y-148134254D01*
X143351156Y-148304523D01*
X143447128Y-148457261D01*
X143447129Y-148457262D01*
X143574683Y-148584816D01*
X143727423Y-148680789D01*
X143897689Y-148740367D01*
X143897690Y-148740368D01*
X143897695Y-148740369D01*
X143988191Y-148750565D01*
X144031985Y-148755499D01*
X144031988Y-148755500D01*
X144031991Y-148755500D01*
X144121902Y-148755500D01*
X144121903Y-148755499D01*
X144189049Y-148747933D01*
X144256194Y-148740369D01*
X144256197Y-148740368D01*
X144256200Y-148740368D01*
X144426467Y-148680789D01*
X144579207Y-148584816D01*
X144706761Y-148457262D01*
X144802734Y-148304522D01*
X144862313Y-148134255D01*
X144882510Y-147955000D01*
X144862313Y-147775745D01*
X144802734Y-147605478D01*
X144706761Y-147452738D01*
X144579207Y-147325184D01*
X144426467Y-147229211D01*
X144426464Y-147229209D01*
X144396083Y-147218578D01*
X144339307Y-147177856D01*
X144313560Y-147112904D01*
X144327016Y-147044342D01*
X144375404Y-146993939D01*
X144408091Y-146980963D01*
X144572901Y-146941396D01*
X144805576Y-146845019D01*
X145020305Y-146713432D01*
X145020316Y-146713424D01*
X145021124Y-146712732D01*
X144370110Y-146061718D01*
X144336625Y-146000395D01*
X144341609Y-145930703D01*
X144379533Y-145877853D01*
X144482684Y-145793934D01*
X144532997Y-145722655D01*
X144587738Y-145679239D01*
X144657263Y-145672309D01*
X144719498Y-145704067D01*
X144721982Y-145706483D01*
X145374677Y-146359179D01*
X145375369Y-146358371D01*
X145375377Y-146358360D01*
X145506964Y-146143631D01*
X145603341Y-145910956D01*
X145662132Y-145666072D01*
X145681892Y-145415000D01*
X145662132Y-145163927D01*
X145603341Y-144919043D01*
X145506964Y-144686368D01*
X145375377Y-144471638D01*
X145375375Y-144471636D01*
X145374677Y-144470819D01*
X144725462Y-145120034D01*
X144664139Y-145153519D01*
X144594447Y-145148535D01*
X144538514Y-145106663D01*
X144535431Y-145101750D01*
X144535396Y-145101775D01*
X144530503Y-145094843D01*
X144427305Y-144984346D01*
X144427303Y-144984345D01*
X144392245Y-144963026D01*
X144345193Y-144911375D01*
X144333535Y-144842485D01*
X144360972Y-144778228D01*
X144368992Y-144769397D01*
X145021123Y-144117266D01*
X145021123Y-144117264D01*
X145020319Y-144116577D01*
X145020303Y-144116566D01*
X144805576Y-143984980D01*
X144572901Y-143888603D01*
X144328015Y-143829812D01*
X144328007Y-143829811D01*
X144298307Y-143827473D01*
X144233019Y-143802588D01*
X144191550Y-143746356D01*
X144187065Y-143676630D01*
X144220355Y-143616180D01*
X146204716Y-141631819D01*
X146266040Y-141598334D01*
X146292398Y-141595500D01*
X146602257Y-141595500D01*
X146617877Y-141597224D01*
X146617904Y-141596939D01*
X146625660Y-141597671D01*
X146625667Y-141597673D01*
X146694814Y-141595500D01*
X146724350Y-141595500D01*
X146731228Y-141594630D01*
X146737041Y-141594172D01*
X146783627Y-141592709D01*
X146802869Y-141587117D01*
X146821912Y-141583174D01*
X146841792Y-141580664D01*
X146885122Y-141563507D01*
X146890646Y-141561617D01*
X146894396Y-141560527D01*
X146935390Y-141548618D01*
X146952629Y-141538422D01*
X146970103Y-141529862D01*
X146988727Y-141522488D01*
X146988727Y-141522487D01*
X146988732Y-141522486D01*
X147026449Y-141495082D01*
X147031305Y-141491892D01*
X147071420Y-141468170D01*
X147085589Y-141453999D01*
X147100379Y-141441368D01*
X147116587Y-141429594D01*
X147146299Y-141393676D01*
X147150212Y-141389376D01*
X151391159Y-137148430D01*
X151427130Y-137124803D01*
X151426891Y-137124368D01*
X151432433Y-137121320D01*
X151433198Y-137120818D01*
X151433732Y-137120607D01*
X151480191Y-137086851D01*
X151483390Y-137084676D01*
X151531877Y-137053907D01*
X151537466Y-137047954D01*
X151554979Y-137032515D01*
X151561587Y-137027715D01*
X151598190Y-136983468D01*
X151600736Y-136980578D01*
X151640062Y-136938703D01*
X151643998Y-136931542D01*
X151657119Y-136912235D01*
X151662324Y-136905944D01*
X151686769Y-136853995D01*
X151688528Y-136850540D01*
X151716197Y-136800213D01*
X151718227Y-136792302D01*
X151726135Y-136770339D01*
X151729614Y-136762947D01*
X151740377Y-136706522D01*
X151741210Y-136702791D01*
X151755500Y-136647140D01*
X151755500Y-136638964D01*
X151757697Y-136615727D01*
X151759227Y-136607709D01*
X151755621Y-136550396D01*
X151755500Y-136546524D01*
X151755500Y-136344499D01*
X151775185Y-136277460D01*
X151827989Y-136231705D01*
X151879500Y-136220499D01*
X152277871Y-136220499D01*
X152277872Y-136220499D01*
X152337483Y-136214091D01*
X152472331Y-136163796D01*
X152587546Y-136077546D01*
X152673796Y-135962331D01*
X152724091Y-135827483D01*
X152730500Y-135767873D01*
X152730499Y-135059813D01*
X152750183Y-134992777D01*
X152802987Y-134947022D01*
X152872146Y-134937078D01*
X152935702Y-134966103D01*
X152959492Y-134993844D01*
X153040179Y-135122256D01*
X153040184Y-135122262D01*
X153167738Y-135249816D01*
X153320478Y-135345789D01*
X153490744Y-135405367D01*
X153490745Y-135405368D01*
X153490750Y-135405369D01*
X153581246Y-135415565D01*
X153625040Y-135420499D01*
X153625043Y-135420500D01*
X153625046Y-135420500D01*
X153714957Y-135420500D01*
X153714958Y-135420499D01*
X153782104Y-135412934D01*
X153849249Y-135405369D01*
X153849252Y-135405368D01*
X153849255Y-135405368D01*
X154019522Y-135345789D01*
X154172262Y-135249816D01*
X154299816Y-135122262D01*
X154395789Y-134969522D01*
X154455368Y-134799255D01*
X154455369Y-134799249D01*
X154475565Y-134620003D01*
X154475565Y-134619996D01*
X154455369Y-134440750D01*
X154455368Y-134440745D01*
X154414879Y-134325034D01*
X154395789Y-134270478D01*
X154380506Y-134246156D01*
X154344810Y-134189345D01*
X154299816Y-134117738D01*
X154172262Y-133990184D01*
X154147137Y-133974397D01*
X154019523Y-133894211D01*
X153849254Y-133834631D01*
X153849249Y-133834630D01*
X153714960Y-133819500D01*
X153714954Y-133819500D01*
X153625046Y-133819500D01*
X153625039Y-133819500D01*
X153490750Y-133834630D01*
X153490745Y-133834631D01*
X153320476Y-133894211D01*
X153167737Y-133990184D01*
X153040184Y-134117737D01*
X153040179Y-134117743D01*
X152959492Y-134246156D01*
X152907158Y-134292447D01*
X152838104Y-134303095D01*
X152774256Y-134274720D01*
X152735884Y-134216330D01*
X152730499Y-134180184D01*
X152730499Y-133955452D01*
X152750184Y-133888413D01*
X152766813Y-133867776D01*
X153128788Y-133505801D01*
X153141042Y-133495986D01*
X153140859Y-133495764D01*
X153146866Y-133490792D01*
X153146877Y-133490786D01*
X153177775Y-133457882D01*
X153194227Y-133440364D01*
X153204671Y-133429918D01*
X153215120Y-133419471D01*
X153219379Y-133413978D01*
X153223152Y-133409561D01*
X153255062Y-133375582D01*
X153264715Y-133358020D01*
X153275389Y-133341770D01*
X153287673Y-133325936D01*
X153306180Y-133283167D01*
X153308749Y-133277924D01*
X153331196Y-133237093D01*
X153331197Y-133237092D01*
X153336177Y-133217691D01*
X153342478Y-133199288D01*
X153350438Y-133180896D01*
X153357730Y-133134849D01*
X153358911Y-133129152D01*
X153370500Y-133084019D01*
X153370500Y-133063983D01*
X153372027Y-133044582D01*
X153375160Y-133024803D01*
X153375160Y-133024800D01*
X153373049Y-133002473D01*
X153386335Y-132933879D01*
X153434598Y-132883356D01*
X153502513Y-132866947D01*
X153510381Y-132867581D01*
X153593914Y-132876992D01*
X153625040Y-132880499D01*
X153625043Y-132880500D01*
X153625046Y-132880500D01*
X153714957Y-132880500D01*
X153714958Y-132880499D01*
X153782104Y-132872934D01*
X153849249Y-132865369D01*
X153849252Y-132865368D01*
X153849255Y-132865368D01*
X154019522Y-132805789D01*
X154172262Y-132709816D01*
X154299816Y-132582262D01*
X154395789Y-132429522D01*
X154455368Y-132259255D01*
X154475565Y-132080000D01*
X154455368Y-131900745D01*
X154395789Y-131730478D01*
X154299816Y-131577738D01*
X154172262Y-131450184D01*
X154172257Y-131450180D01*
X154172188Y-131450137D01*
X154172152Y-131450096D01*
X154166816Y-131445841D01*
X154167561Y-131444906D01*
X154125899Y-131397801D01*
X154115253Y-131328747D01*
X154142617Y-131266109D01*
X154169447Y-131233676D01*
X154173360Y-131229376D01*
X156854766Y-128547971D01*
X156916087Y-128514488D01*
X156985779Y-128519472D01*
X157041712Y-128561344D01*
X157066129Y-128626808D01*
X157066445Y-128635654D01*
X157066445Y-135367601D01*
X157046760Y-135434640D01*
X157030126Y-135455282D01*
X148707226Y-143778181D01*
X148645903Y-143811666D01*
X148619545Y-143814500D01*
X147374074Y-143814500D01*
X147374068Y-143814501D01*
X147314461Y-143820908D01*
X147179616Y-143871202D01*
X147179609Y-143871206D01*
X147064400Y-143957452D01*
X147064397Y-143957455D01*
X146978151Y-144072664D01*
X146978147Y-144072671D01*
X146927853Y-144207517D01*
X146921446Y-144267116D01*
X146921445Y-144267135D01*
X146921445Y-146562870D01*
X146921446Y-146562876D01*
X146927853Y-146622483D01*
X146978147Y-146757328D01*
X146978151Y-146757335D01*
X147064397Y-146872544D01*
X147064400Y-146872547D01*
X147179609Y-146958793D01*
X147179616Y-146958797D01*
X147314462Y-147009091D01*
X147314461Y-147009091D01*
X147321389Y-147009835D01*
X147374072Y-147015500D01*
X148082130Y-147015499D01*
X148149167Y-147035183D01*
X148194922Y-147087987D01*
X148204866Y-147157146D01*
X148175841Y-147220702D01*
X148148101Y-147244492D01*
X148019684Y-147325182D01*
X147892129Y-147452737D01*
X147796156Y-147605476D01*
X147736576Y-147775745D01*
X147736575Y-147775750D01*
X147716380Y-147954996D01*
X147716380Y-147955003D01*
X147736575Y-148134249D01*
X147736576Y-148134254D01*
X147796156Y-148304523D01*
X147892128Y-148457261D01*
X147892129Y-148457262D01*
X148019683Y-148584816D01*
X148172423Y-148680789D01*
X148342690Y-148740367D01*
X148342690Y-148740368D01*
X148342695Y-148740369D01*
X148433191Y-148750565D01*
X148476985Y-148755499D01*
X148476988Y-148755500D01*
X148476991Y-148755500D01*
X148566902Y-148755500D01*
X148566903Y-148755499D01*
X148634049Y-148747934D01*
X148701194Y-148740369D01*
X148701197Y-148740368D01*
X148701200Y-148740368D01*
X148871467Y-148680789D01*
X149024207Y-148584816D01*
X149151761Y-148457262D01*
X149247734Y-148304522D01*
X149307313Y-148134255D01*
X149327510Y-147955000D01*
X149307313Y-147775745D01*
X149247734Y-147605478D01*
X149151761Y-147452738D01*
X149024207Y-147325184D01*
X148895787Y-147244492D01*
X148849497Y-147192158D01*
X148838849Y-147123105D01*
X148867224Y-147059256D01*
X148925614Y-147020884D01*
X148961757Y-147015499D01*
X149669817Y-147015499D01*
X149729428Y-147009091D01*
X149864276Y-146958796D01*
X149979491Y-146872546D01*
X150037174Y-146795491D01*
X150093106Y-146753622D01*
X150162798Y-146748638D01*
X150201229Y-146764077D01*
X150333313Y-146845019D01*
X150565988Y-146941396D01*
X150730798Y-146980963D01*
X150791390Y-147015754D01*
X150823554Y-147077780D01*
X150817078Y-147147349D01*
X150774019Y-147202373D01*
X150742807Y-147218578D01*
X150712424Y-147229209D01*
X150559682Y-147325184D01*
X150432129Y-147452737D01*
X150336156Y-147605476D01*
X150276576Y-147775745D01*
X150276575Y-147775750D01*
X150256380Y-147954996D01*
X150256380Y-147955003D01*
X150276575Y-148134249D01*
X150276576Y-148134254D01*
X150336156Y-148304523D01*
X150432128Y-148457261D01*
X150432129Y-148457262D01*
X150559683Y-148584816D01*
X150712423Y-148680789D01*
X150882690Y-148740367D01*
X150882690Y-148740368D01*
X150882695Y-148740369D01*
X150973191Y-148750565D01*
X151016985Y-148755499D01*
X151016988Y-148755500D01*
X151016991Y-148755500D01*
X151106902Y-148755500D01*
X151106903Y-148755499D01*
X151174049Y-148747934D01*
X151241194Y-148740369D01*
X151241197Y-148740368D01*
X151241200Y-148740368D01*
X151411467Y-148680789D01*
X151564207Y-148584816D01*
X151691761Y-148457262D01*
X151787734Y-148304522D01*
X151847313Y-148134255D01*
X151867510Y-147955000D01*
X151847313Y-147775745D01*
X151787734Y-147605478D01*
X151691761Y-147452738D01*
X151564207Y-147325184D01*
X151411467Y-147229211D01*
X151411464Y-147229209D01*
X151381083Y-147218578D01*
X151324307Y-147177856D01*
X151298560Y-147112904D01*
X151312016Y-147044342D01*
X151360404Y-146993939D01*
X151393091Y-146980963D01*
X151557901Y-146941396D01*
X151790576Y-146845019D01*
X152005305Y-146713432D01*
X152005316Y-146713424D01*
X152006124Y-146712732D01*
X151355110Y-146061718D01*
X151321625Y-146000395D01*
X151326609Y-145930703D01*
X151364533Y-145877853D01*
X151467684Y-145793934D01*
X151517997Y-145722655D01*
X151572738Y-145679239D01*
X151642263Y-145672309D01*
X151704498Y-145704067D01*
X151706982Y-145706483D01*
X152359677Y-146359179D01*
X152360369Y-146358371D01*
X152360377Y-146358360D01*
X152491964Y-146143631D01*
X152588341Y-145910956D01*
X152647132Y-145666072D01*
X152666892Y-145415000D01*
X152647132Y-145163927D01*
X152588341Y-144919043D01*
X152491964Y-144686368D01*
X152360377Y-144471638D01*
X152360375Y-144471636D01*
X152359677Y-144470819D01*
X152359676Y-144470819D01*
X151710462Y-145120034D01*
X151649139Y-145153519D01*
X151579447Y-145148535D01*
X151523514Y-145106663D01*
X151520431Y-145101750D01*
X151520396Y-145101775D01*
X151515503Y-145094843D01*
X151412305Y-144984346D01*
X151412303Y-144984345D01*
X151377245Y-144963026D01*
X151330193Y-144911375D01*
X151318535Y-144842485D01*
X151345972Y-144778228D01*
X151353992Y-144769397D01*
X152006123Y-144117266D01*
X152006123Y-144117264D01*
X152005319Y-144116577D01*
X152005303Y-144116566D01*
X151790576Y-143984980D01*
X151557901Y-143888603D01*
X151313017Y-143829812D01*
X151061944Y-143810052D01*
X150810871Y-143829813D01*
X150810870Y-143829813D01*
X150730318Y-143849151D01*
X150660535Y-143845660D01*
X150603718Y-143804995D01*
X150577906Y-143740068D01*
X150591293Y-143671493D01*
X150613685Y-143640903D01*
X158075733Y-136178856D01*
X158087987Y-136169041D01*
X158087804Y-136168819D01*
X158093811Y-136163847D01*
X158093822Y-136163841D01*
X158124720Y-136130937D01*
X158141172Y-136113419D01*
X158151616Y-136102973D01*
X158162065Y-136092526D01*
X158166324Y-136087033D01*
X158170097Y-136082616D01*
X158202007Y-136048637D01*
X158211658Y-136031079D01*
X158222341Y-136014816D01*
X158234618Y-135998991D01*
X158253130Y-135956208D01*
X158255683Y-135950996D01*
X158278142Y-135910147D01*
X158283125Y-135890735D01*
X158289426Y-135872335D01*
X158297382Y-135853951D01*
X158304674Y-135807907D01*
X158305851Y-135802226D01*
X158317445Y-135757074D01*
X158317445Y-135737037D01*
X158318972Y-135717637D01*
X158322105Y-135697859D01*
X158317720Y-135651470D01*
X158317445Y-135645632D01*
X158317445Y-121857737D01*
X158319169Y-121842123D01*
X158318883Y-121842096D01*
X158319617Y-121834333D01*
X158317445Y-121765203D01*
X158317445Y-121735651D01*
X158317445Y-121735650D01*
X158316574Y-121728759D01*
X158316117Y-121722945D01*
X158314654Y-121676372D01*
X158309067Y-121657144D01*
X158305119Y-121638084D01*
X158302609Y-121618208D01*
X158285452Y-121574875D01*
X158283564Y-121569359D01*
X158270564Y-121524612D01*
X158260363Y-121507363D01*
X158251805Y-121489894D01*
X158244431Y-121471268D01*
X158244428Y-121471264D01*
X158244428Y-121471263D01*
X158217043Y-121433571D01*
X158213835Y-121428687D01*
X158190117Y-121388582D01*
X158190108Y-121388571D01*
X158175950Y-121374413D01*
X158163315Y-121359620D01*
X158151538Y-121343412D01*
X158115638Y-121313713D01*
X158111326Y-121309790D01*
X157866358Y-121064822D01*
X157832873Y-121003499D01*
X157834264Y-120945048D01*
X157852580Y-120876692D01*
X157872413Y-120650000D01*
X157870883Y-120632517D01*
X157852580Y-120423313D01*
X157852580Y-120423308D01*
X157793684Y-120203504D01*
X157697513Y-119997266D01*
X157566992Y-119810861D01*
X157566990Y-119810858D01*
X157406086Y-119649954D01*
X157219679Y-119519432D01*
X157219673Y-119519429D01*
X157161670Y-119492382D01*
X157109230Y-119446210D01*
X157090078Y-119379017D01*
X157110293Y-119312135D01*
X157161670Y-119267618D01*
X157219679Y-119240568D01*
X157406084Y-119110047D01*
X157566992Y-118949139D01*
X157697513Y-118762734D01*
X157793684Y-118556496D01*
X157852580Y-118336692D01*
X157872413Y-118110000D01*
X157852580Y-117883308D01*
X157793684Y-117663504D01*
X157697513Y-117457266D01*
X157566992Y-117270861D01*
X157566990Y-117270858D01*
X157406086Y-117109954D01*
X157219679Y-116979432D01*
X157219673Y-116979429D01*
X157161670Y-116952382D01*
X157109230Y-116906210D01*
X157090078Y-116839017D01*
X157110293Y-116772135D01*
X157161670Y-116727618D01*
X157219679Y-116700568D01*
X157406084Y-116570047D01*
X157566992Y-116409139D01*
X157697513Y-116222734D01*
X157793684Y-116016496D01*
X157852580Y-115796692D01*
X157872413Y-115570000D01*
X157852580Y-115343308D01*
X157807861Y-115176415D01*
X157793686Y-115123511D01*
X157793683Y-115123502D01*
X157697513Y-114917266D01*
X157566992Y-114730861D01*
X157566990Y-114730858D01*
X157406086Y-114569954D01*
X157219679Y-114439432D01*
X157219673Y-114439429D01*
X157161670Y-114412382D01*
X157109230Y-114366210D01*
X157090078Y-114299017D01*
X157110293Y-114232135D01*
X157161670Y-114187618D01*
X157219679Y-114160568D01*
X157406084Y-114030047D01*
X157566992Y-113869139D01*
X157697513Y-113682734D01*
X157793684Y-113476496D01*
X157852580Y-113256692D01*
X157872413Y-113030000D01*
X157870861Y-113012266D01*
X157854553Y-112825861D01*
X157852580Y-112803308D01*
X157793684Y-112583504D01*
X157697513Y-112377266D01*
X157566992Y-112190861D01*
X157566990Y-112190858D01*
X157406086Y-112029954D01*
X157219679Y-111899432D01*
X157219673Y-111899429D01*
X157161670Y-111872382D01*
X157109230Y-111826210D01*
X157090078Y-111759017D01*
X157110293Y-111692135D01*
X157161670Y-111647618D01*
X157219679Y-111620568D01*
X157406084Y-111490047D01*
X157566992Y-111329139D01*
X157697513Y-111142734D01*
X157793684Y-110936496D01*
X157852580Y-110716692D01*
X157872413Y-110490000D01*
X157852580Y-110263308D01*
X157798076Y-110059894D01*
X157793686Y-110043511D01*
X157793683Y-110043502D01*
X157775064Y-110003573D01*
X157697513Y-109837266D01*
X157566992Y-109650861D01*
X157566990Y-109650858D01*
X157406086Y-109489954D01*
X157219679Y-109359432D01*
X157219673Y-109359429D01*
X157161670Y-109332382D01*
X157109230Y-109286210D01*
X157090078Y-109219017D01*
X157110293Y-109152135D01*
X157161670Y-109107618D01*
X157173409Y-109102144D01*
X157219679Y-109080568D01*
X157406084Y-108950047D01*
X157566992Y-108789139D01*
X157697513Y-108602734D01*
X157793684Y-108396496D01*
X157852580Y-108176692D01*
X157872413Y-107950000D01*
X157871959Y-107944816D01*
X157860261Y-107811103D01*
X157852580Y-107723308D01*
X157793684Y-107503504D01*
X157697513Y-107297266D01*
X157566992Y-107110861D01*
X157566990Y-107110858D01*
X157406086Y-106949954D01*
X157219680Y-106819433D01*
X157219681Y-106819433D01*
X157219679Y-106819432D01*
X157161667Y-106792380D01*
X157109229Y-106746208D01*
X157090078Y-106679014D01*
X157110294Y-106612133D01*
X157161666Y-106567619D01*
X157219679Y-106540568D01*
X157406084Y-106410047D01*
X157566992Y-106249139D01*
X157697513Y-106062734D01*
X157793684Y-105856496D01*
X157852580Y-105636692D01*
X157872413Y-105410000D01*
X157871959Y-105404816D01*
X157852580Y-105183313D01*
X157852580Y-105183308D01*
X157793684Y-104963504D01*
X157697513Y-104757266D01*
X157566992Y-104570861D01*
X157566990Y-104570858D01*
X157406086Y-104409954D01*
X157219679Y-104279432D01*
X157219673Y-104279429D01*
X157161670Y-104252382D01*
X157109230Y-104206210D01*
X157090078Y-104139017D01*
X157110293Y-104072135D01*
X157161670Y-104027618D01*
X157219679Y-104000568D01*
X157406084Y-103870047D01*
X157566992Y-103709139D01*
X157697513Y-103522734D01*
X157793684Y-103316496D01*
X157852580Y-103096692D01*
X157872413Y-102870000D01*
X157852580Y-102643308D01*
X157793684Y-102423504D01*
X157697513Y-102217266D01*
X157566992Y-102030861D01*
X157566990Y-102030858D01*
X157406086Y-101869954D01*
X157219679Y-101739432D01*
X157219673Y-101739429D01*
X157171953Y-101717177D01*
X157161669Y-101712381D01*
X157109230Y-101666210D01*
X157090078Y-101599017D01*
X157110293Y-101532135D01*
X157161670Y-101487618D01*
X157162202Y-101487370D01*
X157219679Y-101460568D01*
X157406084Y-101330047D01*
X157566992Y-101169139D01*
X157697513Y-100982734D01*
X157793684Y-100776496D01*
X157852580Y-100556692D01*
X157872413Y-100330000D01*
X157852580Y-100103308D01*
X157793684Y-99883504D01*
X157697513Y-99677266D01*
X157566992Y-99490861D01*
X157566990Y-99490858D01*
X157406086Y-99329954D01*
X157219679Y-99199432D01*
X157219673Y-99199429D01*
X157191983Y-99186517D01*
X157161669Y-99172381D01*
X157109230Y-99126210D01*
X157090078Y-99059017D01*
X157110293Y-98992135D01*
X157161670Y-98947618D01*
X157162202Y-98947370D01*
X157219679Y-98920568D01*
X157406084Y-98790047D01*
X157566992Y-98629139D01*
X157697513Y-98442734D01*
X157793684Y-98236496D01*
X157852580Y-98016692D01*
X157872413Y-97790000D01*
X157852580Y-97563308D01*
X157793684Y-97343504D01*
X157697513Y-97137266D01*
X157566992Y-96950861D01*
X157566990Y-96950858D01*
X157406086Y-96789954D01*
X157219679Y-96659432D01*
X157219677Y-96659431D01*
X157013442Y-96563261D01*
X157013433Y-96563258D01*
X156793642Y-96504366D01*
X156793638Y-96504365D01*
X156793637Y-96504365D01*
X156793636Y-96504364D01*
X156793631Y-96504364D01*
X156566947Y-96484532D01*
X156566943Y-96484532D01*
X156340258Y-96504364D01*
X156340247Y-96504366D01*
X156120456Y-96563258D01*
X156120447Y-96563261D01*
X155914212Y-96659431D01*
X155914210Y-96659432D01*
X155727803Y-96789954D01*
X155566899Y-96950858D01*
X155436377Y-97137265D01*
X155436376Y-97137267D01*
X155340206Y-97343502D01*
X155340203Y-97343511D01*
X155281311Y-97563302D01*
X155281309Y-97563313D01*
X155261477Y-97789998D01*
X155261477Y-97790001D01*
X155281309Y-98016686D01*
X155281311Y-98016697D01*
X155340203Y-98236488D01*
X155340206Y-98236497D01*
X155436376Y-98442732D01*
X155436377Y-98442734D01*
X155566899Y-98629141D01*
X155727803Y-98790045D01*
X155727806Y-98790047D01*
X155914211Y-98920568D01*
X155971688Y-98947370D01*
X155972220Y-98947618D01*
X156024659Y-98993791D01*
X156043811Y-99060984D01*
X156023595Y-99127865D01*
X155972220Y-99172381D01*
X155965209Y-99175651D01*
X155914212Y-99199431D01*
X155914210Y-99199432D01*
X155727803Y-99329954D01*
X155566899Y-99490858D01*
X155436377Y-99677265D01*
X155436376Y-99677267D01*
X155340206Y-99883502D01*
X155340203Y-99883511D01*
X155281311Y-100103302D01*
X155281309Y-100103313D01*
X155261477Y-100329998D01*
X155261477Y-100330001D01*
X155281309Y-100556686D01*
X155281311Y-100556697D01*
X155340203Y-100776488D01*
X155340206Y-100776497D01*
X155436376Y-100982732D01*
X155436377Y-100982734D01*
X155566899Y-101169141D01*
X155727803Y-101330045D01*
X155727806Y-101330047D01*
X155914211Y-101460568D01*
X155954841Y-101479514D01*
X155972220Y-101487618D01*
X156024659Y-101533791D01*
X156043811Y-101600984D01*
X156023595Y-101667865D01*
X155972220Y-101712381D01*
X155965209Y-101715651D01*
X155914212Y-101739431D01*
X155914210Y-101739432D01*
X155727803Y-101869954D01*
X155566899Y-102030858D01*
X155436377Y-102217265D01*
X155436376Y-102217267D01*
X155340206Y-102423502D01*
X155340203Y-102423511D01*
X155281311Y-102643302D01*
X155281309Y-102643313D01*
X155261477Y-102869998D01*
X155261477Y-102870001D01*
X155281309Y-103096686D01*
X155281311Y-103096697D01*
X155340203Y-103316488D01*
X155340206Y-103316497D01*
X155436376Y-103522732D01*
X155436377Y-103522734D01*
X155566899Y-103709141D01*
X155727803Y-103870045D01*
X155727806Y-103870047D01*
X155914211Y-104000568D01*
X155972220Y-104027618D01*
X156024659Y-104073791D01*
X156043811Y-104140984D01*
X156023595Y-104207865D01*
X155972220Y-104252382D01*
X155914212Y-104279431D01*
X155914210Y-104279432D01*
X155727803Y-104409954D01*
X155566899Y-104570858D01*
X155436377Y-104757265D01*
X155436376Y-104757267D01*
X155340206Y-104963502D01*
X155340203Y-104963511D01*
X155281311Y-105183302D01*
X155281309Y-105183313D01*
X155261477Y-105409998D01*
X155261477Y-105410001D01*
X155281309Y-105636686D01*
X155281311Y-105636697D01*
X155340203Y-105856488D01*
X155340206Y-105856497D01*
X155436376Y-106062732D01*
X155436377Y-106062734D01*
X155566899Y-106249141D01*
X155727803Y-106410045D01*
X155727806Y-106410047D01*
X155914211Y-106540568D01*
X155972220Y-106567618D01*
X156024659Y-106613791D01*
X156043811Y-106680984D01*
X156023595Y-106747865D01*
X155972220Y-106792382D01*
X155914212Y-106819431D01*
X155914210Y-106819432D01*
X155727803Y-106949954D01*
X155566899Y-107110858D01*
X155436377Y-107297265D01*
X155436376Y-107297267D01*
X155340206Y-107503502D01*
X155340203Y-107503511D01*
X155281311Y-107723302D01*
X155281309Y-107723313D01*
X155261477Y-107949998D01*
X155261477Y-107950001D01*
X155281309Y-108176686D01*
X155281311Y-108176697D01*
X155340203Y-108396488D01*
X155340206Y-108396497D01*
X155436376Y-108602732D01*
X155436377Y-108602734D01*
X155566899Y-108789141D01*
X155727803Y-108950045D01*
X155727806Y-108950047D01*
X155914211Y-109080568D01*
X155919607Y-109083084D01*
X155972220Y-109107618D01*
X156024659Y-109153791D01*
X156043811Y-109220984D01*
X156023595Y-109287865D01*
X155972220Y-109332382D01*
X155914212Y-109359431D01*
X155914210Y-109359432D01*
X155727803Y-109489954D01*
X155566899Y-109650858D01*
X155436377Y-109837265D01*
X155436376Y-109837267D01*
X155340206Y-110043502D01*
X155340203Y-110043511D01*
X155281311Y-110263302D01*
X155281309Y-110263313D01*
X155261477Y-110489998D01*
X155261477Y-110490001D01*
X155281309Y-110716686D01*
X155281311Y-110716697D01*
X155340203Y-110936488D01*
X155340206Y-110936497D01*
X155436376Y-111142732D01*
X155436377Y-111142734D01*
X155566899Y-111329141D01*
X155727803Y-111490045D01*
X155727806Y-111490047D01*
X155914211Y-111620568D01*
X155972220Y-111647618D01*
X156024659Y-111693791D01*
X156043811Y-111760984D01*
X156023595Y-111827865D01*
X155972220Y-111872382D01*
X155914212Y-111899431D01*
X155914210Y-111899432D01*
X155727803Y-112029954D01*
X155566899Y-112190858D01*
X155436377Y-112377265D01*
X155436376Y-112377267D01*
X155340206Y-112583502D01*
X155340203Y-112583511D01*
X155281311Y-112803302D01*
X155281309Y-112803313D01*
X155261477Y-113029998D01*
X155261477Y-113030001D01*
X155281309Y-113256686D01*
X155281311Y-113256697D01*
X155340203Y-113476488D01*
X155340206Y-113476497D01*
X155436376Y-113682732D01*
X155436377Y-113682734D01*
X155566899Y-113869141D01*
X155727803Y-114030045D01*
X155727806Y-114030047D01*
X155914211Y-114160568D01*
X155972220Y-114187618D01*
X156024659Y-114233791D01*
X156043811Y-114300984D01*
X156023595Y-114367865D01*
X155972220Y-114412382D01*
X155914212Y-114439431D01*
X155914210Y-114439432D01*
X155727803Y-114569954D01*
X155566899Y-114730858D01*
X155436377Y-114917265D01*
X155436376Y-114917267D01*
X155340206Y-115123502D01*
X155340203Y-115123511D01*
X155281311Y-115343302D01*
X155281309Y-115343313D01*
X155261477Y-115569998D01*
X155261477Y-115570001D01*
X155281309Y-115796686D01*
X155281311Y-115796697D01*
X155340203Y-116016488D01*
X155340206Y-116016497D01*
X155436376Y-116222732D01*
X155436377Y-116222734D01*
X155566899Y-116409141D01*
X155727803Y-116570045D01*
X155727806Y-116570047D01*
X155914211Y-116700568D01*
X155972220Y-116727618D01*
X156024659Y-116773791D01*
X156043811Y-116840984D01*
X156023595Y-116907865D01*
X155972220Y-116952382D01*
X155914212Y-116979431D01*
X155914210Y-116979432D01*
X155727803Y-117109954D01*
X155566899Y-117270858D01*
X155436377Y-117457265D01*
X155436376Y-117457267D01*
X155340206Y-117663502D01*
X155340203Y-117663511D01*
X155281311Y-117883302D01*
X155281309Y-117883313D01*
X155261477Y-118109998D01*
X155261477Y-118110001D01*
X155281309Y-118336686D01*
X155281311Y-118336697D01*
X155340203Y-118556488D01*
X155340206Y-118556497D01*
X155436376Y-118762732D01*
X155436377Y-118762734D01*
X155566899Y-118949141D01*
X155727803Y-119110045D01*
X155727806Y-119110047D01*
X155914211Y-119240568D01*
X155972220Y-119267618D01*
X156024659Y-119313791D01*
X156043811Y-119380984D01*
X156023595Y-119447865D01*
X155972220Y-119492382D01*
X155914212Y-119519431D01*
X155914210Y-119519432D01*
X155727803Y-119649954D01*
X155566899Y-119810858D01*
X155436377Y-119997265D01*
X155436376Y-119997267D01*
X155340206Y-120203502D01*
X155340203Y-120203511D01*
X155281311Y-120423302D01*
X155281309Y-120423313D01*
X155261477Y-120649998D01*
X155261477Y-120650001D01*
X155281309Y-120876686D01*
X155281311Y-120876697D01*
X155340203Y-121096488D01*
X155340206Y-121096497D01*
X155436376Y-121302732D01*
X155436377Y-121302734D01*
X155566899Y-121489141D01*
X155727803Y-121650045D01*
X155727806Y-121650047D01*
X155914211Y-121780568D01*
X155972220Y-121807618D01*
X156024659Y-121853791D01*
X156043811Y-121920984D01*
X156023595Y-121987865D01*
X155972220Y-122032382D01*
X155914212Y-122059431D01*
X155914210Y-122059432D01*
X155727803Y-122189954D01*
X155566899Y-122350858D01*
X155436377Y-122537265D01*
X155436376Y-122537267D01*
X155340206Y-122743502D01*
X155340203Y-122743511D01*
X155281311Y-122963302D01*
X155281309Y-122963313D01*
X155261477Y-123189998D01*
X155261477Y-123190001D01*
X155281309Y-123416686D01*
X155281311Y-123416697D01*
X155340203Y-123636488D01*
X155340206Y-123636497D01*
X155436376Y-123842732D01*
X155436377Y-123842734D01*
X155566899Y-124029141D01*
X155727803Y-124190045D01*
X155727806Y-124190047D01*
X155914211Y-124320568D01*
X155972220Y-124347618D01*
X156024659Y-124393791D01*
X156043811Y-124460984D01*
X156023595Y-124527865D01*
X155972220Y-124572382D01*
X155914212Y-124599431D01*
X155914210Y-124599432D01*
X155727803Y-124729954D01*
X155566899Y-124890858D01*
X155454332Y-125051623D01*
X155399756Y-125095248D01*
X155352757Y-125104500D01*
X147402743Y-125104500D01*
X147387122Y-125102775D01*
X147387095Y-125103061D01*
X147379333Y-125102326D01*
X147310172Y-125104500D01*
X147280649Y-125104500D01*
X147273778Y-125105367D01*
X147267959Y-125105825D01*
X147221374Y-125107289D01*
X147221368Y-125107290D01*
X147202126Y-125112880D01*
X147183087Y-125116823D01*
X147163217Y-125119334D01*
X147163203Y-125119337D01*
X147119883Y-125136488D01*
X147114358Y-125138380D01*
X147069613Y-125151380D01*
X147069610Y-125151381D01*
X147052366Y-125161579D01*
X147034905Y-125170133D01*
X147016274Y-125177510D01*
X147016262Y-125177517D01*
X146978570Y-125204902D01*
X146973687Y-125208109D01*
X146933580Y-125231829D01*
X146919414Y-125245995D01*
X146904624Y-125258627D01*
X146888414Y-125270404D01*
X146888411Y-125270407D01*
X146858710Y-125306309D01*
X146854777Y-125310631D01*
X144262227Y-127903181D01*
X144200904Y-127936666D01*
X144174546Y-127939500D01*
X142362129Y-127939500D01*
X142362123Y-127939501D01*
X142302516Y-127945908D01*
X142167671Y-127996202D01*
X142167664Y-127996206D01*
X142052455Y-128082452D01*
X142052452Y-128082455D01*
X141966206Y-128197664D01*
X141966202Y-128197671D01*
X141915908Y-128332517D01*
X141909501Y-128392116D01*
X141909500Y-128392135D01*
X141909500Y-129100183D01*
X141889815Y-129167222D01*
X141837011Y-129212977D01*
X141767853Y-129222921D01*
X141704297Y-129193896D01*
X141680506Y-129166155D01*
X141639053Y-129100183D01*
X141599816Y-129037738D01*
X141472262Y-128910184D01*
X141447137Y-128894397D01*
X141319523Y-128814211D01*
X141149254Y-128754631D01*
X141149250Y-128754630D01*
X141071367Y-128745855D01*
X141006953Y-128718788D01*
X140967398Y-128661193D01*
X140965261Y-128591356D01*
X140997568Y-128534956D01*
X147222794Y-122309731D01*
X147284113Y-122276249D01*
X147353805Y-122281233D01*
X147381595Y-122295841D01*
X147551955Y-122415129D01*
X147551961Y-122415133D01*
X147758118Y-122511265D01*
X147758127Y-122511269D01*
X147954444Y-122563872D01*
X147954445Y-122563871D01*
X147954445Y-121795575D01*
X147974130Y-121728536D01*
X148026934Y-121682781D01*
X148096092Y-121672837D01*
X148097776Y-121673091D01*
X148130144Y-121678218D01*
X148172960Y-121685000D01*
X148172964Y-121685000D01*
X148235930Y-121685000D01*
X148278745Y-121678218D01*
X148311047Y-121673102D01*
X148380339Y-121682056D01*
X148433792Y-121727052D01*
X148454432Y-121793803D01*
X148454445Y-121795575D01*
X148454445Y-122563872D01*
X148650762Y-122511269D01*
X148650771Y-122511265D01*
X148856927Y-122415134D01*
X149043265Y-122284657D01*
X149204102Y-122123820D01*
X149334579Y-121937482D01*
X149430710Y-121731326D01*
X149430714Y-121731317D01*
X149483317Y-121535000D01*
X148715021Y-121535000D01*
X148647982Y-121515315D01*
X148602227Y-121462511D01*
X148592283Y-121393353D01*
X148592548Y-121391603D01*
X148609431Y-121285003D01*
X148609431Y-121284996D01*
X148592548Y-121178397D01*
X148601503Y-121109104D01*
X148646499Y-121055652D01*
X148713251Y-121035013D01*
X148715021Y-121035000D01*
X149483317Y-121035000D01*
X149483317Y-121034999D01*
X150735572Y-121034999D01*
X150735573Y-121035000D01*
X151503869Y-121035000D01*
X151570908Y-121054685D01*
X151616663Y-121107489D01*
X151626607Y-121176647D01*
X151626342Y-121178397D01*
X151609459Y-121284996D01*
X151609459Y-121285003D01*
X151626342Y-121391603D01*
X151617387Y-121460896D01*
X151572391Y-121514348D01*
X151505639Y-121534987D01*
X151503869Y-121535000D01*
X150735573Y-121535000D01*
X150788175Y-121731317D01*
X150788179Y-121731326D01*
X150884310Y-121937482D01*
X151014787Y-122123820D01*
X151175624Y-122284657D01*
X151361962Y-122415134D01*
X151568118Y-122511265D01*
X151568127Y-122511269D01*
X151764444Y-122563872D01*
X151764445Y-122563871D01*
X151764445Y-121795575D01*
X151784130Y-121728536D01*
X151836934Y-121682781D01*
X151906092Y-121672837D01*
X151907776Y-121673091D01*
X151940144Y-121678218D01*
X151982960Y-121685000D01*
X151982964Y-121685000D01*
X152045930Y-121685000D01*
X152088745Y-121678218D01*
X152121047Y-121673102D01*
X152190339Y-121682056D01*
X152243792Y-121727052D01*
X152264432Y-121793803D01*
X152264445Y-121795575D01*
X152264445Y-122563872D01*
X152460762Y-122511269D01*
X152460771Y-122511265D01*
X152666927Y-122415134D01*
X152853265Y-122284657D01*
X153014102Y-122123820D01*
X153144579Y-121937482D01*
X153240710Y-121731326D01*
X153240714Y-121731317D01*
X153293317Y-121535000D01*
X152525021Y-121535000D01*
X152457982Y-121515315D01*
X152412227Y-121462511D01*
X152402283Y-121393353D01*
X152402548Y-121391603D01*
X152419431Y-121285003D01*
X152419431Y-121284996D01*
X152402548Y-121178397D01*
X152411503Y-121109104D01*
X152456499Y-121055652D01*
X152523251Y-121035013D01*
X152525021Y-121035000D01*
X153293317Y-121035000D01*
X153293317Y-121034999D01*
X153240714Y-120838682D01*
X153240710Y-120838673D01*
X153144579Y-120632517D01*
X153014102Y-120446179D01*
X152853265Y-120285342D01*
X152666927Y-120154865D01*
X152460773Y-120058734D01*
X152264445Y-120006127D01*
X152264445Y-120774424D01*
X152244760Y-120841463D01*
X152191956Y-120887218D01*
X152122798Y-120897162D01*
X152121047Y-120896897D01*
X152045931Y-120885000D01*
X152045926Y-120885000D01*
X151982964Y-120885000D01*
X151982959Y-120885000D01*
X151907843Y-120896897D01*
X151838549Y-120887942D01*
X151785097Y-120842946D01*
X151764458Y-120776194D01*
X151764445Y-120774424D01*
X151764445Y-120006127D01*
X151568116Y-120058734D01*
X151361962Y-120154865D01*
X151175624Y-120285342D01*
X151014787Y-120446179D01*
X150884310Y-120632517D01*
X150788179Y-120838673D01*
X150788175Y-120838682D01*
X150735572Y-121034999D01*
X149483317Y-121034999D01*
X149430714Y-120838682D01*
X149430710Y-120838673D01*
X149334579Y-120632517D01*
X149204102Y-120446179D01*
X149043265Y-120285342D01*
X148856927Y-120154865D01*
X148746159Y-120103213D01*
X148693720Y-120057040D01*
X148674568Y-119989847D01*
X148694784Y-119922965D01*
X148710874Y-119903160D01*
X153523233Y-115090801D01*
X153535487Y-115080986D01*
X153535304Y-115080764D01*
X153541311Y-115075792D01*
X153541322Y-115075786D01*
X153572220Y-115042882D01*
X153588672Y-115025364D01*
X153599116Y-115014918D01*
X153609565Y-115004471D01*
X153613824Y-114998978D01*
X153617597Y-114994561D01*
X153649507Y-114960582D01*
X153659158Y-114943024D01*
X153669841Y-114926761D01*
X153682118Y-114910936D01*
X153700630Y-114868153D01*
X153703183Y-114862941D01*
X153725642Y-114822092D01*
X153730625Y-114802680D01*
X153736926Y-114784280D01*
X153744882Y-114765896D01*
X153752174Y-114719852D01*
X153753351Y-114714171D01*
X153764945Y-114669019D01*
X153764945Y-114648982D01*
X153766472Y-114629582D01*
X153769605Y-114609804D01*
X153765220Y-114563415D01*
X153764945Y-114557577D01*
X153764945Y-110427738D01*
X153766669Y-110412124D01*
X153766383Y-110412097D01*
X153767117Y-110404334D01*
X153764945Y-110335203D01*
X153764945Y-110305651D01*
X153764945Y-110305650D01*
X153764074Y-110298759D01*
X153763617Y-110292945D01*
X153762154Y-110246372D01*
X153756567Y-110227144D01*
X153752619Y-110208084D01*
X153750108Y-110188204D01*
X153732957Y-110144887D01*
X153731064Y-110139358D01*
X153718063Y-110094609D01*
X153718061Y-110094606D01*
X153707868Y-110077371D01*
X153699306Y-110059894D01*
X153691932Y-110041270D01*
X153691931Y-110041268D01*
X153664524Y-110003545D01*
X153661333Y-109998686D01*
X153658885Y-109994547D01*
X153637615Y-109958580D01*
X153637613Y-109958578D01*
X153637610Y-109958574D01*
X153623451Y-109944415D01*
X153610813Y-109929619D01*
X153599039Y-109913413D01*
X153563133Y-109883709D01*
X153558821Y-109879786D01*
X151746263Y-108067228D01*
X151712778Y-108005905D01*
X151709944Y-107979547D01*
X151709944Y-107754815D01*
X151729629Y-107687776D01*
X151782433Y-107642021D01*
X151851591Y-107632077D01*
X151915147Y-107661102D01*
X151938937Y-107688842D01*
X152019629Y-107817262D01*
X152147183Y-107944816D01*
X152299923Y-108040789D01*
X152413968Y-108080695D01*
X152470190Y-108100368D01*
X152470195Y-108100369D01*
X152560691Y-108110565D01*
X152604485Y-108115499D01*
X152604488Y-108115500D01*
X152604491Y-108115500D01*
X152694402Y-108115500D01*
X152694403Y-108115499D01*
X152761549Y-108107933D01*
X152828694Y-108100369D01*
X152828697Y-108100368D01*
X152828700Y-108100368D01*
X152998967Y-108040789D01*
X153151707Y-107944816D01*
X153279261Y-107817262D01*
X153375234Y-107664522D01*
X153434813Y-107494255D01*
X153442045Y-107430072D01*
X153455010Y-107315003D01*
X153455010Y-107314996D01*
X153434814Y-107135750D01*
X153434813Y-107135745D01*
X153375233Y-106965476D01*
X153318498Y-106875184D01*
X153279261Y-106812738D01*
X153151707Y-106685184D01*
X153096433Y-106650453D01*
X152998968Y-106589211D01*
X152828699Y-106529631D01*
X152828694Y-106529630D01*
X152694405Y-106514500D01*
X152694399Y-106514500D01*
X152604491Y-106514500D01*
X152604484Y-106514500D01*
X152470195Y-106529630D01*
X152470190Y-106529631D01*
X152299921Y-106589211D01*
X152147182Y-106685184D01*
X152019629Y-106812737D01*
X152019624Y-106812743D01*
X151938937Y-106941156D01*
X151886603Y-106987447D01*
X151817549Y-106998095D01*
X151753701Y-106969720D01*
X151715329Y-106911330D01*
X151709944Y-106875184D01*
X151709944Y-106650453D01*
X151729629Y-106583414D01*
X151746263Y-106562772D01*
X151794535Y-106514500D01*
X151918233Y-106390801D01*
X151930487Y-106380986D01*
X151930304Y-106380764D01*
X151936311Y-106375792D01*
X151936322Y-106375786D01*
X151967220Y-106342882D01*
X151983672Y-106325364D01*
X151994116Y-106314918D01*
X152004565Y-106304471D01*
X152008824Y-106298978D01*
X152012597Y-106294561D01*
X152044507Y-106260582D01*
X152054158Y-106243024D01*
X152064841Y-106226761D01*
X152077118Y-106210936D01*
X152095630Y-106168153D01*
X152098183Y-106162941D01*
X152120642Y-106122092D01*
X152125625Y-106102680D01*
X152131926Y-106084280D01*
X152139882Y-106065896D01*
X152147174Y-106019852D01*
X152148351Y-106014171D01*
X152159945Y-105969019D01*
X152159945Y-105948982D01*
X152161472Y-105929582D01*
X152164605Y-105909804D01*
X152160220Y-105863415D01*
X152159945Y-105857577D01*
X152159945Y-105626570D01*
X152179630Y-105559531D01*
X152232434Y-105513776D01*
X152301592Y-105503832D01*
X152324900Y-105509529D01*
X152470182Y-105560366D01*
X152470188Y-105560367D01*
X152470190Y-105560368D01*
X152470191Y-105560368D01*
X152470195Y-105560369D01*
X152560691Y-105570565D01*
X152604485Y-105575499D01*
X152604488Y-105575500D01*
X152604491Y-105575500D01*
X152694402Y-105575500D01*
X152694403Y-105575499D01*
X152761549Y-105567933D01*
X152828694Y-105560369D01*
X152828697Y-105560368D01*
X152828700Y-105560368D01*
X152998967Y-105500789D01*
X153151707Y-105404816D01*
X153279261Y-105277262D01*
X153375234Y-105124522D01*
X153434813Y-104954255D01*
X153455010Y-104775000D01*
X153434813Y-104595745D01*
X153375234Y-104425478D01*
X153279261Y-104272738D01*
X153151707Y-104145184D01*
X153096433Y-104110453D01*
X152998968Y-104049211D01*
X152828699Y-103989631D01*
X152828694Y-103989630D01*
X152694405Y-103974500D01*
X152694399Y-103974500D01*
X152604491Y-103974500D01*
X152604484Y-103974500D01*
X152470195Y-103989630D01*
X152470187Y-103989632D01*
X152324899Y-104040471D01*
X152255121Y-104044032D01*
X152194493Y-104009303D01*
X152162266Y-103947310D01*
X152159945Y-103923429D01*
X152159945Y-101837737D01*
X152161669Y-101822123D01*
X152161383Y-101822096D01*
X152162117Y-101814333D01*
X152159945Y-101745203D01*
X152159945Y-101715651D01*
X152159945Y-101715650D01*
X152159074Y-101708759D01*
X152158617Y-101702945D01*
X152157154Y-101656373D01*
X152151566Y-101637139D01*
X152147619Y-101618081D01*
X152145109Y-101598208D01*
X152127952Y-101554875D01*
X152126059Y-101549346D01*
X152113063Y-101504614D01*
X152113062Y-101504610D01*
X152102865Y-101487368D01*
X152094308Y-101469902D01*
X152086931Y-101451268D01*
X152059528Y-101413550D01*
X152056345Y-101408705D01*
X152032615Y-101368579D01*
X152032610Y-101368573D01*
X152018450Y-101354413D01*
X152005815Y-101339620D01*
X151994038Y-101323412D01*
X151958138Y-101293713D01*
X151953826Y-101289790D01*
X151746263Y-101082227D01*
X151712778Y-101020904D01*
X151709944Y-100994546D01*
X151709944Y-100769815D01*
X151729629Y-100702776D01*
X151782433Y-100657021D01*
X151851591Y-100647077D01*
X151915147Y-100676102D01*
X151938937Y-100703842D01*
X152019629Y-100832262D01*
X152147183Y-100959816D01*
X152299923Y-101055789D01*
X152470190Y-101115367D01*
X152470190Y-101115368D01*
X152470195Y-101115369D01*
X152560691Y-101125565D01*
X152604485Y-101130499D01*
X152604488Y-101130500D01*
X152604491Y-101130500D01*
X152694402Y-101130500D01*
X152694403Y-101130499D01*
X152761549Y-101122933D01*
X152828694Y-101115369D01*
X152828697Y-101115368D01*
X152828700Y-101115368D01*
X152998967Y-101055789D01*
X153151707Y-100959816D01*
X153279261Y-100832262D01*
X153375234Y-100679522D01*
X153434813Y-100509255D01*
X153455010Y-100330000D01*
X153434813Y-100150745D01*
X153375234Y-99980478D01*
X153375233Y-99980476D01*
X153375233Y-99980475D01*
X153314233Y-99883396D01*
X153282706Y-99833221D01*
X153263706Y-99765986D01*
X153284073Y-99699151D01*
X153300014Y-99679574D01*
X154053787Y-98925802D01*
X154066042Y-98915986D01*
X154065859Y-98915764D01*
X154071866Y-98910792D01*
X154071877Y-98910786D01*
X154111415Y-98868682D01*
X154119227Y-98860364D01*
X154129671Y-98849918D01*
X154140120Y-98839471D01*
X154144379Y-98833978D01*
X154148152Y-98829561D01*
X154180062Y-98795582D01*
X154189713Y-98778024D01*
X154200396Y-98761761D01*
X154212673Y-98745936D01*
X154231185Y-98703153D01*
X154233738Y-98697941D01*
X154256197Y-98657092D01*
X154261180Y-98637680D01*
X154267481Y-98619280D01*
X154275437Y-98600896D01*
X154282729Y-98554852D01*
X154283906Y-98549171D01*
X154295500Y-98504019D01*
X154295500Y-98483982D01*
X154297027Y-98464582D01*
X154300160Y-98444804D01*
X154295775Y-98398415D01*
X154295500Y-98392577D01*
X154295500Y-97585144D01*
X154297224Y-97569530D01*
X154296938Y-97569503D01*
X154297672Y-97561740D01*
X154295500Y-97492609D01*
X154295500Y-97463058D01*
X154295500Y-97463057D01*
X154294629Y-97456166D01*
X154294172Y-97450352D01*
X154292709Y-97403781D01*
X154292709Y-97403779D01*
X154287120Y-97384544D01*
X154283174Y-97365491D01*
X154282858Y-97362989D01*
X154280664Y-97345615D01*
X154263501Y-97302266D01*
X154261614Y-97296753D01*
X154260781Y-97293887D01*
X154248617Y-97252017D01*
X154248616Y-97252015D01*
X154238421Y-97234776D01*
X154229860Y-97217300D01*
X154222486Y-97198676D01*
X154222486Y-97198674D01*
X154208435Y-97179336D01*
X154195083Y-97160957D01*
X154191900Y-97156112D01*
X154168170Y-97115986D01*
X154168165Y-97115980D01*
X154154005Y-97101820D01*
X154141370Y-97087027D01*
X154129593Y-97070819D01*
X154093693Y-97041120D01*
X154089381Y-97037197D01*
X153033395Y-95981211D01*
X153023573Y-95968950D01*
X153023352Y-95969134D01*
X153018379Y-95963123D01*
X152999752Y-95945631D01*
X152967957Y-95915773D01*
X152957512Y-95905328D01*
X152947068Y-95894883D01*
X152941579Y-95890625D01*
X152937154Y-95886847D01*
X152903175Y-95854938D01*
X152903173Y-95854936D01*
X152903170Y-95854935D01*
X152885622Y-95845288D01*
X152869356Y-95834604D01*
X152853526Y-95822325D01*
X152810761Y-95803818D01*
X152805515Y-95801248D01*
X152764686Y-95778803D01*
X152764685Y-95778802D01*
X152745286Y-95773822D01*
X152726874Y-95767518D01*
X152708491Y-95759562D01*
X152708485Y-95759560D01*
X152662467Y-95752272D01*
X152656745Y-95751087D01*
X152611614Y-95739500D01*
X152611612Y-95739500D01*
X152591577Y-95739500D01*
X152572179Y-95737973D01*
X152564755Y-95736797D01*
X152552398Y-95734840D01*
X152552397Y-95734840D01*
X152506009Y-95739225D01*
X152500171Y-95739500D01*
X143997182Y-95739500D01*
X143981565Y-95737776D01*
X143981538Y-95738062D01*
X143973776Y-95737327D01*
X143904648Y-95739500D01*
X143875095Y-95739500D01*
X143874374Y-95739590D01*
X143868202Y-95740369D01*
X143862390Y-95740826D01*
X143815823Y-95742290D01*
X143815812Y-95742292D01*
X143796579Y-95747879D01*
X143777539Y-95751822D01*
X143757662Y-95754334D01*
X143757655Y-95754335D01*
X143757653Y-95754336D01*
X143757651Y-95754336D01*
X143757650Y-95754337D01*
X143714313Y-95771494D01*
X143708787Y-95773386D01*
X143664056Y-95786382D01*
X143664053Y-95786383D01*
X143646808Y-95796581D01*
X143629346Y-95805135D01*
X143610717Y-95812511D01*
X143610712Y-95812513D01*
X143573009Y-95839906D01*
X143568127Y-95843112D01*
X143528025Y-95866828D01*
X143513853Y-95881000D01*
X143499068Y-95893628D01*
X143482857Y-95905407D01*
X143453154Y-95941310D01*
X143449222Y-95945631D01*
X143241672Y-96153181D01*
X143180349Y-96186666D01*
X143153991Y-96189500D01*
X141820927Y-96189500D01*
X141753888Y-96169815D01*
X141736040Y-96155889D01*
X141735029Y-96154939D01*
X141735022Y-96154935D01*
X141717474Y-96145288D01*
X141701208Y-96134604D01*
X141685378Y-96122325D01*
X141642613Y-96103818D01*
X141637367Y-96101248D01*
X141596538Y-96078803D01*
X141596537Y-96078802D01*
X141577138Y-96073822D01*
X141558726Y-96067518D01*
X141540343Y-96059562D01*
X141540337Y-96059560D01*
X141494319Y-96052272D01*
X141488597Y-96051087D01*
X141443466Y-96039500D01*
X141443464Y-96039500D01*
X141423429Y-96039500D01*
X141404031Y-96037973D01*
X141396607Y-96036797D01*
X141384250Y-96034840D01*
X141384249Y-96034840D01*
X141337861Y-96039225D01*
X141332023Y-96039500D01*
X135827743Y-96039500D01*
X135812122Y-96037775D01*
X135812096Y-96038061D01*
X135804334Y-96037327D01*
X135804333Y-96037327D01*
X135735186Y-96039500D01*
X135705649Y-96039500D01*
X135698766Y-96040369D01*
X135692949Y-96040826D01*
X135646373Y-96042290D01*
X135627129Y-96047881D01*
X135608079Y-96051825D01*
X135588211Y-96054334D01*
X135544884Y-96071488D01*
X135539358Y-96073379D01*
X135494614Y-96086379D01*
X135494610Y-96086381D01*
X135477366Y-96096579D01*
X135459905Y-96105133D01*
X135441274Y-96112510D01*
X135441262Y-96112517D01*
X135403570Y-96139902D01*
X135398687Y-96143109D01*
X135358580Y-96166829D01*
X135344414Y-96180995D01*
X135329624Y-96193627D01*
X135313414Y-96205404D01*
X135313411Y-96205407D01*
X135283710Y-96241309D01*
X135279777Y-96245631D01*
X134738153Y-96787254D01*
X134725896Y-96797075D01*
X134726079Y-96797296D01*
X134720068Y-96802268D01*
X134672717Y-96852691D01*
X134651834Y-96873574D01*
X134651822Y-96873587D01*
X134647566Y-96879072D01*
X134643782Y-96883502D01*
X134611882Y-96917473D01*
X134611881Y-96917475D01*
X134602229Y-96935031D01*
X134591555Y-96951281D01*
X134579274Y-96967116D01*
X134579269Y-96967123D01*
X134560760Y-97009893D01*
X134558190Y-97015139D01*
X134535748Y-97055961D01*
X134530767Y-97075362D01*
X134524466Y-97093765D01*
X134516507Y-97112157D01*
X134516506Y-97112160D01*
X134509216Y-97158182D01*
X134508032Y-97163901D01*
X134496446Y-97209027D01*
X134496445Y-97209037D01*
X134496445Y-97229071D01*
X134494918Y-97248470D01*
X134491785Y-97268249D01*
X134491785Y-97268250D01*
X132080500Y-97268250D01*
X132080500Y-93265000D01*
X132089493Y-93047569D01*
X132098160Y-92849061D01*
X132098574Y-92844138D01*
X132125487Y-92628223D01*
X132151884Y-92427726D01*
X132152669Y-92423114D01*
X132197191Y-92210778D01*
X132241160Y-92012451D01*
X132242253Y-92008235D01*
X132304112Y-91800457D01*
X132365324Y-91606320D01*
X132366673Y-91602488D01*
X132445469Y-91400551D01*
X132523499Y-91212170D01*
X132525033Y-91208771D01*
X132595883Y-91063847D01*
X133887039Y-91063847D01*
X133887039Y-94375429D01*
X159002857Y-94375429D01*
X159002857Y-91063847D01*
X133887039Y-91063847D01*
X132595883Y-91063847D01*
X132620076Y-91014360D01*
X132620249Y-91014007D01*
X132653419Y-90950284D01*
X132714494Y-90832960D01*
X132716207Y-90829891D01*
X132716307Y-90829723D01*
X132827211Y-90643601D01*
X132936972Y-90471313D01*
X132938765Y-90468656D01*
X133064856Y-90292054D01*
X133189313Y-90129861D01*
X133191135Y-90127601D01*
X133331448Y-89961933D01*
X133470563Y-89810115D01*
X133625115Y-89655563D01*
X133776933Y-89516448D01*
X133942601Y-89376135D01*
X133944861Y-89374313D01*
X134107054Y-89249856D01*
X134283656Y-89123765D01*
X134286313Y-89121972D01*
X134458601Y-89012211D01*
X134644900Y-88901201D01*
X134647960Y-88899494D01*
X134765284Y-88838419D01*
X134829007Y-88805249D01*
X134903661Y-88768752D01*
X135023771Y-88710033D01*
X135027170Y-88708499D01*
X135215551Y-88630469D01*
X135417488Y-88551673D01*
X135421320Y-88550324D01*
X135615457Y-88489112D01*
X135823235Y-88427253D01*
X135827451Y-88426160D01*
X136025778Y-88382191D01*
X136238114Y-88337669D01*
X136242726Y-88336884D01*
X136443223Y-88310487D01*
X136659138Y-88283574D01*
X136664061Y-88283160D01*
X136862569Y-88274493D01*
X137080000Y-88265500D01*
X137080500Y-88265500D01*
X155518390Y-88265500D01*
X155518890Y-88265500D01*
X155734022Y-88274397D01*
G37*
%TD.AperFunction*%
%TD*%
M02*
