%TF.GenerationSoftware,KiCad,Pcbnew,8.0.2*%
%TF.CreationDate,2024-05-27T13:26:58-06:00*%
%TF.ProjectId,KindFlowerPCB,4b696e64-466c-46f7-9765-725043422e6b,rev?*%
%TF.SameCoordinates,Original*%
%TF.FileFunction,Soldermask,Bot*%
%TF.FilePolarity,Negative*%
%FSLAX46Y46*%
G04 Gerber Fmt 4.6, Leading zero omitted, Abs format (unit mm)*
G04 Created by KiCad (PCBNEW 8.0.2) date 2024-05-27 13:26:58*
%MOMM*%
%LPD*%
G01*
G04 APERTURE LIST*
%ADD10C,0.300000*%
%ADD11C,1.600000*%
%ADD12O,1.600000X1.600000*%
%ADD13C,1.100000*%
%ADD14R,2.200000X2.200000*%
%ADD15C,2.200000*%
%ADD16R,1.600000X1.600000*%
G04 APERTURE END LIST*
D10*
X158841110Y-152170234D02*
X158841110Y-150420234D01*
X157841110Y-152170234D02*
X158591110Y-151170234D01*
X157841110Y-150420234D02*
X158841110Y-151420234D01*
X157091110Y-152170234D02*
X157091110Y-151003567D01*
X157091110Y-150420234D02*
X157174443Y-150503567D01*
X157174443Y-150503567D02*
X157091110Y-150586901D01*
X157091110Y-150586901D02*
X157007777Y-150503567D01*
X157007777Y-150503567D02*
X157091110Y-150420234D01*
X157091110Y-150420234D02*
X157091110Y-150586901D01*
X156257777Y-151003567D02*
X156257777Y-152170234D01*
X156257777Y-151170234D02*
X156174444Y-151086901D01*
X156174444Y-151086901D02*
X156007777Y-151003567D01*
X156007777Y-151003567D02*
X155757777Y-151003567D01*
X155757777Y-151003567D02*
X155591110Y-151086901D01*
X155591110Y-151086901D02*
X155507777Y-151253567D01*
X155507777Y-151253567D02*
X155507777Y-152170234D01*
X153924444Y-152170234D02*
X153924444Y-150420234D01*
X153924444Y-152086901D02*
X154091111Y-152170234D01*
X154091111Y-152170234D02*
X154424444Y-152170234D01*
X154424444Y-152170234D02*
X154591111Y-152086901D01*
X154591111Y-152086901D02*
X154674444Y-152003567D01*
X154674444Y-152003567D02*
X154757777Y-151836901D01*
X154757777Y-151836901D02*
X154757777Y-151336901D01*
X154757777Y-151336901D02*
X154674444Y-151170234D01*
X154674444Y-151170234D02*
X154591111Y-151086901D01*
X154591111Y-151086901D02*
X154424444Y-151003567D01*
X154424444Y-151003567D02*
X154091111Y-151003567D01*
X154091111Y-151003567D02*
X153924444Y-151086901D01*
X153091111Y-151003567D02*
X153091111Y-152170234D01*
X153091111Y-151170234D02*
X153007778Y-151086901D01*
X153007778Y-151086901D02*
X152841111Y-151003567D01*
X152841111Y-151003567D02*
X152591111Y-151003567D01*
X152591111Y-151003567D02*
X152424444Y-151086901D01*
X152424444Y-151086901D02*
X152341111Y-151253567D01*
X152341111Y-151253567D02*
X152341111Y-152170234D01*
X150841111Y-152086901D02*
X151007778Y-152170234D01*
X151007778Y-152170234D02*
X151341111Y-152170234D01*
X151341111Y-152170234D02*
X151507778Y-152086901D01*
X151507778Y-152086901D02*
X151591111Y-151920234D01*
X151591111Y-151920234D02*
X151591111Y-151253567D01*
X151591111Y-151253567D02*
X151507778Y-151086901D01*
X151507778Y-151086901D02*
X151341111Y-151003567D01*
X151341111Y-151003567D02*
X151007778Y-151003567D01*
X151007778Y-151003567D02*
X150841111Y-151086901D01*
X150841111Y-151086901D02*
X150757778Y-151253567D01*
X150757778Y-151253567D02*
X150757778Y-151420234D01*
X150757778Y-151420234D02*
X151591111Y-151586901D01*
X150091111Y-152086901D02*
X149924445Y-152170234D01*
X149924445Y-152170234D02*
X149591111Y-152170234D01*
X149591111Y-152170234D02*
X149424445Y-152086901D01*
X149424445Y-152086901D02*
X149341111Y-151920234D01*
X149341111Y-151920234D02*
X149341111Y-151836901D01*
X149341111Y-151836901D02*
X149424445Y-151670234D01*
X149424445Y-151670234D02*
X149591111Y-151586901D01*
X149591111Y-151586901D02*
X149841111Y-151586901D01*
X149841111Y-151586901D02*
X150007778Y-151503567D01*
X150007778Y-151503567D02*
X150091111Y-151336901D01*
X150091111Y-151336901D02*
X150091111Y-151253567D01*
X150091111Y-151253567D02*
X150007778Y-151086901D01*
X150007778Y-151086901D02*
X149841111Y-151003567D01*
X149841111Y-151003567D02*
X149591111Y-151003567D01*
X149591111Y-151003567D02*
X149424445Y-151086901D01*
X148674444Y-152086901D02*
X148507778Y-152170234D01*
X148507778Y-152170234D02*
X148174444Y-152170234D01*
X148174444Y-152170234D02*
X148007778Y-152086901D01*
X148007778Y-152086901D02*
X147924444Y-151920234D01*
X147924444Y-151920234D02*
X147924444Y-151836901D01*
X147924444Y-151836901D02*
X148007778Y-151670234D01*
X148007778Y-151670234D02*
X148174444Y-151586901D01*
X148174444Y-151586901D02*
X148424444Y-151586901D01*
X148424444Y-151586901D02*
X148591111Y-151503567D01*
X148591111Y-151503567D02*
X148674444Y-151336901D01*
X148674444Y-151336901D02*
X148674444Y-151253567D01*
X148674444Y-151253567D02*
X148591111Y-151086901D01*
X148591111Y-151086901D02*
X148424444Y-151003567D01*
X148424444Y-151003567D02*
X148174444Y-151003567D01*
X148174444Y-151003567D02*
X148007778Y-151086901D01*
X145257778Y-151253567D02*
X145841111Y-151253567D01*
X145841111Y-152170234D02*
X145841111Y-150420234D01*
X145841111Y-150420234D02*
X145007778Y-150420234D01*
X144091111Y-152170234D02*
X144257778Y-152086901D01*
X144257778Y-152086901D02*
X144341111Y-151920234D01*
X144341111Y-151920234D02*
X144341111Y-150420234D01*
X143174444Y-152170234D02*
X143341111Y-152086901D01*
X143341111Y-152086901D02*
X143424444Y-152003567D01*
X143424444Y-152003567D02*
X143507777Y-151836901D01*
X143507777Y-151836901D02*
X143507777Y-151336901D01*
X143507777Y-151336901D02*
X143424444Y-151170234D01*
X143424444Y-151170234D02*
X143341111Y-151086901D01*
X143341111Y-151086901D02*
X143174444Y-151003567D01*
X143174444Y-151003567D02*
X142924444Y-151003567D01*
X142924444Y-151003567D02*
X142757777Y-151086901D01*
X142757777Y-151086901D02*
X142674444Y-151170234D01*
X142674444Y-151170234D02*
X142591111Y-151336901D01*
X142591111Y-151336901D02*
X142591111Y-151836901D01*
X142591111Y-151836901D02*
X142674444Y-152003567D01*
X142674444Y-152003567D02*
X142757777Y-152086901D01*
X142757777Y-152086901D02*
X142924444Y-152170234D01*
X142924444Y-152170234D02*
X143174444Y-152170234D01*
X142007778Y-151003567D02*
X141674444Y-152170234D01*
X141674444Y-152170234D02*
X141341111Y-151336901D01*
X141341111Y-151336901D02*
X141007778Y-152170234D01*
X141007778Y-152170234D02*
X140674444Y-151003567D01*
X139341111Y-152086901D02*
X139507778Y-152170234D01*
X139507778Y-152170234D02*
X139841111Y-152170234D01*
X139841111Y-152170234D02*
X140007778Y-152086901D01*
X140007778Y-152086901D02*
X140091111Y-151920234D01*
X140091111Y-151920234D02*
X140091111Y-151253567D01*
X140091111Y-151253567D02*
X140007778Y-151086901D01*
X140007778Y-151086901D02*
X139841111Y-151003567D01*
X139841111Y-151003567D02*
X139507778Y-151003567D01*
X139507778Y-151003567D02*
X139341111Y-151086901D01*
X139341111Y-151086901D02*
X139257778Y-151253567D01*
X139257778Y-151253567D02*
X139257778Y-151420234D01*
X139257778Y-151420234D02*
X140091111Y-151586901D01*
X138507778Y-152170234D02*
X138507778Y-151003567D01*
X138507778Y-151336901D02*
X138424445Y-151170234D01*
X138424445Y-151170234D02*
X138341111Y-151086901D01*
X138341111Y-151086901D02*
X138174445Y-151003567D01*
X138174445Y-151003567D02*
X138007778Y-151003567D01*
X136341112Y-150420234D02*
X135757779Y-152170234D01*
X135757779Y-152170234D02*
X135174445Y-150420234D01*
X134674445Y-150586901D02*
X134591112Y-150503567D01*
X134591112Y-150503567D02*
X134424445Y-150420234D01*
X134424445Y-150420234D02*
X134007779Y-150420234D01*
X134007779Y-150420234D02*
X133841112Y-150503567D01*
X133841112Y-150503567D02*
X133757779Y-150586901D01*
X133757779Y-150586901D02*
X133674445Y-150753567D01*
X133674445Y-150753567D02*
X133674445Y-150920234D01*
X133674445Y-150920234D02*
X133757779Y-151170234D01*
X133757779Y-151170234D02*
X134757779Y-152170234D01*
X134757779Y-152170234D02*
X133674445Y-152170234D01*
X151924444Y-140105234D02*
X151924444Y-138355234D01*
X151924444Y-138355234D02*
X151257777Y-138355234D01*
X151257777Y-138355234D02*
X151091111Y-138438567D01*
X151091111Y-138438567D02*
X151007777Y-138521901D01*
X151007777Y-138521901D02*
X150924444Y-138688567D01*
X150924444Y-138688567D02*
X150924444Y-138938567D01*
X150924444Y-138938567D02*
X151007777Y-139105234D01*
X151007777Y-139105234D02*
X151091111Y-139188567D01*
X151091111Y-139188567D02*
X151257777Y-139271901D01*
X151257777Y-139271901D02*
X151924444Y-139271901D01*
X150174444Y-140105234D02*
X150174444Y-138355234D01*
X149424444Y-140105234D02*
X149424444Y-139188567D01*
X149424444Y-139188567D02*
X149507777Y-139021901D01*
X149507777Y-139021901D02*
X149674444Y-138938567D01*
X149674444Y-138938567D02*
X149924444Y-138938567D01*
X149924444Y-138938567D02*
X150091111Y-139021901D01*
X150091111Y-139021901D02*
X150174444Y-139105234D01*
X148341111Y-140105234D02*
X148507778Y-140021901D01*
X148507778Y-140021901D02*
X148591111Y-139938567D01*
X148591111Y-139938567D02*
X148674444Y-139771901D01*
X148674444Y-139771901D02*
X148674444Y-139271901D01*
X148674444Y-139271901D02*
X148591111Y-139105234D01*
X148591111Y-139105234D02*
X148507778Y-139021901D01*
X148507778Y-139021901D02*
X148341111Y-138938567D01*
X148341111Y-138938567D02*
X148091111Y-138938567D01*
X148091111Y-138938567D02*
X147924444Y-139021901D01*
X147924444Y-139021901D02*
X147841111Y-139105234D01*
X147841111Y-139105234D02*
X147757778Y-139271901D01*
X147757778Y-139271901D02*
X147757778Y-139771901D01*
X147757778Y-139771901D02*
X147841111Y-139938567D01*
X147841111Y-139938567D02*
X147924444Y-140021901D01*
X147924444Y-140021901D02*
X148091111Y-140105234D01*
X148091111Y-140105234D02*
X148341111Y-140105234D01*
X147257778Y-138938567D02*
X146591111Y-138938567D01*
X147007778Y-138355234D02*
X147007778Y-139855234D01*
X147007778Y-139855234D02*
X146924445Y-140021901D01*
X146924445Y-140021901D02*
X146757778Y-140105234D01*
X146757778Y-140105234D02*
X146591111Y-140105234D01*
X145757778Y-140105234D02*
X145924445Y-140021901D01*
X145924445Y-140021901D02*
X146007778Y-139938567D01*
X146007778Y-139938567D02*
X146091111Y-139771901D01*
X146091111Y-139771901D02*
X146091111Y-139271901D01*
X146091111Y-139271901D02*
X146007778Y-139105234D01*
X146007778Y-139105234D02*
X145924445Y-139021901D01*
X145924445Y-139021901D02*
X145757778Y-138938567D01*
X145757778Y-138938567D02*
X145507778Y-138938567D01*
X145507778Y-138938567D02*
X145341111Y-139021901D01*
X145341111Y-139021901D02*
X145257778Y-139105234D01*
X145257778Y-139105234D02*
X145174445Y-139271901D01*
X145174445Y-139271901D02*
X145174445Y-139771901D01*
X145174445Y-139771901D02*
X145257778Y-139938567D01*
X145257778Y-139938567D02*
X145341111Y-140021901D01*
X145341111Y-140021901D02*
X145507778Y-140105234D01*
X145507778Y-140105234D02*
X145757778Y-140105234D01*
X144424445Y-138938567D02*
X144424445Y-140105234D01*
X144424445Y-139105234D02*
X144341112Y-139021901D01*
X144341112Y-139021901D02*
X144174445Y-138938567D01*
X144174445Y-138938567D02*
X143924445Y-138938567D01*
X143924445Y-138938567D02*
X143757778Y-139021901D01*
X143757778Y-139021901D02*
X143674445Y-139188567D01*
X143674445Y-139188567D02*
X143674445Y-140105234D01*
X141591112Y-138521901D02*
X141507779Y-138438567D01*
X141507779Y-138438567D02*
X141341112Y-138355234D01*
X141341112Y-138355234D02*
X140924446Y-138355234D01*
X140924446Y-138355234D02*
X140757779Y-138438567D01*
X140757779Y-138438567D02*
X140674446Y-138521901D01*
X140674446Y-138521901D02*
X140591112Y-138688567D01*
X140591112Y-138688567D02*
X140591112Y-138855234D01*
X140591112Y-138855234D02*
X140674446Y-139105234D01*
X140674446Y-139105234D02*
X141674446Y-140105234D01*
X141674446Y-140105234D02*
X140591112Y-140105234D01*
D11*
%TO.C,R2*%
X152014445Y-113665000D03*
D12*
X152014445Y-121285000D03*
%TD*%
D13*
%TO.C,J6*%
X152649445Y-107315000D03*
X152649445Y-104775000D03*
D14*
X150109445Y-107315000D03*
D15*
X150109445Y-104775000D03*
%TD*%
D13*
%TO.C,J3*%
X148521945Y-147955000D03*
X151061945Y-147955000D03*
D14*
X148521945Y-145415000D03*
D15*
X151061945Y-145415000D03*
%TD*%
D13*
%TO.C,J4*%
X139949445Y-104775000D03*
X139949445Y-107315000D03*
D14*
X142489445Y-104775000D03*
D15*
X142489445Y-107315000D03*
%TD*%
D13*
%TO.C,J5*%
X139949445Y-97790000D03*
X139949445Y-100330000D03*
D14*
X142489445Y-97790000D03*
D15*
X142489445Y-100330000D03*
%TD*%
D13*
%TO.C,J8*%
X153670000Y-134620000D03*
X153670000Y-132080000D03*
X153670000Y-129540000D03*
D14*
X151130000Y-134620000D03*
D15*
X151130000Y-132080000D03*
X151130000Y-129540000D03*
%TD*%
D13*
%TO.C,J1*%
X141536945Y-147955000D03*
X144076945Y-147955000D03*
D14*
X141536945Y-145415000D03*
D15*
X144076945Y-145415000D03*
%TD*%
D11*
%TO.C,R3*%
X148204445Y-113665000D03*
D12*
X148204445Y-121285000D03*
%TD*%
D13*
%TO.C,J2*%
X152649445Y-100330000D03*
X152649445Y-97790000D03*
D14*
X150109445Y-100330000D03*
D15*
X150109445Y-97790000D03*
%TD*%
D13*
%TO.C,J7*%
X140970000Y-129540000D03*
X140970000Y-132080000D03*
X140970000Y-134620000D03*
D14*
X143510000Y-129540000D03*
D15*
X143510000Y-132080000D03*
X143510000Y-134620000D03*
%TD*%
D11*
%TO.C,R5*%
X140584445Y-113665000D03*
D12*
X140584445Y-121285000D03*
%TD*%
D11*
%TO.C,R4*%
X144394445Y-113665000D03*
D12*
X144394445Y-121285000D03*
%TD*%
D16*
%TO.C,A1*%
X136246945Y-135890000D03*
D11*
X136246945Y-133350000D03*
X136246945Y-130810000D03*
X136246945Y-128270000D03*
X136246945Y-125730000D03*
X136246945Y-123190000D03*
X136246945Y-120650000D03*
X136246945Y-118110000D03*
X136246945Y-115570000D03*
X136246945Y-113030000D03*
X136246945Y-110490000D03*
X136246945Y-107950000D03*
X136246945Y-105410000D03*
X136246945Y-102870000D03*
X136246945Y-100330000D03*
X136246945Y-97790000D03*
X156566945Y-97790000D03*
X156566945Y-100330000D03*
X156566945Y-102870000D03*
X156566945Y-105410000D03*
X156566945Y-107950000D03*
X156566945Y-110490000D03*
X156566945Y-113030000D03*
X156566945Y-115570000D03*
X156566945Y-118110000D03*
X156566945Y-120650000D03*
X156566945Y-123190000D03*
X156566945Y-125730000D03*
%TD*%
M02*
