M48
; DRILL file {KiCad 7.0.7} date Mon May 20 11:43:12 2024
; FORMAT={-:-/ absolute / inch / decimal}
; #@! TF.CreationDate,2024-05-20T11:43:12-06:00
; #@! TF.GenerationSoftware,Kicad,Pcbnew,7.0.7
; #@! TF.FileFunction,Plated,1,2,PTH
FMAT,2
INCH
; #@! TA.AperFunction,Plated,PTH,ComponentDrill
T1C0.0315
; #@! TA.AperFunction,Plated,PTH,ComponentDrill
T2C0.0433
%
G90
G05
T1
X5.3641Y-3.85
X5.3641Y-3.95
X5.3641Y-4.05
X5.3641Y-4.15
X5.3641Y-4.25
X5.3641Y-4.35
X5.3641Y-4.45
X5.3641Y-4.55
X5.3641Y-4.65
X5.3641Y-4.75
X5.3641Y-4.85
X5.3641Y-4.95
X5.3641Y-5.05
X5.3641Y-5.15
X5.3641Y-5.25
X5.3641Y-5.35
X5.5348Y-4.475
X5.5348Y-4.775
X5.6848Y-4.475
X5.6848Y-4.775
X5.8348Y-4.475
X5.8348Y-4.775
X5.9848Y-4.475
X5.9848Y-4.775
X6.1641Y-3.85
X6.1641Y-3.95
X6.1641Y-4.05
X6.1641Y-4.15
X6.1641Y-4.25
X6.1641Y-4.35
X6.1641Y-4.45
X6.1641Y-4.55
X6.1641Y-4.65
X6.1641Y-4.75
X6.1641Y-4.85
X6.1641Y-4.95
T2
X5.5723Y-5.725
X5.6098Y-3.85
X5.6098Y-3.95
X5.6098Y-4.125
X5.6098Y-4.225
X5.65Y-5.1
X5.65Y-5.2
X5.65Y-5.3
X5.6723Y-5.725
X5.8473Y-5.725
X5.9098Y-3.85
X5.9098Y-3.95
X5.9098Y-4.125
X5.9098Y-4.225
X5.9473Y-5.725
X5.95Y-5.1
X5.95Y-5.2
X5.95Y-5.3
T0
M30
