%TF.GenerationSoftware,KiCad,Pcbnew,8.0.2*%
%TF.CreationDate,2024-05-27T13:26:58-06:00*%
%TF.ProjectId,KindFlowerPCB,4b696e64-466c-46f7-9765-725043422e6b,rev?*%
%TF.SameCoordinates,Original*%
%TF.FileFunction,Soldermask,Top*%
%TF.FilePolarity,Negative*%
%FSLAX46Y46*%
G04 Gerber Fmt 4.6, Leading zero omitted, Abs format (unit mm)*
G04 Created by KiCad (PCBNEW 8.0.2) date 2024-05-27 13:26:58*
%MOMM*%
%LPD*%
G01*
G04 APERTURE LIST*
%ADD10C,0.300000*%
%ADD11C,1.600000*%
%ADD12O,1.600000X1.600000*%
%ADD13C,1.100000*%
%ADD14R,2.200000X2.200000*%
%ADD15C,2.200000*%
%ADD16R,1.600000X1.600000*%
G04 APERTURE END LIST*
D10*
X133757779Y-93115234D02*
X133757779Y-91365234D01*
X134757779Y-93115234D02*
X134007779Y-92115234D01*
X134757779Y-91365234D02*
X133757779Y-92365234D01*
X135507779Y-93115234D02*
X135507779Y-91948567D01*
X135507779Y-91365234D02*
X135424446Y-91448567D01*
X135424446Y-91448567D02*
X135507779Y-91531901D01*
X135507779Y-91531901D02*
X135591113Y-91448567D01*
X135591113Y-91448567D02*
X135507779Y-91365234D01*
X135507779Y-91365234D02*
X135507779Y-91531901D01*
X136341112Y-91948567D02*
X136341112Y-93115234D01*
X136341112Y-92115234D02*
X136424446Y-92031901D01*
X136424446Y-92031901D02*
X136591112Y-91948567D01*
X136591112Y-91948567D02*
X136841112Y-91948567D01*
X136841112Y-91948567D02*
X137007779Y-92031901D01*
X137007779Y-92031901D02*
X137091112Y-92198567D01*
X137091112Y-92198567D02*
X137091112Y-93115234D01*
X138674445Y-93115234D02*
X138674445Y-91365234D01*
X138674445Y-93031901D02*
X138507779Y-93115234D01*
X138507779Y-93115234D02*
X138174445Y-93115234D01*
X138174445Y-93115234D02*
X138007779Y-93031901D01*
X138007779Y-93031901D02*
X137924445Y-92948567D01*
X137924445Y-92948567D02*
X137841112Y-92781901D01*
X137841112Y-92781901D02*
X137841112Y-92281901D01*
X137841112Y-92281901D02*
X137924445Y-92115234D01*
X137924445Y-92115234D02*
X138007779Y-92031901D01*
X138007779Y-92031901D02*
X138174445Y-91948567D01*
X138174445Y-91948567D02*
X138507779Y-91948567D01*
X138507779Y-91948567D02*
X138674445Y-92031901D01*
X139507778Y-91948567D02*
X139507778Y-93115234D01*
X139507778Y-92115234D02*
X139591112Y-92031901D01*
X139591112Y-92031901D02*
X139757778Y-91948567D01*
X139757778Y-91948567D02*
X140007778Y-91948567D01*
X140007778Y-91948567D02*
X140174445Y-92031901D01*
X140174445Y-92031901D02*
X140257778Y-92198567D01*
X140257778Y-92198567D02*
X140257778Y-93115234D01*
X141757778Y-93031901D02*
X141591111Y-93115234D01*
X141591111Y-93115234D02*
X141257778Y-93115234D01*
X141257778Y-93115234D02*
X141091111Y-93031901D01*
X141091111Y-93031901D02*
X141007778Y-92865234D01*
X141007778Y-92865234D02*
X141007778Y-92198567D01*
X141007778Y-92198567D02*
X141091111Y-92031901D01*
X141091111Y-92031901D02*
X141257778Y-91948567D01*
X141257778Y-91948567D02*
X141591111Y-91948567D01*
X141591111Y-91948567D02*
X141757778Y-92031901D01*
X141757778Y-92031901D02*
X141841111Y-92198567D01*
X141841111Y-92198567D02*
X141841111Y-92365234D01*
X141841111Y-92365234D02*
X141007778Y-92531901D01*
X142507778Y-93031901D02*
X142674445Y-93115234D01*
X142674445Y-93115234D02*
X143007778Y-93115234D01*
X143007778Y-93115234D02*
X143174445Y-93031901D01*
X143174445Y-93031901D02*
X143257778Y-92865234D01*
X143257778Y-92865234D02*
X143257778Y-92781901D01*
X143257778Y-92781901D02*
X143174445Y-92615234D01*
X143174445Y-92615234D02*
X143007778Y-92531901D01*
X143007778Y-92531901D02*
X142757778Y-92531901D01*
X142757778Y-92531901D02*
X142591111Y-92448567D01*
X142591111Y-92448567D02*
X142507778Y-92281901D01*
X142507778Y-92281901D02*
X142507778Y-92198567D01*
X142507778Y-92198567D02*
X142591111Y-92031901D01*
X142591111Y-92031901D02*
X142757778Y-91948567D01*
X142757778Y-91948567D02*
X143007778Y-91948567D01*
X143007778Y-91948567D02*
X143174445Y-92031901D01*
X143924445Y-93031901D02*
X144091112Y-93115234D01*
X144091112Y-93115234D02*
X144424445Y-93115234D01*
X144424445Y-93115234D02*
X144591112Y-93031901D01*
X144591112Y-93031901D02*
X144674445Y-92865234D01*
X144674445Y-92865234D02*
X144674445Y-92781901D01*
X144674445Y-92781901D02*
X144591112Y-92615234D01*
X144591112Y-92615234D02*
X144424445Y-92531901D01*
X144424445Y-92531901D02*
X144174445Y-92531901D01*
X144174445Y-92531901D02*
X144007778Y-92448567D01*
X144007778Y-92448567D02*
X143924445Y-92281901D01*
X143924445Y-92281901D02*
X143924445Y-92198567D01*
X143924445Y-92198567D02*
X144007778Y-92031901D01*
X144007778Y-92031901D02*
X144174445Y-91948567D01*
X144174445Y-91948567D02*
X144424445Y-91948567D01*
X144424445Y-91948567D02*
X144591112Y-92031901D01*
X147341112Y-92198567D02*
X146757778Y-92198567D01*
X146757778Y-93115234D02*
X146757778Y-91365234D01*
X146757778Y-91365234D02*
X147591112Y-91365234D01*
X148507778Y-93115234D02*
X148341112Y-93031901D01*
X148341112Y-93031901D02*
X148257778Y-92865234D01*
X148257778Y-92865234D02*
X148257778Y-91365234D01*
X149424445Y-93115234D02*
X149257779Y-93031901D01*
X149257779Y-93031901D02*
X149174445Y-92948567D01*
X149174445Y-92948567D02*
X149091112Y-92781901D01*
X149091112Y-92781901D02*
X149091112Y-92281901D01*
X149091112Y-92281901D02*
X149174445Y-92115234D01*
X149174445Y-92115234D02*
X149257779Y-92031901D01*
X149257779Y-92031901D02*
X149424445Y-91948567D01*
X149424445Y-91948567D02*
X149674445Y-91948567D01*
X149674445Y-91948567D02*
X149841112Y-92031901D01*
X149841112Y-92031901D02*
X149924445Y-92115234D01*
X149924445Y-92115234D02*
X150007779Y-92281901D01*
X150007779Y-92281901D02*
X150007779Y-92781901D01*
X150007779Y-92781901D02*
X149924445Y-92948567D01*
X149924445Y-92948567D02*
X149841112Y-93031901D01*
X149841112Y-93031901D02*
X149674445Y-93115234D01*
X149674445Y-93115234D02*
X149424445Y-93115234D01*
X150591112Y-91948567D02*
X150924445Y-93115234D01*
X150924445Y-93115234D02*
X151257778Y-92281901D01*
X151257778Y-92281901D02*
X151591112Y-93115234D01*
X151591112Y-93115234D02*
X151924445Y-91948567D01*
X153257778Y-93031901D02*
X153091111Y-93115234D01*
X153091111Y-93115234D02*
X152757778Y-93115234D01*
X152757778Y-93115234D02*
X152591111Y-93031901D01*
X152591111Y-93031901D02*
X152507778Y-92865234D01*
X152507778Y-92865234D02*
X152507778Y-92198567D01*
X152507778Y-92198567D02*
X152591111Y-92031901D01*
X152591111Y-92031901D02*
X152757778Y-91948567D01*
X152757778Y-91948567D02*
X153091111Y-91948567D01*
X153091111Y-91948567D02*
X153257778Y-92031901D01*
X153257778Y-92031901D02*
X153341111Y-92198567D01*
X153341111Y-92198567D02*
X153341111Y-92365234D01*
X153341111Y-92365234D02*
X152507778Y-92531901D01*
X154091111Y-93115234D02*
X154091111Y-91948567D01*
X154091111Y-92281901D02*
X154174445Y-92115234D01*
X154174445Y-92115234D02*
X154257778Y-92031901D01*
X154257778Y-92031901D02*
X154424445Y-91948567D01*
X154424445Y-91948567D02*
X154591111Y-91948567D01*
X156257777Y-91365234D02*
X156841111Y-93115234D01*
X156841111Y-93115234D02*
X157424444Y-91365234D01*
X157924444Y-91531901D02*
X158007777Y-91448567D01*
X158007777Y-91448567D02*
X158174444Y-91365234D01*
X158174444Y-91365234D02*
X158591111Y-91365234D01*
X158591111Y-91365234D02*
X158757777Y-91448567D01*
X158757777Y-91448567D02*
X158841111Y-91531901D01*
X158841111Y-91531901D02*
X158924444Y-91698567D01*
X158924444Y-91698567D02*
X158924444Y-91865234D01*
X158924444Y-91865234D02*
X158841111Y-92115234D01*
X158841111Y-92115234D02*
X157841111Y-93115234D01*
X157841111Y-93115234D02*
X158924444Y-93115234D01*
D11*
%TO.C,R2*%
X152014445Y-113665000D03*
D12*
X152014445Y-121285000D03*
%TD*%
D13*
%TO.C,J6*%
X152649445Y-107315000D03*
X152649445Y-104775000D03*
D14*
X150109445Y-107315000D03*
D15*
X150109445Y-104775000D03*
%TD*%
D13*
%TO.C,J3*%
X148521945Y-147955000D03*
X151061945Y-147955000D03*
D14*
X148521945Y-145415000D03*
D15*
X151061945Y-145415000D03*
%TD*%
D13*
%TO.C,J4*%
X139949445Y-104775000D03*
X139949445Y-107315000D03*
D14*
X142489445Y-104775000D03*
D15*
X142489445Y-107315000D03*
%TD*%
D13*
%TO.C,J5*%
X139949445Y-97790000D03*
X139949445Y-100330000D03*
D14*
X142489445Y-97790000D03*
D15*
X142489445Y-100330000D03*
%TD*%
D13*
%TO.C,J8*%
X153670000Y-134620000D03*
X153670000Y-132080000D03*
X153670000Y-129540000D03*
D14*
X151130000Y-134620000D03*
D15*
X151130000Y-132080000D03*
X151130000Y-129540000D03*
%TD*%
D13*
%TO.C,J1*%
X141536945Y-147955000D03*
X144076945Y-147955000D03*
D14*
X141536945Y-145415000D03*
D15*
X144076945Y-145415000D03*
%TD*%
D11*
%TO.C,R3*%
X148204445Y-113665000D03*
D12*
X148204445Y-121285000D03*
%TD*%
D13*
%TO.C,J2*%
X152649445Y-100330000D03*
X152649445Y-97790000D03*
D14*
X150109445Y-100330000D03*
D15*
X150109445Y-97790000D03*
%TD*%
D13*
%TO.C,J7*%
X140970000Y-129540000D03*
X140970000Y-132080000D03*
X140970000Y-134620000D03*
D14*
X143510000Y-129540000D03*
D15*
X143510000Y-132080000D03*
X143510000Y-134620000D03*
%TD*%
D11*
%TO.C,R5*%
X140584445Y-113665000D03*
D12*
X140584445Y-121285000D03*
%TD*%
D11*
%TO.C,R4*%
X144394445Y-113665000D03*
D12*
X144394445Y-121285000D03*
%TD*%
D16*
%TO.C,A1*%
X136246945Y-135890000D03*
D11*
X136246945Y-133350000D03*
X136246945Y-130810000D03*
X136246945Y-128270000D03*
X136246945Y-125730000D03*
X136246945Y-123190000D03*
X136246945Y-120650000D03*
X136246945Y-118110000D03*
X136246945Y-115570000D03*
X136246945Y-113030000D03*
X136246945Y-110490000D03*
X136246945Y-107950000D03*
X136246945Y-105410000D03*
X136246945Y-102870000D03*
X136246945Y-100330000D03*
X136246945Y-97790000D03*
X156566945Y-97790000D03*
X156566945Y-100330000D03*
X156566945Y-102870000D03*
X156566945Y-105410000D03*
X156566945Y-107950000D03*
X156566945Y-110490000D03*
X156566945Y-113030000D03*
X156566945Y-115570000D03*
X156566945Y-118110000D03*
X156566945Y-120650000D03*
X156566945Y-123190000D03*
X156566945Y-125730000D03*
%TD*%
M02*
