%TF.GenerationSoftware,KiCad,Pcbnew,7.0.7*%
%TF.CreationDate,2024-05-20T11:42:57-06:00*%
%TF.ProjectId,KindFlowerPCB,4b696e64-466c-46f7-9765-725043422e6b,rev?*%
%TF.SameCoordinates,Original*%
%TF.FileFunction,Copper,L2,Bot*%
%TF.FilePolarity,Positive*%
%FSLAX46Y46*%
G04 Gerber Fmt 4.6, Leading zero omitted, Abs format (unit mm)*
G04 Created by KiCad (PCBNEW 7.0.7) date 2024-05-20 11:42:57*
%MOMM*%
%LPD*%
G01*
G04 APERTURE LIST*
%TA.AperFunction,ComponentPad*%
%ADD10R,1.600000X1.600000*%
%TD*%
%TA.AperFunction,ComponentPad*%
%ADD11C,1.600000*%
%TD*%
%TA.AperFunction,ComponentPad*%
%ADD12C,2.200000*%
%TD*%
%TA.AperFunction,ComponentPad*%
%ADD13R,2.200000X2.200000*%
%TD*%
%TA.AperFunction,ComponentPad*%
%ADD14O,1.600000X1.600000*%
%TD*%
%TA.AperFunction,Conductor*%
%ADD15C,0.250000*%
%TD*%
G04 APERTURE END LIST*
D10*
%TO.P,A1,1,~{RESET}*%
%TO.N,unconnected-(A1-~{RESET}-Pad1)*%
X136246945Y-135890000D03*
D11*
%TO.P,A1,2,3V3*%
%TO.N,+3.3V*%
X136246945Y-133350000D03*
%TO.P,A1,3,AREF*%
%TO.N,unconnected-(A1-AREF-Pad3)*%
X136246945Y-130810000D03*
%TO.P,A1,4,GND*%
%TO.N,GND*%
X136246945Y-128270000D03*
%TO.P,A1,5,A0*%
%TO.N,Net-(A1-A0)*%
X136246945Y-125730000D03*
%TO.P,A1,6,A1*%
%TO.N,Net-(A1-A1)*%
X136246945Y-123190000D03*
%TO.P,A1,7,A2*%
%TO.N,Net-(A1-A2)*%
X136246945Y-120650000D03*
%TO.P,A1,8,A3*%
%TO.N,unconnected-(A1-A3-Pad8)*%
X136246945Y-118110000D03*
%TO.P,A1,9,A4*%
%TO.N,unconnected-(A1-A4-Pad9)*%
X136246945Y-115570000D03*
%TO.P,A1,10,A5*%
%TO.N,Net-(A1-A5)*%
X136246945Y-113030000D03*
%TO.P,A1,11,SCK*%
%TO.N,unconnected-(A1-SCK-Pad11)*%
X136246945Y-110490000D03*
%TO.P,A1,12,MOSI*%
%TO.N,unconnected-(A1-MOSI-Pad12)*%
X136246945Y-107950000D03*
%TO.P,A1,13,MISO*%
%TO.N,unconnected-(A1-MISO-Pad13)*%
X136246945Y-105410000D03*
%TO.P,A1,14,RX*%
%TO.N,unconnected-(A1-RX-Pad14)*%
X136246945Y-102870000D03*
%TO.P,A1,15,TX*%
%TO.N,unconnected-(A1-TX-Pad15)*%
X136246945Y-100330000D03*
%TO.P,A1,16,SPARE*%
%TO.N,unconnected-(A1-SPARE-Pad16)*%
X136246945Y-97790000D03*
%TO.P,A1,17,SDA*%
%TO.N,unconnected-(A1-SDA-Pad17)*%
X156566945Y-97790000D03*
%TO.P,A1,18,SCL*%
%TO.N,unconnected-(A1-SCL-Pad18)*%
X156566945Y-100330000D03*
%TO.P,A1,19,D0*%
%TO.N,unconnected-(A1-D0-Pad19)*%
X156566945Y-102870000D03*
%TO.P,A1,20,D1*%
%TO.N,unconnected-(A1-D1-Pad20)*%
X156566945Y-105410000D03*
%TO.P,A1,21,D2*%
%TO.N,Net-(A1-D2)*%
X156566945Y-107950000D03*
%TO.P,A1,22,D3*%
%TO.N,unconnected-(A1-D3-Pad22)*%
X156566945Y-110490000D03*
%TO.P,A1,23,D4*%
%TO.N,unconnected-(A1-D4-Pad23)*%
X156566945Y-113030000D03*
%TO.P,A1,24,D5*%
%TO.N,unconnected-(A1-D5-Pad24)*%
X156566945Y-115570000D03*
%TO.P,A1,25,D6*%
%TO.N,unconnected-(A1-D6-Pad25)*%
X156566945Y-118110000D03*
%TO.P,A1,26,USB*%
%TO.N,+5V*%
X156566945Y-120650000D03*
%TO.P,A1,27,EN*%
%TO.N,unconnected-(A1-EN-Pad27)*%
X156566945Y-123190000D03*
%TO.P,A1,28,VBAT*%
%TO.N,+BATT*%
X156566945Y-125730000D03*
%TD*%
D12*
%TO.P,J1,2,Pin_2*%
%TO.N,GND*%
X144076945Y-145415000D03*
D13*
%TO.P,J1,1,Pin_1*%
%TO.N,+BATT*%
X141536945Y-145415000D03*
%TD*%
D14*
%TO.P,R2,2*%
%TO.N,GND*%
X152014445Y-121285000D03*
D11*
%TO.P,R2,1*%
%TO.N,Net-(A1-A5)*%
X152014445Y-113665000D03*
%TD*%
D13*
%TO.P,J6,1,Pin_1*%
%TO.N,+3.3V*%
X150109445Y-107315000D03*
D12*
%TO.P,J6,2,Pin_2*%
%TO.N,Net-(A1-A5)*%
X150109445Y-104775000D03*
%TD*%
D13*
%TO.P,J3,1,Pin_1*%
%TO.N,+5V*%
X148521945Y-145415000D03*
D12*
%TO.P,J3,2,Pin_2*%
%TO.N,GND*%
X151061945Y-145415000D03*
%TD*%
D13*
%TO.P,J4,1,Pin_1*%
%TO.N,+3.3V*%
X142489445Y-104775000D03*
D12*
%TO.P,J4,2,Pin_2*%
%TO.N,Net-(A1-A2)*%
X142489445Y-107315000D03*
%TD*%
D13*
%TO.P,J5,1,Pin_1*%
%TO.N,+3.3V*%
X142489445Y-97790000D03*
D12*
%TO.P,J5,2,Pin_2*%
%TO.N,Net-(A1-A1)*%
X142489445Y-100330000D03*
%TD*%
D13*
%TO.P,J8,1,Pin_1*%
%TO.N,+BATT*%
X151130000Y-134620000D03*
D12*
%TO.P,J8,2,Pin_2*%
%TO.N,Net-(A1-D2)*%
X151130000Y-132080000D03*
%TO.P,J8,3,Pin_3*%
%TO.N,GND*%
X151130000Y-129540000D03*
%TD*%
D14*
%TO.P,R3,2*%
%TO.N,GND*%
X148204445Y-121285000D03*
D11*
%TO.P,R3,1*%
%TO.N,Net-(A1-A0)*%
X148204445Y-113665000D03*
%TD*%
D13*
%TO.P,J2,1,Pin_1*%
%TO.N,+3.3V*%
X150109445Y-100330000D03*
D12*
%TO.P,J2,2,Pin_2*%
%TO.N,Net-(A1-A0)*%
X150109445Y-97790000D03*
%TD*%
%TO.P,J7,3,Pin_3*%
%TO.N,GND*%
X143510000Y-134620000D03*
%TO.P,J7,2,Pin_2*%
%TO.N,Net-(A1-D2)*%
X143510000Y-132080000D03*
D13*
%TO.P,J7,1,Pin_1*%
%TO.N,+BATT*%
X143510000Y-129540000D03*
%TD*%
D14*
%TO.P,R5,2*%
%TO.N,GND*%
X140584445Y-121285000D03*
D11*
%TO.P,R5,1*%
%TO.N,Net-(A1-A1)*%
X140584445Y-113665000D03*
%TD*%
D14*
%TO.P,R4,2*%
%TO.N,GND*%
X144394445Y-121285000D03*
D11*
%TO.P,R4,1*%
%TO.N,Net-(A1-A2)*%
X144394445Y-113665000D03*
%TD*%
D15*
%TO.N,Net-(A1-D2)*%
X152555000Y-130655000D02*
X151130000Y-132080000D01*
X152555000Y-128860255D02*
X152555000Y-130655000D01*
X153139445Y-111377500D02*
X153139445Y-128275810D01*
X153139445Y-128275810D02*
X152555000Y-128860255D01*
X156566945Y-107950000D02*
X153139445Y-111377500D01*
%TO.N,Net-(A1-A0)*%
X146050000Y-113665000D02*
X148204445Y-113665000D01*
X139459445Y-122517500D02*
X139459445Y-120255555D01*
X139459445Y-120255555D02*
X146050000Y-113665000D01*
X136246945Y-125730000D02*
X139459445Y-122517500D01*
%TO.N,Net-(A1-A2)*%
X137409445Y-120650000D02*
X144394445Y-113665000D01*
X136246945Y-120650000D02*
X137409445Y-120650000D01*
%TO.N,Net-(A1-A1)*%
X135121945Y-115104009D02*
X135121945Y-122065000D01*
X135925954Y-114300000D02*
X135121945Y-115104009D01*
X139949445Y-114300000D02*
X135925954Y-114300000D01*
X135121945Y-122065000D02*
X136246945Y-123190000D01*
X140584445Y-113665000D02*
X139949445Y-114300000D01*
%TO.N,Net-(A1-A5)*%
X148684445Y-103350000D02*
X150109445Y-104775000D01*
X138430000Y-104986297D02*
X140066297Y-103350000D01*
X140066297Y-103350000D02*
X148684445Y-103350000D01*
X138430000Y-110846945D02*
X138430000Y-104986297D01*
X136246945Y-113030000D02*
X138430000Y-110846945D01*
%TO.N,+BATT*%
X151130000Y-134620000D02*
X148590000Y-134620000D01*
X148590000Y-134620000D02*
X143510000Y-129540000D01*
%TD*%
%TA.AperFunction,Conductor*%
%TO.N,GND*%
G36*
X155734022Y-88274397D02*
G01*
X155934949Y-88283174D01*
X155939874Y-88283588D01*
X156154014Y-88310280D01*
X156356330Y-88336915D01*
X156360920Y-88337697D01*
X156572216Y-88382001D01*
X156771561Y-88426194D01*
X156775785Y-88427289D01*
X156975503Y-88486748D01*
X156982795Y-88488919D01*
X157177724Y-88550379D01*
X157181553Y-88551728D01*
X157382846Y-88630272D01*
X157571835Y-88708554D01*
X157575275Y-88710105D01*
X157769557Y-88805084D01*
X157951064Y-88899570D01*
X157954145Y-88901289D01*
X158139995Y-89012031D01*
X158312736Y-89122079D01*
X158315379Y-89123862D01*
X158410631Y-89191870D01*
X158491572Y-89249661D01*
X158654171Y-89374427D01*
X158656483Y-89376291D01*
X158821762Y-89516275D01*
X158973954Y-89655734D01*
X159128158Y-89809937D01*
X159267615Y-89962127D01*
X159407599Y-90127405D01*
X159409461Y-90129713D01*
X159495047Y-90241251D01*
X159534219Y-90292301D01*
X159660004Y-90468473D01*
X159661836Y-90471188D01*
X159771862Y-90643894D01*
X159807160Y-90703131D01*
X159882606Y-90829744D01*
X159884328Y-90832833D01*
X159978824Y-91014360D01*
X160073775Y-91208584D01*
X160075355Y-91212089D01*
X160153616Y-91401027D01*
X160232153Y-91602299D01*
X160233525Y-91606194D01*
X160294977Y-91801095D01*
X160356597Y-92008072D01*
X160357705Y-92012345D01*
X160401890Y-92211646D01*
X160446200Y-92422972D01*
X160446990Y-92427605D01*
X160473606Y-92629785D01*
X160500306Y-92843989D01*
X160500723Y-92848955D01*
X160509591Y-93052024D01*
X160518390Y-93264764D01*
X160518390Y-150574999D01*
X160509312Y-150794459D01*
X160500744Y-150990795D01*
X160500327Y-150995763D01*
X160473233Y-151213126D01*
X160447035Y-151412129D01*
X160446245Y-151416762D01*
X160401524Y-151630049D01*
X160357776Y-151827382D01*
X160356668Y-151831654D01*
X160294611Y-152040101D01*
X160233624Y-152233523D01*
X160232252Y-152237417D01*
X160153257Y-152439865D01*
X160075486Y-152627618D01*
X160073906Y-152631122D01*
X159985576Y-152811806D01*
X159978642Y-152825992D01*
X159978472Y-152826339D01*
X159884501Y-153006852D01*
X159882768Y-153009961D01*
X159771515Y-153196668D01*
X159662047Y-153368499D01*
X159660215Y-153371214D01*
X159533884Y-153548151D01*
X159409737Y-153709940D01*
X159407861Y-153712267D01*
X159267288Y-153878243D01*
X159128466Y-154029740D01*
X158973633Y-154184573D01*
X158822139Y-154323392D01*
X158656172Y-154463959D01*
X158653844Y-154465836D01*
X158492039Y-154589993D01*
X158315125Y-154716307D01*
X158312410Y-154718139D01*
X158140553Y-154827624D01*
X157953846Y-154938875D01*
X157950737Y-154940609D01*
X157770242Y-155034568D01*
X157575022Y-155130007D01*
X157571517Y-155131587D01*
X157383767Y-155209356D01*
X157181290Y-155288361D01*
X157177396Y-155289733D01*
X156984003Y-155350710D01*
X156775547Y-155412769D01*
X156771274Y-155413877D01*
X156573893Y-155457636D01*
X156360668Y-155502343D01*
X156356036Y-155503132D01*
X156156938Y-155529345D01*
X155939651Y-155556428D01*
X155934685Y-155556845D01*
X155740494Y-155565324D01*
X155561600Y-155572723D01*
X155518890Y-155574490D01*
X155518653Y-155574500D01*
X137080000Y-155574500D01*
X136862728Y-155565513D01*
X136664080Y-155556839D01*
X136659114Y-155556422D01*
X136443319Y-155529524D01*
X136242733Y-155503115D01*
X136238101Y-155502326D01*
X136025826Y-155457818D01*
X135827472Y-155413843D01*
X135823200Y-155412735D01*
X135615496Y-155350899D01*
X135421340Y-155289681D01*
X135417445Y-155288309D01*
X135215566Y-155209536D01*
X135027229Y-155131524D01*
X135023744Y-155129953D01*
X134964503Y-155100992D01*
X134829007Y-155034750D01*
X134648000Y-154940525D01*
X134644891Y-154938791D01*
X134458617Y-154827797D01*
X134286335Y-154718040D01*
X134283621Y-154716209D01*
X134107081Y-154590162D01*
X133944900Y-154465716D01*
X133942572Y-154463839D01*
X133776940Y-154323557D01*
X133776760Y-154323392D01*
X133625103Y-154184424D01*
X133470574Y-154029895D01*
X133331439Y-153878055D01*
X133191159Y-153712426D01*
X133189282Y-153710098D01*
X133064837Y-153547918D01*
X132938789Y-153371377D01*
X132936957Y-153368662D01*
X132827202Y-153196382D01*
X132716207Y-153010107D01*
X132714473Y-153006998D01*
X132620249Y-152825992D01*
X132561755Y-152706343D01*
X132525045Y-152631252D01*
X132523494Y-152627817D01*
X132445472Y-152439457D01*
X132366680Y-152237530D01*
X132365317Y-152233658D01*
X132304112Y-152039544D01*
X132242257Y-151831778D01*
X132241155Y-151827526D01*
X132197375Y-151630049D01*
X132197175Y-151629145D01*
X132191495Y-151602057D01*
X132152671Y-151416894D01*
X132151883Y-151412265D01*
X132151313Y-151407940D01*
X132125489Y-151211792D01*
X132098574Y-150995865D01*
X132098160Y-150990934D01*
X132089488Y-150792318D01*
X132080500Y-150575000D01*
X132080500Y-150574500D01*
X132080500Y-146562870D01*
X139936445Y-146562870D01*
X139936446Y-146562876D01*
X139942853Y-146622483D01*
X139993147Y-146757328D01*
X139993151Y-146757335D01*
X140079397Y-146872544D01*
X140079400Y-146872547D01*
X140194609Y-146958793D01*
X140194616Y-146958797D01*
X140329462Y-147009091D01*
X140329461Y-147009091D01*
X140336389Y-147009835D01*
X140389072Y-147015500D01*
X141097130Y-147015499D01*
X141164167Y-147035183D01*
X141209922Y-147087987D01*
X141219866Y-147157146D01*
X141190841Y-147220702D01*
X141163101Y-147244492D01*
X141034684Y-147325182D01*
X140907129Y-147452737D01*
X140811156Y-147605476D01*
X140751576Y-147775745D01*
X140751575Y-147775750D01*
X140731380Y-147954996D01*
X140731380Y-147955003D01*
X140751575Y-148134249D01*
X140751576Y-148134254D01*
X140811156Y-148304523D01*
X140907128Y-148457262D01*
X140907129Y-148457262D01*
X141034683Y-148584816D01*
X141187423Y-148680789D01*
X141357690Y-148740367D01*
X141357690Y-148740368D01*
X141357695Y-148740369D01*
X141448191Y-148750565D01*
X141491985Y-148755499D01*
X141491988Y-148755500D01*
X141491991Y-148755500D01*
X141581902Y-148755500D01*
X141581903Y-148755499D01*
X141649049Y-148747933D01*
X141716194Y-148740369D01*
X141716197Y-148740368D01*
X141716200Y-148740368D01*
X141886467Y-148680789D01*
X142039207Y-148584816D01*
X142166761Y-148457262D01*
X142262734Y-148304522D01*
X142322313Y-148134255D01*
X142342510Y-147955000D01*
X142322313Y-147775745D01*
X142262734Y-147605478D01*
X142166761Y-147452738D01*
X142039207Y-147325184D01*
X141910787Y-147244492D01*
X141864497Y-147192158D01*
X141853849Y-147123105D01*
X141882224Y-147059256D01*
X141940614Y-147020884D01*
X141976757Y-147015499D01*
X142684817Y-147015499D01*
X142744428Y-147009091D01*
X142879276Y-146958796D01*
X142994491Y-146872546D01*
X143052174Y-146795491D01*
X143108106Y-146753622D01*
X143177798Y-146748638D01*
X143216229Y-146764077D01*
X143348313Y-146845019D01*
X143580988Y-146941396D01*
X143745798Y-146980963D01*
X143806390Y-147015754D01*
X143838554Y-147077780D01*
X143832078Y-147147349D01*
X143789019Y-147202373D01*
X143757807Y-147218578D01*
X143727424Y-147229209D01*
X143574682Y-147325184D01*
X143447129Y-147452737D01*
X143351156Y-147605476D01*
X143291576Y-147775745D01*
X143291575Y-147775750D01*
X143271380Y-147954996D01*
X143271380Y-147955003D01*
X143291575Y-148134249D01*
X143291576Y-148134254D01*
X143351156Y-148304523D01*
X143447128Y-148457261D01*
X143447129Y-148457262D01*
X143574683Y-148584816D01*
X143727423Y-148680789D01*
X143897689Y-148740367D01*
X143897690Y-148740368D01*
X143897695Y-148740369D01*
X143988191Y-148750565D01*
X144031985Y-148755499D01*
X144031988Y-148755500D01*
X144031991Y-148755500D01*
X144121902Y-148755500D01*
X144121903Y-148755499D01*
X144189049Y-148747933D01*
X144256194Y-148740369D01*
X144256197Y-148740368D01*
X144256200Y-148740368D01*
X144426467Y-148680789D01*
X144579207Y-148584816D01*
X144706761Y-148457262D01*
X144802734Y-148304522D01*
X144862313Y-148134255D01*
X144882510Y-147955000D01*
X144862313Y-147775745D01*
X144802734Y-147605478D01*
X144706761Y-147452738D01*
X144579207Y-147325184D01*
X144426467Y-147229211D01*
X144426464Y-147229209D01*
X144396083Y-147218578D01*
X144339307Y-147177856D01*
X144313560Y-147112904D01*
X144327016Y-147044342D01*
X144375404Y-146993939D01*
X144408091Y-146980963D01*
X144572901Y-146941396D01*
X144805576Y-146845019D01*
X145020305Y-146713432D01*
X145020316Y-146713424D01*
X145021124Y-146712732D01*
X144871262Y-146562870D01*
X146921445Y-146562870D01*
X146921446Y-146562876D01*
X146927853Y-146622483D01*
X146978147Y-146757328D01*
X146978151Y-146757335D01*
X147064397Y-146872544D01*
X147064400Y-146872547D01*
X147179609Y-146958793D01*
X147179616Y-146958797D01*
X147314462Y-147009091D01*
X147314461Y-147009091D01*
X147321389Y-147009835D01*
X147374072Y-147015500D01*
X148082130Y-147015499D01*
X148149167Y-147035183D01*
X148194922Y-147087987D01*
X148204866Y-147157146D01*
X148175841Y-147220702D01*
X148148101Y-147244492D01*
X148019684Y-147325182D01*
X147892129Y-147452737D01*
X147796156Y-147605476D01*
X147736576Y-147775745D01*
X147736575Y-147775750D01*
X147716380Y-147954996D01*
X147716380Y-147955003D01*
X147736575Y-148134249D01*
X147736576Y-148134254D01*
X147796156Y-148304523D01*
X147892128Y-148457261D01*
X147892129Y-148457262D01*
X148019683Y-148584816D01*
X148172423Y-148680789D01*
X148342690Y-148740367D01*
X148342690Y-148740368D01*
X148342695Y-148740369D01*
X148433191Y-148750565D01*
X148476985Y-148755499D01*
X148476988Y-148755500D01*
X148476991Y-148755500D01*
X148566902Y-148755500D01*
X148566903Y-148755499D01*
X148634049Y-148747934D01*
X148701194Y-148740369D01*
X148701197Y-148740368D01*
X148701200Y-148740368D01*
X148871467Y-148680789D01*
X149024207Y-148584816D01*
X149151761Y-148457262D01*
X149247734Y-148304522D01*
X149307313Y-148134255D01*
X149327510Y-147955000D01*
X149307313Y-147775745D01*
X149247734Y-147605478D01*
X149151761Y-147452738D01*
X149024207Y-147325184D01*
X148895787Y-147244492D01*
X148849497Y-147192158D01*
X148838849Y-147123105D01*
X148867224Y-147059256D01*
X148925614Y-147020884D01*
X148961757Y-147015499D01*
X149669817Y-147015499D01*
X149729428Y-147009091D01*
X149864276Y-146958796D01*
X149979491Y-146872546D01*
X150037174Y-146795491D01*
X150093106Y-146753622D01*
X150162798Y-146748638D01*
X150201229Y-146764077D01*
X150333313Y-146845019D01*
X150565988Y-146941396D01*
X150730798Y-146980963D01*
X150791390Y-147015754D01*
X150823554Y-147077780D01*
X150817078Y-147147349D01*
X150774019Y-147202373D01*
X150742807Y-147218578D01*
X150712424Y-147229209D01*
X150559682Y-147325184D01*
X150432129Y-147452737D01*
X150336156Y-147605476D01*
X150276576Y-147775745D01*
X150276575Y-147775750D01*
X150256380Y-147954996D01*
X150256380Y-147955003D01*
X150276575Y-148134249D01*
X150276576Y-148134254D01*
X150336156Y-148304523D01*
X150432128Y-148457261D01*
X150432129Y-148457262D01*
X150559683Y-148584816D01*
X150712423Y-148680789D01*
X150882690Y-148740367D01*
X150882690Y-148740368D01*
X150882695Y-148740369D01*
X150973191Y-148750565D01*
X151016985Y-148755499D01*
X151016988Y-148755500D01*
X151016991Y-148755500D01*
X151106902Y-148755500D01*
X151106903Y-148755499D01*
X151174049Y-148747934D01*
X151241194Y-148740369D01*
X151241197Y-148740368D01*
X151241200Y-148740368D01*
X151411467Y-148680789D01*
X151564207Y-148584816D01*
X151691761Y-148457262D01*
X151787734Y-148304522D01*
X151847313Y-148134255D01*
X151867510Y-147955000D01*
X151847313Y-147775745D01*
X151787734Y-147605478D01*
X151691761Y-147452738D01*
X151564207Y-147325184D01*
X151411467Y-147229211D01*
X151411464Y-147229209D01*
X151381083Y-147218578D01*
X151324307Y-147177856D01*
X151298560Y-147112904D01*
X151312016Y-147044342D01*
X151360404Y-146993939D01*
X151393091Y-146980963D01*
X151557901Y-146941396D01*
X151790576Y-146845019D01*
X152005305Y-146713432D01*
X152005316Y-146713424D01*
X152006124Y-146712732D01*
X151355110Y-146061718D01*
X151321625Y-146000395D01*
X151326609Y-145930703D01*
X151364533Y-145877853D01*
X151467684Y-145793934D01*
X151517997Y-145722655D01*
X151572738Y-145679239D01*
X151642263Y-145672309D01*
X151704498Y-145704067D01*
X151706982Y-145706483D01*
X152359677Y-146359179D01*
X152360369Y-146358371D01*
X152360377Y-146358360D01*
X152491964Y-146143631D01*
X152588341Y-145910956D01*
X152647132Y-145666072D01*
X152666892Y-145415000D01*
X152647132Y-145163927D01*
X152588341Y-144919043D01*
X152491964Y-144686368D01*
X152360377Y-144471638D01*
X152360375Y-144471636D01*
X152359677Y-144470819D01*
X152359676Y-144470819D01*
X151710462Y-145120034D01*
X151649139Y-145153519D01*
X151579447Y-145148535D01*
X151523514Y-145106663D01*
X151520431Y-145101750D01*
X151520396Y-145101775D01*
X151515503Y-145094843D01*
X151412305Y-144984346D01*
X151412303Y-144984345D01*
X151377245Y-144963026D01*
X151330193Y-144911375D01*
X151318535Y-144842485D01*
X151345972Y-144778228D01*
X151353992Y-144769397D01*
X152006123Y-144117266D01*
X152006123Y-144117264D01*
X152005319Y-144116577D01*
X152005303Y-144116566D01*
X151790576Y-143984980D01*
X151557901Y-143888603D01*
X151313017Y-143829812D01*
X151061944Y-143810052D01*
X150810872Y-143829812D01*
X150565988Y-143888603D01*
X150333318Y-143984978D01*
X150201229Y-144065923D01*
X150133783Y-144084167D01*
X150067180Y-144063051D01*
X150037173Y-144034506D01*
X149979492Y-143957455D01*
X149979489Y-143957452D01*
X149864280Y-143871206D01*
X149864273Y-143871202D01*
X149729427Y-143820908D01*
X149729428Y-143820908D01*
X149669828Y-143814501D01*
X149669826Y-143814500D01*
X149669818Y-143814500D01*
X149669809Y-143814500D01*
X147374074Y-143814500D01*
X147374068Y-143814501D01*
X147314461Y-143820908D01*
X147179616Y-143871202D01*
X147179609Y-143871206D01*
X147064400Y-143957452D01*
X147064397Y-143957455D01*
X146978151Y-144072664D01*
X146978147Y-144072671D01*
X146927853Y-144207517D01*
X146921446Y-144267116D01*
X146921445Y-144267135D01*
X146921445Y-146562870D01*
X144871262Y-146562870D01*
X144370110Y-146061718D01*
X144336625Y-146000395D01*
X144341609Y-145930703D01*
X144379533Y-145877853D01*
X144482684Y-145793934D01*
X144532997Y-145722655D01*
X144587738Y-145679239D01*
X144657263Y-145672309D01*
X144719498Y-145704067D01*
X144721982Y-145706483D01*
X145374677Y-146359179D01*
X145375369Y-146358371D01*
X145375377Y-146358360D01*
X145506964Y-146143631D01*
X145603341Y-145910956D01*
X145662132Y-145666072D01*
X145681892Y-145415000D01*
X145662132Y-145163927D01*
X145603341Y-144919043D01*
X145506964Y-144686368D01*
X145375377Y-144471638D01*
X145375375Y-144471636D01*
X145374677Y-144470819D01*
X144725462Y-145120034D01*
X144664139Y-145153519D01*
X144594447Y-145148535D01*
X144538514Y-145106663D01*
X144535431Y-145101750D01*
X144535396Y-145101775D01*
X144530503Y-145094843D01*
X144427305Y-144984346D01*
X144427303Y-144984345D01*
X144392245Y-144963026D01*
X144345193Y-144911375D01*
X144333535Y-144842485D01*
X144360972Y-144778228D01*
X144368992Y-144769397D01*
X145021123Y-144117266D01*
X145021123Y-144117264D01*
X145020319Y-144116577D01*
X145020303Y-144116566D01*
X144805576Y-143984980D01*
X144572901Y-143888603D01*
X144328017Y-143829812D01*
X144076945Y-143810052D01*
X143825872Y-143829812D01*
X143580988Y-143888603D01*
X143348318Y-143984978D01*
X143216229Y-144065923D01*
X143148783Y-144084167D01*
X143082180Y-144063051D01*
X143052173Y-144034506D01*
X142994492Y-143957455D01*
X142994489Y-143957452D01*
X142879280Y-143871206D01*
X142879273Y-143871202D01*
X142744427Y-143820908D01*
X142744428Y-143820908D01*
X142684828Y-143814501D01*
X142684826Y-143814500D01*
X142684818Y-143814500D01*
X142684809Y-143814500D01*
X140389074Y-143814500D01*
X140389068Y-143814501D01*
X140329461Y-143820908D01*
X140194616Y-143871202D01*
X140194609Y-143871206D01*
X140079400Y-143957452D01*
X140079397Y-143957455D01*
X139993151Y-144072664D01*
X139993147Y-144072671D01*
X139942853Y-144207517D01*
X139936446Y-144267116D01*
X139936445Y-144267135D01*
X139936445Y-146562870D01*
X132080500Y-146562870D01*
X132080500Y-115084204D01*
X134491785Y-115084204D01*
X134496170Y-115130592D01*
X134496445Y-115136430D01*
X134496445Y-121982255D01*
X134494720Y-121997872D01*
X134495006Y-121997899D01*
X134494271Y-122005665D01*
X134496445Y-122074814D01*
X134496445Y-122104343D01*
X134496446Y-122104360D01*
X134497313Y-122111231D01*
X134497771Y-122117050D01*
X134499235Y-122163624D01*
X134499236Y-122163627D01*
X134504825Y-122182867D01*
X134508769Y-122201911D01*
X134511281Y-122221791D01*
X134528435Y-122265119D01*
X134530327Y-122270647D01*
X134543326Y-122315388D01*
X134553525Y-122332634D01*
X134562083Y-122350103D01*
X134569459Y-122368732D01*
X134596843Y-122406423D01*
X134600051Y-122411307D01*
X134623772Y-122451416D01*
X134623778Y-122451424D01*
X134637935Y-122465580D01*
X134650573Y-122480376D01*
X134662350Y-122496586D01*
X134662351Y-122496587D01*
X134698254Y-122526288D01*
X134702565Y-122530210D01*
X134893094Y-122720740D01*
X134947531Y-122775177D01*
X134981016Y-122836500D01*
X134979625Y-122894949D01*
X134961312Y-122963296D01*
X134961309Y-122963313D01*
X134941477Y-123189999D01*
X134941477Y-123190001D01*
X134961309Y-123416686D01*
X134961311Y-123416697D01*
X135020203Y-123636488D01*
X135020206Y-123636497D01*
X135116376Y-123842732D01*
X135116377Y-123842734D01*
X135246899Y-124029141D01*
X135407803Y-124190045D01*
X135407806Y-124190047D01*
X135594211Y-124320568D01*
X135652220Y-124347618D01*
X135704659Y-124393791D01*
X135723811Y-124460984D01*
X135703595Y-124527865D01*
X135652220Y-124572382D01*
X135594212Y-124599431D01*
X135594210Y-124599432D01*
X135407803Y-124729954D01*
X135246899Y-124890858D01*
X135116377Y-125077265D01*
X135116376Y-125077267D01*
X135020206Y-125283502D01*
X135020203Y-125283511D01*
X134961311Y-125503302D01*
X134961309Y-125503313D01*
X134941477Y-125729998D01*
X134941477Y-125730001D01*
X134961309Y-125956686D01*
X134961311Y-125956697D01*
X135020203Y-126176488D01*
X135020206Y-126176497D01*
X135116376Y-126382732D01*
X135116377Y-126382734D01*
X135246899Y-126569141D01*
X135407803Y-126730045D01*
X135407806Y-126730047D01*
X135594211Y-126860568D01*
X135652810Y-126887893D01*
X135705250Y-126934065D01*
X135724402Y-127001258D01*
X135704187Y-127068139D01*
X135652812Y-127112657D01*
X135594456Y-127139869D01*
X135521471Y-127190973D01*
X136063078Y-127732580D01*
X136096563Y-127793903D01*
X136091579Y-127863595D01*
X136049707Y-127919528D01*
X136031693Y-127930745D01*
X136008901Y-127942358D01*
X136008894Y-127942363D01*
X135919308Y-128031949D01*
X135919303Y-128031956D01*
X135907690Y-128054748D01*
X135859715Y-128105544D01*
X135791894Y-128122338D01*
X135725759Y-128099800D01*
X135709525Y-128086133D01*
X135167918Y-127544526D01*
X135116813Y-127617513D01*
X135020679Y-127823673D01*
X135020675Y-127823682D01*
X134961805Y-128043389D01*
X134961803Y-128043400D01*
X134941979Y-128269997D01*
X134941979Y-128270002D01*
X134961803Y-128496599D01*
X134961805Y-128496610D01*
X135020675Y-128716317D01*
X135020679Y-128716326D01*
X135116810Y-128922481D01*
X135116811Y-128922483D01*
X135167918Y-128995471D01*
X135167918Y-128995472D01*
X135709525Y-128453865D01*
X135770848Y-128420380D01*
X135840539Y-128425364D01*
X135896473Y-128467235D01*
X135907687Y-128485246D01*
X135909943Y-128489673D01*
X135919303Y-128508044D01*
X135919308Y-128508050D01*
X136008894Y-128597636D01*
X136008896Y-128597637D01*
X136008900Y-128597641D01*
X136031692Y-128609254D01*
X136082487Y-128657228D01*
X136099282Y-128725049D01*
X136076744Y-128791184D01*
X136063077Y-128807419D01*
X135521471Y-129349025D01*
X135521471Y-129349026D01*
X135594457Y-129400131D01*
X135594465Y-129400135D01*
X135652810Y-129427342D01*
X135705250Y-129473514D01*
X135724402Y-129540707D01*
X135704187Y-129607589D01*
X135652812Y-129652105D01*
X135594211Y-129679432D01*
X135594209Y-129679433D01*
X135407803Y-129809954D01*
X135246899Y-129970858D01*
X135116377Y-130157265D01*
X135116376Y-130157267D01*
X135020206Y-130363502D01*
X135020203Y-130363511D01*
X134961311Y-130583302D01*
X134961309Y-130583313D01*
X134941477Y-130809998D01*
X134941477Y-130810001D01*
X134961309Y-131036686D01*
X134961311Y-131036697D01*
X135020203Y-131256488D01*
X135020206Y-131256497D01*
X135116376Y-131462732D01*
X135116377Y-131462734D01*
X135246899Y-131649141D01*
X135407803Y-131810045D01*
X135407806Y-131810047D01*
X135594211Y-131940568D01*
X135652220Y-131967618D01*
X135704659Y-132013791D01*
X135723811Y-132080984D01*
X135703595Y-132147865D01*
X135652220Y-132192382D01*
X135594212Y-132219431D01*
X135594210Y-132219432D01*
X135407803Y-132349954D01*
X135246899Y-132510858D01*
X135116377Y-132697265D01*
X135116376Y-132697267D01*
X135020206Y-132903502D01*
X135020203Y-132903511D01*
X134961311Y-133123302D01*
X134961309Y-133123313D01*
X134941477Y-133349998D01*
X134941477Y-133350001D01*
X134961309Y-133576686D01*
X134961311Y-133576697D01*
X135020203Y-133796488D01*
X135020206Y-133796497D01*
X135116376Y-134002732D01*
X135116377Y-134002734D01*
X135246899Y-134189141D01*
X135407803Y-134350045D01*
X135432407Y-134367273D01*
X135476032Y-134421849D01*
X135483226Y-134491348D01*
X135451703Y-134553703D01*
X135391474Y-134589117D01*
X135374538Y-134592138D01*
X135339461Y-134595908D01*
X135204616Y-134646202D01*
X135204609Y-134646206D01*
X135089400Y-134732452D01*
X135089397Y-134732455D01*
X135003151Y-134847664D01*
X135003147Y-134847671D01*
X134952853Y-134982517D01*
X134948622Y-135021877D01*
X134946446Y-135042123D01*
X134946445Y-135042135D01*
X134946445Y-136737870D01*
X134946446Y-136737876D01*
X134952853Y-136797483D01*
X135003147Y-136932328D01*
X135003151Y-136932335D01*
X135089397Y-137047544D01*
X135089400Y-137047547D01*
X135204609Y-137133793D01*
X135204616Y-137133797D01*
X135339462Y-137184091D01*
X135339461Y-137184091D01*
X135346389Y-137184835D01*
X135399072Y-137190500D01*
X137094817Y-137190499D01*
X137154428Y-137184091D01*
X137289276Y-137133796D01*
X137404491Y-137047546D01*
X137490741Y-136932331D01*
X137541036Y-136797483D01*
X137547445Y-136737873D01*
X137547444Y-135042128D01*
X137541036Y-134982517D01*
X137536189Y-134969522D01*
X137490742Y-134847671D01*
X137490738Y-134847664D01*
X137404492Y-134732455D01*
X137404489Y-134732452D01*
X137289280Y-134646206D01*
X137289273Y-134646202D01*
X137219029Y-134620003D01*
X140164435Y-134620003D01*
X140184630Y-134799249D01*
X140184631Y-134799254D01*
X140244211Y-134969523D01*
X140323785Y-135096163D01*
X140340184Y-135122262D01*
X140467738Y-135249816D01*
X140558080Y-135306582D01*
X140576234Y-135317989D01*
X140620478Y-135345789D01*
X140790745Y-135405367D01*
X140790745Y-135405368D01*
X140790750Y-135405369D01*
X140881246Y-135415565D01*
X140925040Y-135420499D01*
X140925043Y-135420500D01*
X140925046Y-135420500D01*
X141014957Y-135420500D01*
X141014958Y-135420499D01*
X141082104Y-135412934D01*
X141149249Y-135405369D01*
X141149252Y-135405368D01*
X141149255Y-135405368D01*
X141319522Y-135345789D01*
X141472262Y-135249816D01*
X141599816Y-135122262D01*
X141695789Y-134969522D01*
X141706419Y-134939141D01*
X141747140Y-134882364D01*
X141812092Y-134856615D01*
X141880654Y-134870070D01*
X141931058Y-134918456D01*
X141944036Y-134951146D01*
X141983603Y-135115956D01*
X142079980Y-135348631D01*
X142211566Y-135563358D01*
X142211577Y-135563374D01*
X142212264Y-135564178D01*
X142212266Y-135564178D01*
X142861481Y-134914963D01*
X142922804Y-134881478D01*
X142992495Y-134886462D01*
X143048429Y-134928333D01*
X143051514Y-134933249D01*
X143051549Y-134933225D01*
X143056441Y-134940156D01*
X143127153Y-135015869D01*
X143159638Y-135050652D01*
X143194698Y-135071973D01*
X143241749Y-135123623D01*
X143253407Y-135192513D01*
X143225970Y-135256770D01*
X143217950Y-135265601D01*
X142565819Y-135917731D01*
X142565819Y-135917732D01*
X142566636Y-135918430D01*
X142566638Y-135918432D01*
X142781368Y-136050019D01*
X143014043Y-136146396D01*
X143258927Y-136205187D01*
X143510000Y-136224947D01*
X143761072Y-136205187D01*
X144005956Y-136146396D01*
X144238631Y-136050019D01*
X144453360Y-135918432D01*
X144453371Y-135918424D01*
X144454179Y-135917732D01*
X143803165Y-135266718D01*
X143769680Y-135205395D01*
X143774664Y-135135703D01*
X143812588Y-135082853D01*
X143915739Y-134998934D01*
X143966052Y-134927655D01*
X144020793Y-134884239D01*
X144090318Y-134877309D01*
X144152553Y-134909067D01*
X144155037Y-134911483D01*
X144807732Y-135564179D01*
X144808424Y-135563371D01*
X144808432Y-135563360D01*
X144940019Y-135348631D01*
X145036396Y-135115956D01*
X145095187Y-134871072D01*
X145114947Y-134620000D01*
X145095187Y-134368927D01*
X145036396Y-134124043D01*
X144940019Y-133891368D01*
X144808432Y-133676638D01*
X144808430Y-133676636D01*
X144807732Y-133675819D01*
X144807731Y-133675819D01*
X144158517Y-134325034D01*
X144097194Y-134358519D01*
X144027502Y-134353535D01*
X143971569Y-134311663D01*
X143968486Y-134306750D01*
X143968451Y-134306775D01*
X143963558Y-134299843D01*
X143860360Y-134189346D01*
X143860358Y-134189345D01*
X143825300Y-134168026D01*
X143778248Y-134116375D01*
X143766590Y-134047485D01*
X143794027Y-133983228D01*
X143802047Y-133974397D01*
X144298522Y-133477922D01*
X144321407Y-133459879D01*
X144453659Y-133378836D01*
X144645224Y-133215224D01*
X144808836Y-133023659D01*
X144940466Y-132808859D01*
X145036873Y-132576111D01*
X145095683Y-132331148D01*
X145097990Y-132301827D01*
X145122872Y-132236544D01*
X145179102Y-132195072D01*
X145248827Y-132190584D01*
X145309287Y-132223877D01*
X146751092Y-133665683D01*
X148089197Y-135003788D01*
X148099022Y-135016051D01*
X148099243Y-135015869D01*
X148104214Y-135021878D01*
X148125778Y-135042127D01*
X148154635Y-135069226D01*
X148175529Y-135090120D01*
X148181011Y-135094373D01*
X148185443Y-135098157D01*
X148219418Y-135130062D01*
X148236976Y-135139714D01*
X148253233Y-135150393D01*
X148269064Y-135162673D01*
X148285996Y-135170000D01*
X148311833Y-135181182D01*
X148317077Y-135183750D01*
X148357908Y-135206197D01*
X148370523Y-135209435D01*
X148377305Y-135211177D01*
X148395719Y-135217481D01*
X148414104Y-135225438D01*
X148460157Y-135232732D01*
X148465826Y-135233906D01*
X148510981Y-135245500D01*
X148531016Y-135245500D01*
X148550413Y-135247026D01*
X148570196Y-135250160D01*
X148616583Y-135245775D01*
X148622422Y-135245500D01*
X149405501Y-135245500D01*
X149472540Y-135265185D01*
X149518295Y-135317989D01*
X149529501Y-135369500D01*
X149529501Y-135767876D01*
X149535908Y-135827483D01*
X149586202Y-135962328D01*
X149586206Y-135962335D01*
X149672452Y-136077544D01*
X149672455Y-136077547D01*
X149787664Y-136163793D01*
X149787671Y-136163797D01*
X149922517Y-136214091D01*
X149922516Y-136214091D01*
X149929444Y-136214835D01*
X149982127Y-136220500D01*
X152277872Y-136220499D01*
X152337483Y-136214091D01*
X152472331Y-136163796D01*
X152587546Y-136077546D01*
X152673796Y-135962331D01*
X152724091Y-135827483D01*
X152730500Y-135767873D01*
X152730499Y-135059813D01*
X152750183Y-134992777D01*
X152802987Y-134947022D01*
X152872146Y-134937078D01*
X152935702Y-134966103D01*
X152959492Y-134993844D01*
X153040179Y-135122256D01*
X153040184Y-135122262D01*
X153167738Y-135249816D01*
X153258080Y-135306582D01*
X153276234Y-135317989D01*
X153320478Y-135345789D01*
X153490744Y-135405367D01*
X153490745Y-135405368D01*
X153490750Y-135405369D01*
X153581246Y-135415565D01*
X153625040Y-135420499D01*
X153625043Y-135420500D01*
X153625046Y-135420500D01*
X153714957Y-135420500D01*
X153714958Y-135420499D01*
X153782104Y-135412934D01*
X153849249Y-135405369D01*
X153849252Y-135405368D01*
X153849255Y-135405368D01*
X154019522Y-135345789D01*
X154172262Y-135249816D01*
X154299816Y-135122262D01*
X154395789Y-134969522D01*
X154455368Y-134799255D01*
X154455369Y-134799249D01*
X154475565Y-134620003D01*
X154475565Y-134619996D01*
X154455369Y-134440750D01*
X154455368Y-134440745D01*
X154414879Y-134325034D01*
X154395789Y-134270478D01*
X154380506Y-134246156D01*
X154344810Y-134189345D01*
X154299816Y-134117738D01*
X154172262Y-133990184D01*
X154161192Y-133983228D01*
X154019523Y-133894211D01*
X153849254Y-133834631D01*
X153849249Y-133834630D01*
X153714960Y-133819500D01*
X153714954Y-133819500D01*
X153625046Y-133819500D01*
X153625039Y-133819500D01*
X153490750Y-133834630D01*
X153490745Y-133834631D01*
X153320476Y-133894211D01*
X153167737Y-133990184D01*
X153040184Y-134117737D01*
X153040179Y-134117743D01*
X152959492Y-134246156D01*
X152907158Y-134292447D01*
X152838104Y-134303095D01*
X152774256Y-134274720D01*
X152735884Y-134216330D01*
X152730499Y-134180184D01*
X152730499Y-133472129D01*
X152730498Y-133472123D01*
X152730497Y-133472116D01*
X152724091Y-133412517D01*
X152711529Y-133378837D01*
X152673797Y-133277671D01*
X152673793Y-133277664D01*
X152587547Y-133162455D01*
X152510894Y-133105072D01*
X152469024Y-133049138D01*
X152464040Y-132979446D01*
X152479476Y-132941021D01*
X152560466Y-132808859D01*
X152656873Y-132576111D01*
X152696268Y-132412016D01*
X152731058Y-132351425D01*
X152793085Y-132319261D01*
X152862654Y-132325737D01*
X152917678Y-132368796D01*
X152933884Y-132400010D01*
X152944210Y-132429521D01*
X152995318Y-132510858D01*
X153040184Y-132582262D01*
X153167738Y-132709816D01*
X153320478Y-132805789D01*
X153329252Y-132808859D01*
X153490745Y-132865368D01*
X153490750Y-132865369D01*
X153581246Y-132875565D01*
X153625040Y-132880499D01*
X153625043Y-132880500D01*
X153625046Y-132880500D01*
X153714957Y-132880500D01*
X153714958Y-132880499D01*
X153782104Y-132872934D01*
X153849249Y-132865369D01*
X153849252Y-132865368D01*
X153849255Y-132865368D01*
X154019522Y-132805789D01*
X154172262Y-132709816D01*
X154299816Y-132582262D01*
X154395789Y-132429522D01*
X154455368Y-132259255D01*
X154459855Y-132219431D01*
X154475565Y-132080003D01*
X154475565Y-132079996D01*
X154455369Y-131900750D01*
X154455368Y-131900745D01*
X154434371Y-131840738D01*
X154395789Y-131730478D01*
X154299816Y-131577738D01*
X154172262Y-131450184D01*
X154127317Y-131421943D01*
X154019523Y-131354211D01*
X153849254Y-131294631D01*
X153849249Y-131294630D01*
X153714960Y-131279500D01*
X153714954Y-131279500D01*
X153625046Y-131279500D01*
X153625039Y-131279500D01*
X153490750Y-131294630D01*
X153490745Y-131294631D01*
X153320476Y-131354211D01*
X153167737Y-131450184D01*
X153040184Y-131577737D01*
X152944209Y-131730479D01*
X152933883Y-131759991D01*
X152893161Y-131816766D01*
X152828208Y-131842513D01*
X152759647Y-131829056D01*
X152709244Y-131780669D01*
X152696268Y-131747982D01*
X152656874Y-131583893D01*
X152656873Y-131583892D01*
X152656873Y-131583889D01*
X152645766Y-131557076D01*
X152638297Y-131487610D01*
X152669570Y-131425130D01*
X152672618Y-131421971D01*
X152938788Y-131155801D01*
X152951042Y-131145986D01*
X152950859Y-131145764D01*
X152956866Y-131140792D01*
X152956877Y-131140786D01*
X152987775Y-131107882D01*
X153004227Y-131090364D01*
X153014671Y-131079918D01*
X153025120Y-131069471D01*
X153029379Y-131063978D01*
X153033152Y-131059561D01*
X153065062Y-131025582D01*
X153074713Y-131008024D01*
X153085396Y-130991761D01*
X153097673Y-130975936D01*
X153116185Y-130933153D01*
X153118738Y-130927941D01*
X153141197Y-130887092D01*
X153146180Y-130867680D01*
X153152481Y-130849280D01*
X153160437Y-130830896D01*
X153167729Y-130784852D01*
X153168906Y-130779171D01*
X153180500Y-130734019D01*
X153180500Y-130713983D01*
X153182027Y-130694582D01*
X153185160Y-130674804D01*
X153180775Y-130628415D01*
X153180500Y-130622577D01*
X153180500Y-130391570D01*
X153200185Y-130324531D01*
X153252989Y-130278776D01*
X153322147Y-130268832D01*
X153345455Y-130274529D01*
X153490737Y-130325366D01*
X153490743Y-130325367D01*
X153490745Y-130325368D01*
X153490746Y-130325368D01*
X153490750Y-130325369D01*
X153581246Y-130335565D01*
X153625040Y-130340499D01*
X153625043Y-130340500D01*
X153625046Y-130340500D01*
X153714957Y-130340500D01*
X153714958Y-130340499D01*
X153782104Y-130332934D01*
X153849249Y-130325369D01*
X153849252Y-130325368D01*
X153849255Y-130325368D01*
X154019522Y-130265789D01*
X154172262Y-130169816D01*
X154299816Y-130042262D01*
X154395789Y-129889522D01*
X154455368Y-129719255D01*
X154459855Y-129679432D01*
X154475565Y-129540003D01*
X154475565Y-129539996D01*
X154455369Y-129360750D01*
X154455368Y-129360745D01*
X154416097Y-129248516D01*
X154395789Y-129190478D01*
X154299816Y-129037738D01*
X154172262Y-128910184D01*
X154172262Y-128910183D01*
X154019523Y-128814211D01*
X153849252Y-128754631D01*
X153791175Y-128748087D01*
X153726762Y-128721020D01*
X153687207Y-128663425D01*
X153685070Y-128593588D01*
X153691252Y-128575637D01*
X153700625Y-128553977D01*
X153703189Y-128548741D01*
X153725642Y-128507902D01*
X153730622Y-128488501D01*
X153736923Y-128470098D01*
X153744883Y-128451706D01*
X153752175Y-128405659D01*
X153753356Y-128399962D01*
X153755366Y-128392135D01*
X153764945Y-128354829D01*
X153764945Y-128334792D01*
X153766472Y-128315392D01*
X153769605Y-128295614D01*
X153765220Y-128249225D01*
X153764945Y-128243387D01*
X153764945Y-111687951D01*
X153784630Y-111620912D01*
X153801259Y-111600275D01*
X155054128Y-110347406D01*
X155115449Y-110313923D01*
X155185141Y-110318907D01*
X155241074Y-110360779D01*
X155265491Y-110426243D01*
X155265335Y-110445895D01*
X155261477Y-110489996D01*
X155261477Y-110490001D01*
X155281309Y-110716686D01*
X155281311Y-110716697D01*
X155340203Y-110936488D01*
X155340206Y-110936497D01*
X155436376Y-111142732D01*
X155436377Y-111142734D01*
X155566899Y-111329141D01*
X155727803Y-111490045D01*
X155727806Y-111490047D01*
X155914211Y-111620568D01*
X155972220Y-111647618D01*
X156024659Y-111693791D01*
X156043811Y-111760984D01*
X156023595Y-111827865D01*
X155972220Y-111872382D01*
X155914212Y-111899431D01*
X155914210Y-111899432D01*
X155727803Y-112029954D01*
X155566899Y-112190858D01*
X155436377Y-112377265D01*
X155436376Y-112377267D01*
X155340206Y-112583502D01*
X155340203Y-112583511D01*
X155281311Y-112803302D01*
X155281309Y-112803313D01*
X155261477Y-113029998D01*
X155261477Y-113030001D01*
X155281309Y-113256686D01*
X155281311Y-113256697D01*
X155340203Y-113476488D01*
X155340206Y-113476497D01*
X155436376Y-113682732D01*
X155436377Y-113682734D01*
X155566899Y-113869141D01*
X155727803Y-114030045D01*
X155727806Y-114030047D01*
X155914211Y-114160568D01*
X155972220Y-114187618D01*
X156024659Y-114233791D01*
X156043811Y-114300984D01*
X156023595Y-114367865D01*
X155972220Y-114412382D01*
X155914212Y-114439431D01*
X155914210Y-114439432D01*
X155727803Y-114569954D01*
X155566899Y-114730858D01*
X155436377Y-114917265D01*
X155436376Y-114917267D01*
X155340206Y-115123502D01*
X155340203Y-115123511D01*
X155281311Y-115343302D01*
X155281309Y-115343313D01*
X155261477Y-115569998D01*
X155261477Y-115570001D01*
X155281309Y-115796686D01*
X155281311Y-115796697D01*
X155340203Y-116016488D01*
X155340206Y-116016497D01*
X155436376Y-116222732D01*
X155436377Y-116222734D01*
X155566899Y-116409141D01*
X155727803Y-116570045D01*
X155727806Y-116570047D01*
X155914211Y-116700568D01*
X155972220Y-116727618D01*
X156024659Y-116773791D01*
X156043811Y-116840984D01*
X156023595Y-116907865D01*
X155972220Y-116952382D01*
X155914212Y-116979431D01*
X155914210Y-116979432D01*
X155727803Y-117109954D01*
X155566899Y-117270858D01*
X155436377Y-117457265D01*
X155436376Y-117457267D01*
X155340206Y-117663502D01*
X155340203Y-117663511D01*
X155281311Y-117883302D01*
X155281309Y-117883313D01*
X155261477Y-118109998D01*
X155261477Y-118110001D01*
X155281309Y-118336686D01*
X155281311Y-118336697D01*
X155340203Y-118556488D01*
X155340206Y-118556497D01*
X155436376Y-118762732D01*
X155436377Y-118762734D01*
X155566899Y-118949141D01*
X155727803Y-119110045D01*
X155727806Y-119110047D01*
X155914211Y-119240568D01*
X155972220Y-119267618D01*
X156024659Y-119313791D01*
X156043811Y-119380984D01*
X156023595Y-119447865D01*
X155972220Y-119492382D01*
X155914212Y-119519431D01*
X155914210Y-119519432D01*
X155727803Y-119649954D01*
X155566899Y-119810858D01*
X155436377Y-119997265D01*
X155436376Y-119997267D01*
X155340206Y-120203502D01*
X155340203Y-120203511D01*
X155281311Y-120423302D01*
X155281309Y-120423313D01*
X155261477Y-120649998D01*
X155261477Y-120650001D01*
X155281309Y-120876686D01*
X155281311Y-120876697D01*
X155340203Y-121096488D01*
X155340206Y-121096497D01*
X155436376Y-121302732D01*
X155436377Y-121302734D01*
X155566899Y-121489141D01*
X155727803Y-121650045D01*
X155727806Y-121650047D01*
X155914211Y-121780568D01*
X155972220Y-121807618D01*
X156024659Y-121853791D01*
X156043811Y-121920984D01*
X156023595Y-121987865D01*
X155972220Y-122032382D01*
X155914212Y-122059431D01*
X155914210Y-122059432D01*
X155727803Y-122189954D01*
X155566899Y-122350858D01*
X155436377Y-122537265D01*
X155436376Y-122537267D01*
X155340206Y-122743502D01*
X155340203Y-122743511D01*
X155281311Y-122963302D01*
X155281309Y-122963313D01*
X155261477Y-123189998D01*
X155261477Y-123190001D01*
X155281309Y-123416686D01*
X155281311Y-123416697D01*
X155340203Y-123636488D01*
X155340206Y-123636497D01*
X155436376Y-123842732D01*
X155436377Y-123842734D01*
X155566899Y-124029141D01*
X155727803Y-124190045D01*
X155727806Y-124190047D01*
X155914211Y-124320568D01*
X155972220Y-124347618D01*
X156024659Y-124393791D01*
X156043811Y-124460984D01*
X156023595Y-124527865D01*
X155972220Y-124572382D01*
X155914212Y-124599431D01*
X155914210Y-124599432D01*
X155727803Y-124729954D01*
X155566899Y-124890858D01*
X155436377Y-125077265D01*
X155436376Y-125077267D01*
X155340206Y-125283502D01*
X155340203Y-125283511D01*
X155281311Y-125503302D01*
X155281309Y-125503313D01*
X155261477Y-125729998D01*
X155261477Y-125730001D01*
X155281309Y-125956686D01*
X155281311Y-125956697D01*
X155340203Y-126176488D01*
X155340206Y-126176497D01*
X155436376Y-126382732D01*
X155436377Y-126382734D01*
X155566899Y-126569141D01*
X155727803Y-126730045D01*
X155727806Y-126730047D01*
X155914211Y-126860568D01*
X156120449Y-126956739D01*
X156340253Y-127015635D01*
X156502175Y-127029801D01*
X156566943Y-127035468D01*
X156566945Y-127035468D01*
X156566947Y-127035468D01*
X156623618Y-127030509D01*
X156793637Y-127015635D01*
X157013441Y-126956739D01*
X157219679Y-126860568D01*
X157406084Y-126730047D01*
X157566992Y-126569139D01*
X157697513Y-126382734D01*
X157793684Y-126176496D01*
X157852580Y-125956692D01*
X157872413Y-125730000D01*
X157852580Y-125503308D01*
X157793684Y-125283504D01*
X157697513Y-125077266D01*
X157566992Y-124890861D01*
X157566990Y-124890858D01*
X157406086Y-124729954D01*
X157219679Y-124599432D01*
X157219673Y-124599429D01*
X157161670Y-124572382D01*
X157109230Y-124526210D01*
X157090078Y-124459017D01*
X157110293Y-124392135D01*
X157161670Y-124347618D01*
X157219679Y-124320568D01*
X157406084Y-124190047D01*
X157566992Y-124029139D01*
X157697513Y-123842734D01*
X157793684Y-123636496D01*
X157852580Y-123416692D01*
X157872413Y-123190000D01*
X157852580Y-122963308D01*
X157793684Y-122743504D01*
X157697513Y-122537266D01*
X157566992Y-122350861D01*
X157566990Y-122350858D01*
X157406086Y-122189954D01*
X157219679Y-122059432D01*
X157219673Y-122059429D01*
X157161670Y-122032382D01*
X157109230Y-121986210D01*
X157090078Y-121919017D01*
X157110293Y-121852135D01*
X157161670Y-121807618D01*
X157219679Y-121780568D01*
X157406084Y-121650047D01*
X157566992Y-121489139D01*
X157697513Y-121302734D01*
X157793684Y-121096496D01*
X157852580Y-120876692D01*
X157872413Y-120650000D01*
X157870883Y-120632517D01*
X157852580Y-120423313D01*
X157852580Y-120423308D01*
X157793684Y-120203504D01*
X157697513Y-119997266D01*
X157566992Y-119810861D01*
X157566990Y-119810858D01*
X157406086Y-119649954D01*
X157219679Y-119519432D01*
X157219673Y-119519429D01*
X157161670Y-119492382D01*
X157109230Y-119446210D01*
X157090078Y-119379017D01*
X157110293Y-119312135D01*
X157161670Y-119267618D01*
X157219679Y-119240568D01*
X157406084Y-119110047D01*
X157566992Y-118949139D01*
X157697513Y-118762734D01*
X157793684Y-118556496D01*
X157852580Y-118336692D01*
X157872413Y-118110000D01*
X157852580Y-117883308D01*
X157793684Y-117663504D01*
X157697513Y-117457266D01*
X157566992Y-117270861D01*
X157566990Y-117270858D01*
X157406086Y-117109954D01*
X157219679Y-116979432D01*
X157219673Y-116979429D01*
X157161670Y-116952382D01*
X157109230Y-116906210D01*
X157090078Y-116839017D01*
X157110293Y-116772135D01*
X157161670Y-116727618D01*
X157219679Y-116700568D01*
X157406084Y-116570047D01*
X157566992Y-116409139D01*
X157697513Y-116222734D01*
X157793684Y-116016496D01*
X157852580Y-115796692D01*
X157872413Y-115570000D01*
X157852580Y-115343308D01*
X157807861Y-115176415D01*
X157793686Y-115123511D01*
X157793683Y-115123502D01*
X157775358Y-115084204D01*
X157697513Y-114917266D01*
X157566992Y-114730861D01*
X157566990Y-114730858D01*
X157406086Y-114569954D01*
X157219679Y-114439432D01*
X157219673Y-114439429D01*
X157161670Y-114412382D01*
X157109230Y-114366210D01*
X157090078Y-114299017D01*
X157110293Y-114232135D01*
X157161670Y-114187618D01*
X157219679Y-114160568D01*
X157406084Y-114030047D01*
X157566992Y-113869139D01*
X157697513Y-113682734D01*
X157793684Y-113476496D01*
X157852580Y-113256692D01*
X157872413Y-113030000D01*
X157870861Y-113012266D01*
X157854553Y-112825861D01*
X157852580Y-112803308D01*
X157793684Y-112583504D01*
X157697513Y-112377266D01*
X157566992Y-112190861D01*
X157566990Y-112190858D01*
X157406086Y-112029954D01*
X157219679Y-111899432D01*
X157219673Y-111899429D01*
X157161670Y-111872382D01*
X157109230Y-111826210D01*
X157090078Y-111759017D01*
X157110293Y-111692135D01*
X157161670Y-111647618D01*
X157219679Y-111620568D01*
X157406084Y-111490047D01*
X157566992Y-111329139D01*
X157697513Y-111142734D01*
X157793684Y-110936496D01*
X157852580Y-110716692D01*
X157872413Y-110490000D01*
X157852580Y-110263308D01*
X157793684Y-110043504D01*
X157697513Y-109837266D01*
X157566992Y-109650861D01*
X157566990Y-109650858D01*
X157406086Y-109489954D01*
X157219679Y-109359432D01*
X157219673Y-109359429D01*
X157161670Y-109332382D01*
X157109230Y-109286210D01*
X157090078Y-109219017D01*
X157110293Y-109152135D01*
X157161670Y-109107618D01*
X157219679Y-109080568D01*
X157406084Y-108950047D01*
X157566992Y-108789139D01*
X157697513Y-108602734D01*
X157793684Y-108396496D01*
X157852580Y-108176692D01*
X157872413Y-107950000D01*
X157871959Y-107944816D01*
X157866746Y-107885230D01*
X157852580Y-107723308D01*
X157793684Y-107503504D01*
X157697513Y-107297266D01*
X157566992Y-107110861D01*
X157566990Y-107110858D01*
X157406086Y-106949954D01*
X157219680Y-106819433D01*
X157219681Y-106819433D01*
X157219679Y-106819432D01*
X157161667Y-106792380D01*
X157109229Y-106746208D01*
X157090078Y-106679014D01*
X157110294Y-106612133D01*
X157161666Y-106567619D01*
X157219679Y-106540568D01*
X157406084Y-106410047D01*
X157566992Y-106249139D01*
X157697513Y-106062734D01*
X157793684Y-105856496D01*
X157852580Y-105636692D01*
X157872413Y-105410000D01*
X157871959Y-105404816D01*
X157860800Y-105277262D01*
X157852580Y-105183308D01*
X157793684Y-104963504D01*
X157697513Y-104757266D01*
X157566992Y-104570861D01*
X157566990Y-104570858D01*
X157406086Y-104409954D01*
X157219679Y-104279432D01*
X157219673Y-104279429D01*
X157161670Y-104252382D01*
X157109230Y-104206210D01*
X157090078Y-104139017D01*
X157110293Y-104072135D01*
X157161670Y-104027618D01*
X157219679Y-104000568D01*
X157406084Y-103870047D01*
X157566992Y-103709139D01*
X157697513Y-103522734D01*
X157793684Y-103316496D01*
X157852580Y-103096692D01*
X157872413Y-102870000D01*
X157852580Y-102643308D01*
X157793684Y-102423504D01*
X157697513Y-102217266D01*
X157566992Y-102030861D01*
X157566990Y-102030858D01*
X157406086Y-101869954D01*
X157219679Y-101739432D01*
X157219673Y-101739429D01*
X157161670Y-101712382D01*
X157109230Y-101666210D01*
X157090078Y-101599017D01*
X157110293Y-101532135D01*
X157161670Y-101487618D01*
X157219679Y-101460568D01*
X157406084Y-101330047D01*
X157566992Y-101169139D01*
X157697513Y-100982734D01*
X157793684Y-100776496D01*
X157852580Y-100556692D01*
X157872413Y-100330000D01*
X157852580Y-100103308D01*
X157793684Y-99883504D01*
X157697513Y-99677266D01*
X157566992Y-99490861D01*
X157566990Y-99490858D01*
X157406086Y-99329954D01*
X157219679Y-99199432D01*
X157219673Y-99199429D01*
X157182571Y-99182128D01*
X157161669Y-99172381D01*
X157109230Y-99126210D01*
X157090078Y-99059017D01*
X157110293Y-98992135D01*
X157161670Y-98947618D01*
X157219679Y-98920568D01*
X157406084Y-98790047D01*
X157566992Y-98629139D01*
X157697513Y-98442734D01*
X157793684Y-98236496D01*
X157852580Y-98016692D01*
X157872413Y-97790000D01*
X157852580Y-97563308D01*
X157793684Y-97343504D01*
X157697513Y-97137266D01*
X157566992Y-96950861D01*
X157566990Y-96950858D01*
X157406086Y-96789954D01*
X157219679Y-96659432D01*
X157219677Y-96659431D01*
X157013442Y-96563261D01*
X157013433Y-96563258D01*
X156793642Y-96504366D01*
X156793638Y-96504365D01*
X156793637Y-96504365D01*
X156793636Y-96504364D01*
X156793631Y-96504364D01*
X156566947Y-96484532D01*
X156566943Y-96484532D01*
X156340258Y-96504364D01*
X156340247Y-96504366D01*
X156120456Y-96563258D01*
X156120447Y-96563261D01*
X155914212Y-96659431D01*
X155914210Y-96659432D01*
X155727803Y-96789954D01*
X155566899Y-96950858D01*
X155436377Y-97137265D01*
X155436376Y-97137267D01*
X155340206Y-97343502D01*
X155340203Y-97343511D01*
X155281311Y-97563302D01*
X155281309Y-97563313D01*
X155261477Y-97789998D01*
X155261477Y-97790001D01*
X155281309Y-98016686D01*
X155281311Y-98016697D01*
X155340203Y-98236488D01*
X155340206Y-98236497D01*
X155436376Y-98442732D01*
X155436377Y-98442734D01*
X155566899Y-98629141D01*
X155727803Y-98790045D01*
X155727806Y-98790047D01*
X155914211Y-98920568D01*
X155972220Y-98947618D01*
X156024659Y-98993791D01*
X156043811Y-99060984D01*
X156023595Y-99127865D01*
X155972220Y-99172382D01*
X155914212Y-99199431D01*
X155914210Y-99199432D01*
X155727803Y-99329954D01*
X155566899Y-99490858D01*
X155436377Y-99677265D01*
X155436376Y-99677267D01*
X155340206Y-99883502D01*
X155340203Y-99883511D01*
X155281311Y-100103302D01*
X155281309Y-100103313D01*
X155261477Y-100329998D01*
X155261477Y-100330001D01*
X155281309Y-100556686D01*
X155281311Y-100556697D01*
X155340203Y-100776488D01*
X155340206Y-100776497D01*
X155436376Y-100982732D01*
X155436377Y-100982734D01*
X155566899Y-101169141D01*
X155727803Y-101330045D01*
X155727806Y-101330047D01*
X155914211Y-101460568D01*
X155972220Y-101487618D01*
X156024659Y-101533791D01*
X156043811Y-101600984D01*
X156023595Y-101667865D01*
X155972220Y-101712382D01*
X155914212Y-101739431D01*
X155914210Y-101739432D01*
X155727803Y-101869954D01*
X155566899Y-102030858D01*
X155436377Y-102217265D01*
X155436376Y-102217267D01*
X155340206Y-102423502D01*
X155340203Y-102423511D01*
X155281311Y-102643302D01*
X155281309Y-102643313D01*
X155261477Y-102869998D01*
X155261477Y-102870001D01*
X155281309Y-103096686D01*
X155281311Y-103096697D01*
X155340203Y-103316488D01*
X155340206Y-103316497D01*
X155436376Y-103522732D01*
X155436377Y-103522734D01*
X155566899Y-103709141D01*
X155727803Y-103870045D01*
X155727806Y-103870047D01*
X155914211Y-104000568D01*
X155972220Y-104027618D01*
X156024659Y-104073791D01*
X156043811Y-104140984D01*
X156023595Y-104207865D01*
X155972220Y-104252382D01*
X155914212Y-104279431D01*
X155914210Y-104279432D01*
X155727803Y-104409954D01*
X155566899Y-104570858D01*
X155436377Y-104757265D01*
X155436376Y-104757267D01*
X155340206Y-104963502D01*
X155340203Y-104963511D01*
X155281311Y-105183302D01*
X155281309Y-105183313D01*
X155261477Y-105409998D01*
X155261477Y-105410001D01*
X155281309Y-105636686D01*
X155281311Y-105636697D01*
X155340203Y-105856488D01*
X155340206Y-105856497D01*
X155436376Y-106062732D01*
X155436377Y-106062734D01*
X155566899Y-106249141D01*
X155727803Y-106410045D01*
X155727806Y-106410047D01*
X155914211Y-106540568D01*
X155972220Y-106567618D01*
X156024659Y-106613791D01*
X156043811Y-106680984D01*
X156023595Y-106747865D01*
X155972220Y-106792382D01*
X155914212Y-106819431D01*
X155914210Y-106819432D01*
X155727803Y-106949954D01*
X155566899Y-107110858D01*
X155436377Y-107297265D01*
X155436376Y-107297267D01*
X155340206Y-107503502D01*
X155340203Y-107503511D01*
X155281311Y-107723302D01*
X155281309Y-107723313D01*
X155261477Y-107949998D01*
X155261477Y-107950000D01*
X155281309Y-108176686D01*
X155281310Y-108176691D01*
X155281311Y-108176697D01*
X155299625Y-108245048D01*
X155297962Y-108314897D01*
X155267531Y-108364821D01*
X152755653Y-110876699D01*
X152743396Y-110886520D01*
X152743579Y-110886741D01*
X152737568Y-110891713D01*
X152690217Y-110942136D01*
X152669334Y-110963019D01*
X152669322Y-110963032D01*
X152665066Y-110968517D01*
X152661282Y-110972947D01*
X152629382Y-111006918D01*
X152629381Y-111006920D01*
X152619729Y-111024476D01*
X152609055Y-111040726D01*
X152596774Y-111056561D01*
X152596769Y-111056568D01*
X152578260Y-111099338D01*
X152575690Y-111104584D01*
X152553248Y-111145406D01*
X152548267Y-111164807D01*
X152541966Y-111183210D01*
X152534007Y-111201602D01*
X152534006Y-111201605D01*
X152526716Y-111247627D01*
X152525532Y-111253346D01*
X152513946Y-111298472D01*
X152513945Y-111298482D01*
X152513945Y-111318516D01*
X152512418Y-111337915D01*
X152509285Y-111357694D01*
X152509285Y-111357695D01*
X152513670Y-111404083D01*
X152513945Y-111409921D01*
X152513944Y-112290863D01*
X152494259Y-112357903D01*
X152441455Y-112403657D01*
X152372297Y-112413601D01*
X152357851Y-112410638D01*
X152241142Y-112379366D01*
X152241138Y-112379365D01*
X152241137Y-112379365D01*
X152241136Y-112379364D01*
X152241131Y-112379364D01*
X152014447Y-112359532D01*
X152014443Y-112359532D01*
X151787758Y-112379364D01*
X151787747Y-112379366D01*
X151567956Y-112438258D01*
X151567947Y-112438261D01*
X151361712Y-112534431D01*
X151361710Y-112534432D01*
X151175303Y-112664954D01*
X151014399Y-112825858D01*
X150883877Y-113012265D01*
X150883876Y-113012267D01*
X150787706Y-113218502D01*
X150787703Y-113218511D01*
X150728811Y-113438302D01*
X150728809Y-113438313D01*
X150708977Y-113664998D01*
X150708977Y-113665001D01*
X150728809Y-113891686D01*
X150728811Y-113891697D01*
X150787703Y-114111488D01*
X150787706Y-114111497D01*
X150883876Y-114317732D01*
X150883877Y-114317734D01*
X151014399Y-114504141D01*
X151175303Y-114665045D01*
X151210269Y-114689528D01*
X151361711Y-114795568D01*
X151567949Y-114891739D01*
X151787753Y-114950635D01*
X151949675Y-114964801D01*
X152014443Y-114970468D01*
X152014445Y-114970468D01*
X152014447Y-114970468D01*
X152071118Y-114965509D01*
X152241137Y-114950635D01*
X152357853Y-114919361D01*
X152427701Y-114921024D01*
X152485564Y-114960186D01*
X152513068Y-115024415D01*
X152513945Y-115039136D01*
X152513945Y-119911380D01*
X152494260Y-119978419D01*
X152441456Y-120024174D01*
X152372298Y-120034118D01*
X152357851Y-120031155D01*
X152264445Y-120006126D01*
X152264445Y-120774424D01*
X152244760Y-120841463D01*
X152191956Y-120887218D01*
X152122798Y-120897162D01*
X152121047Y-120896897D01*
X152045931Y-120885000D01*
X152045926Y-120885000D01*
X151982964Y-120885000D01*
X151982959Y-120885000D01*
X151907843Y-120896897D01*
X151838549Y-120887942D01*
X151785097Y-120842946D01*
X151764458Y-120776194D01*
X151764445Y-120774424D01*
X151764445Y-120006127D01*
X151568116Y-120058734D01*
X151361962Y-120154865D01*
X151175624Y-120285342D01*
X151014787Y-120446179D01*
X150884310Y-120632517D01*
X150788179Y-120838673D01*
X150788175Y-120838682D01*
X150735572Y-121034999D01*
X150735573Y-121035000D01*
X151503869Y-121035000D01*
X151570908Y-121054685D01*
X151616663Y-121107489D01*
X151626607Y-121176647D01*
X151626342Y-121178397D01*
X151609459Y-121284996D01*
X151609459Y-121285003D01*
X151626342Y-121391603D01*
X151617387Y-121460896D01*
X151572391Y-121514348D01*
X151505639Y-121534987D01*
X151503869Y-121535000D01*
X150735573Y-121535000D01*
X150788175Y-121731317D01*
X150788179Y-121731326D01*
X150884310Y-121937482D01*
X151014787Y-122123820D01*
X151175624Y-122284657D01*
X151361962Y-122415134D01*
X151568118Y-122511265D01*
X151568127Y-122511269D01*
X151764444Y-122563872D01*
X151764445Y-122563871D01*
X151764445Y-121795575D01*
X151784130Y-121728536D01*
X151836934Y-121682781D01*
X151906092Y-121672837D01*
X151907776Y-121673091D01*
X151940144Y-121678218D01*
X151982960Y-121685000D01*
X151982964Y-121685000D01*
X152045930Y-121685000D01*
X152088745Y-121678218D01*
X152121047Y-121673102D01*
X152190339Y-121682056D01*
X152243792Y-121727052D01*
X152264432Y-121793803D01*
X152264445Y-121795575D01*
X152264445Y-122563871D01*
X152357851Y-122538844D01*
X152427701Y-122540507D01*
X152485564Y-122579669D01*
X152513068Y-122643898D01*
X152513945Y-122658619D01*
X152513945Y-127965355D01*
X152494260Y-128032394D01*
X152477626Y-128053036D01*
X152270769Y-128259892D01*
X152209446Y-128293377D01*
X152139754Y-128288393D01*
X152102556Y-128266501D01*
X152073367Y-128241571D01*
X152073362Y-128241568D01*
X151858631Y-128109980D01*
X151625956Y-128013603D01*
X151381072Y-127954812D01*
X151129999Y-127935052D01*
X150878927Y-127954812D01*
X150634043Y-128013603D01*
X150401368Y-128109980D01*
X150186637Y-128241568D01*
X150185820Y-128242266D01*
X150836833Y-128893280D01*
X150870318Y-128954603D01*
X150865334Y-129024295D01*
X150827408Y-129077148D01*
X150724262Y-129161064D01*
X150724258Y-129161069D01*
X150673947Y-129232344D01*
X150619205Y-129275761D01*
X150549680Y-129282690D01*
X150487445Y-129250931D01*
X150484962Y-129248516D01*
X149832266Y-128595820D01*
X149831568Y-128596637D01*
X149699980Y-128811368D01*
X149603603Y-129044043D01*
X149544812Y-129288927D01*
X149525052Y-129540000D01*
X149544812Y-129791072D01*
X149603603Y-130035956D01*
X149699980Y-130268631D01*
X149831566Y-130483358D01*
X149831577Y-130483374D01*
X149832264Y-130484178D01*
X149832266Y-130484178D01*
X150481481Y-129834963D01*
X150542804Y-129801478D01*
X150612495Y-129806462D01*
X150668429Y-129848333D01*
X150671514Y-129853249D01*
X150671549Y-129853225D01*
X150676441Y-129860156D01*
X150779639Y-129970653D01*
X150779641Y-129970654D01*
X150792019Y-129978181D01*
X150814696Y-129991971D01*
X150861749Y-130043621D01*
X150873408Y-130112511D01*
X150845972Y-130176769D01*
X150837951Y-130185601D01*
X150341473Y-130682079D01*
X150318582Y-130700125D01*
X150186346Y-130781160D01*
X150186343Y-130781161D01*
X149994776Y-130944776D01*
X149831161Y-131136343D01*
X149831160Y-131136346D01*
X149699533Y-131351140D01*
X149603126Y-131583889D01*
X149544317Y-131828848D01*
X149524551Y-132080000D01*
X149544317Y-132331151D01*
X149603126Y-132576110D01*
X149699533Y-132808859D01*
X149780520Y-132941016D01*
X149798765Y-133008462D01*
X149777649Y-133075064D01*
X149749105Y-133105072D01*
X149672452Y-133162455D01*
X149586206Y-133277664D01*
X149586202Y-133277671D01*
X149535908Y-133412517D01*
X149530817Y-133459873D01*
X149529501Y-133472123D01*
X149529500Y-133472135D01*
X149529500Y-133870500D01*
X149509815Y-133937539D01*
X149457011Y-133983294D01*
X149405500Y-133994500D01*
X148900452Y-133994500D01*
X148833413Y-133974815D01*
X148812771Y-133958181D01*
X145146818Y-130292228D01*
X145113333Y-130230905D01*
X145110499Y-130204547D01*
X145110499Y-128392129D01*
X145110498Y-128392123D01*
X145110497Y-128392116D01*
X145104091Y-128332517D01*
X145080774Y-128270002D01*
X145053797Y-128197671D01*
X145053793Y-128197664D01*
X144967547Y-128082455D01*
X144967544Y-128082452D01*
X144852335Y-127996206D01*
X144852328Y-127996202D01*
X144717482Y-127945908D01*
X144717483Y-127945908D01*
X144657883Y-127939501D01*
X144657881Y-127939500D01*
X144657873Y-127939500D01*
X144657864Y-127939500D01*
X142362129Y-127939500D01*
X142362123Y-127939501D01*
X142302516Y-127945908D01*
X142167671Y-127996202D01*
X142167664Y-127996206D01*
X142052455Y-128082452D01*
X142052452Y-128082455D01*
X141966206Y-128197664D01*
X141966202Y-128197671D01*
X141915908Y-128332517D01*
X141909501Y-128392116D01*
X141909501Y-128392123D01*
X141909500Y-128392135D01*
X141909500Y-129100183D01*
X141889815Y-129167222D01*
X141837011Y-129212977D01*
X141767853Y-129222921D01*
X141704297Y-129193896D01*
X141680506Y-129166155D01*
X141617355Y-129065651D01*
X141599816Y-129037738D01*
X141472262Y-128910184D01*
X141472262Y-128910183D01*
X141319523Y-128814211D01*
X141149254Y-128754631D01*
X141149249Y-128754630D01*
X141014960Y-128739500D01*
X141014954Y-128739500D01*
X140925046Y-128739500D01*
X140925039Y-128739500D01*
X140790750Y-128754630D01*
X140790745Y-128754631D01*
X140620476Y-128814211D01*
X140467737Y-128910184D01*
X140340184Y-129037737D01*
X140244211Y-129190476D01*
X140184631Y-129360745D01*
X140184630Y-129360750D01*
X140164435Y-129539996D01*
X140164435Y-129540003D01*
X140184630Y-129719249D01*
X140184631Y-129719254D01*
X140244211Y-129889523D01*
X140300946Y-129979815D01*
X140340184Y-130042262D01*
X140467738Y-130169816D01*
X140620478Y-130265789D01*
X140788353Y-130324531D01*
X140790745Y-130325368D01*
X140790750Y-130325369D01*
X140881246Y-130335565D01*
X140925040Y-130340499D01*
X140925043Y-130340500D01*
X140925046Y-130340500D01*
X141014957Y-130340500D01*
X141014958Y-130340499D01*
X141082104Y-130332934D01*
X141149249Y-130325369D01*
X141149252Y-130325368D01*
X141149255Y-130325368D01*
X141319522Y-130265789D01*
X141472262Y-130169816D01*
X141599816Y-130042262D01*
X141680508Y-129913840D01*
X141732840Y-129867552D01*
X141801894Y-129856903D01*
X141865742Y-129885278D01*
X141904114Y-129943668D01*
X141909500Y-129979815D01*
X141909500Y-130687870D01*
X141909501Y-130687876D01*
X141915908Y-130747483D01*
X141966202Y-130882328D01*
X141966206Y-130882335D01*
X142052452Y-130997544D01*
X142052455Y-130997547D01*
X142129104Y-131054927D01*
X142170975Y-131110861D01*
X142175959Y-131180552D01*
X142160520Y-131218983D01*
X142079533Y-131351140D01*
X141983127Y-131583887D01*
X141943731Y-131747983D01*
X141908940Y-131808574D01*
X141846914Y-131840738D01*
X141777345Y-131834262D01*
X141722321Y-131791202D01*
X141706115Y-131759988D01*
X141695789Y-131730479D01*
X141695789Y-131730478D01*
X141599816Y-131577738D01*
X141472262Y-131450184D01*
X141427317Y-131421943D01*
X141319523Y-131354211D01*
X141149254Y-131294631D01*
X141149249Y-131294630D01*
X141014960Y-131279500D01*
X141014954Y-131279500D01*
X140925046Y-131279500D01*
X140925039Y-131279500D01*
X140790750Y-131294630D01*
X140790745Y-131294631D01*
X140620476Y-131354211D01*
X140467737Y-131450184D01*
X140340184Y-131577737D01*
X140244211Y-131730476D01*
X140184631Y-131900745D01*
X140184630Y-131900750D01*
X140164435Y-132079996D01*
X140164435Y-132080003D01*
X140184630Y-132259249D01*
X140184631Y-132259254D01*
X140244211Y-132429523D01*
X140336318Y-132576110D01*
X140340184Y-132582262D01*
X140467738Y-132709816D01*
X140620478Y-132805789D01*
X140629252Y-132808859D01*
X140790745Y-132865368D01*
X140790750Y-132865369D01*
X140881246Y-132875565D01*
X140925040Y-132880499D01*
X140925043Y-132880500D01*
X140925046Y-132880500D01*
X141014957Y-132880500D01*
X141014958Y-132880499D01*
X141082104Y-132872934D01*
X141149249Y-132865369D01*
X141149252Y-132865368D01*
X141149255Y-132865368D01*
X141319522Y-132805789D01*
X141472262Y-132709816D01*
X141599816Y-132582262D01*
X141695789Y-132429522D01*
X141706115Y-132400009D01*
X141746835Y-132343235D01*
X141811787Y-132317486D01*
X141880349Y-132330941D01*
X141930753Y-132379327D01*
X141943731Y-132412017D01*
X141983126Y-132576110D01*
X142079533Y-132808859D01*
X142211160Y-133023653D01*
X142211161Y-133023656D01*
X142211164Y-133023659D01*
X142374776Y-133215224D01*
X142566341Y-133378836D01*
X142698585Y-133459875D01*
X142721474Y-133477920D01*
X143216833Y-133973280D01*
X143250318Y-134034603D01*
X143245334Y-134104295D01*
X143207408Y-134157148D01*
X143104262Y-134241064D01*
X143104258Y-134241069D01*
X143053947Y-134312344D01*
X142999205Y-134355761D01*
X142929680Y-134362690D01*
X142867445Y-134330931D01*
X142864962Y-134328516D01*
X142212266Y-133675820D01*
X142211568Y-133676637D01*
X142079980Y-133891368D01*
X141983603Y-134124043D01*
X141944036Y-134288853D01*
X141909245Y-134349445D01*
X141847219Y-134381609D01*
X141777650Y-134375133D01*
X141722626Y-134332073D01*
X141706420Y-134300859D01*
X141695790Y-134270479D01*
X141644810Y-134189345D01*
X141599816Y-134117738D01*
X141472262Y-133990184D01*
X141461192Y-133983228D01*
X141319523Y-133894211D01*
X141149254Y-133834631D01*
X141149249Y-133834630D01*
X141014960Y-133819500D01*
X141014954Y-133819500D01*
X140925046Y-133819500D01*
X140925039Y-133819500D01*
X140790750Y-133834630D01*
X140790745Y-133834631D01*
X140620476Y-133894211D01*
X140467737Y-133990184D01*
X140340184Y-134117737D01*
X140244211Y-134270476D01*
X140184631Y-134440745D01*
X140184630Y-134440750D01*
X140164435Y-134619996D01*
X140164435Y-134620003D01*
X137219029Y-134620003D01*
X137154427Y-134595908D01*
X137154428Y-134595908D01*
X137119349Y-134592137D01*
X137054798Y-134565399D01*
X137014950Y-134508006D01*
X137012457Y-134438181D01*
X137048110Y-134378092D01*
X137061484Y-134367272D01*
X137068028Y-134362690D01*
X137086084Y-134350047D01*
X137246992Y-134189139D01*
X137377513Y-134002734D01*
X137473684Y-133796496D01*
X137532580Y-133576692D01*
X137552413Y-133350000D01*
X137532580Y-133123308D01*
X137473684Y-132903504D01*
X137377513Y-132697266D01*
X137246992Y-132510861D01*
X137246990Y-132510858D01*
X137086086Y-132349954D01*
X136899679Y-132219432D01*
X136899673Y-132219429D01*
X136841670Y-132192382D01*
X136789230Y-132146210D01*
X136770078Y-132079017D01*
X136790293Y-132012135D01*
X136841670Y-131967618D01*
X136899679Y-131940568D01*
X137086084Y-131810047D01*
X137246992Y-131649139D01*
X137377513Y-131462734D01*
X137473684Y-131256496D01*
X137532580Y-131036692D01*
X137552413Y-130810000D01*
X137532580Y-130583308D01*
X137473684Y-130363504D01*
X137377513Y-130157266D01*
X137246992Y-129970861D01*
X137246990Y-129970858D01*
X137086086Y-129809954D01*
X136899680Y-129679433D01*
X136899681Y-129679433D01*
X136899679Y-129679432D01*
X136841077Y-129652105D01*
X136788639Y-129605933D01*
X136769488Y-129538739D01*
X136789704Y-129471858D01*
X136841080Y-129427341D01*
X136899427Y-129400133D01*
X136972417Y-129349025D01*
X136430811Y-128807419D01*
X136397326Y-128746096D01*
X136402310Y-128676404D01*
X136444182Y-128620471D01*
X136462190Y-128609258D01*
X136484990Y-128597641D01*
X136574586Y-128508045D01*
X136586199Y-128485252D01*
X136634170Y-128434458D01*
X136701991Y-128417661D01*
X136768126Y-128440197D01*
X136784364Y-128453866D01*
X137325970Y-128995472D01*
X137377081Y-128922478D01*
X137473209Y-128716331D01*
X137473214Y-128716317D01*
X137532084Y-128496610D01*
X137532086Y-128496599D01*
X137551911Y-128270002D01*
X137551911Y-128269997D01*
X137532086Y-128043400D01*
X137532084Y-128043389D01*
X137473214Y-127823682D01*
X137473210Y-127823673D01*
X137377078Y-127617516D01*
X137377076Y-127617512D01*
X137325971Y-127544526D01*
X137325970Y-127544526D01*
X136784364Y-128086132D01*
X136723041Y-128119617D01*
X136653349Y-128114633D01*
X136597416Y-128072761D01*
X136586201Y-128054751D01*
X136574586Y-128031955D01*
X136574582Y-128031951D01*
X136574581Y-128031949D01*
X136484995Y-127942363D01*
X136484989Y-127942358D01*
X136470649Y-127935052D01*
X136462195Y-127930744D01*
X136411401Y-127882773D01*
X136394605Y-127814952D01*
X136417142Y-127748817D01*
X136430810Y-127732580D01*
X136972417Y-127190973D01*
X136899428Y-127139866D01*
X136899426Y-127139865D01*
X136841078Y-127112657D01*
X136788639Y-127066484D01*
X136769487Y-126999291D01*
X136789703Y-126932410D01*
X136841074Y-126887895D01*
X136899679Y-126860568D01*
X137086084Y-126730047D01*
X137246992Y-126569139D01*
X137377513Y-126382734D01*
X137473684Y-126176496D01*
X137532580Y-125956692D01*
X137552413Y-125730000D01*
X137532580Y-125503308D01*
X137514263Y-125434948D01*
X137515926Y-125365103D01*
X137546355Y-125315179D01*
X139843233Y-123018301D01*
X139855487Y-123008486D01*
X139855304Y-123008264D01*
X139861311Y-123003292D01*
X139861322Y-123003286D01*
X139898864Y-122963308D01*
X139908672Y-122952864D01*
X139919116Y-122942418D01*
X139929565Y-122931971D01*
X139933824Y-122926478D01*
X139937597Y-122922061D01*
X139969507Y-122888082D01*
X139979160Y-122870520D01*
X139989834Y-122854270D01*
X140002118Y-122838436D01*
X140020625Y-122795667D01*
X140023194Y-122790424D01*
X140045641Y-122749593D01*
X140045642Y-122749592D01*
X140050622Y-122730191D01*
X140056923Y-122711788D01*
X140064883Y-122693396D01*
X140072175Y-122647349D01*
X140073356Y-122641653D01*
X140077685Y-122624793D01*
X140113423Y-122564755D01*
X140175946Y-122533569D01*
X140229882Y-122535855D01*
X140334444Y-122563872D01*
X140334445Y-122563871D01*
X140334445Y-121795575D01*
X140354130Y-121728536D01*
X140406934Y-121682781D01*
X140476092Y-121672837D01*
X140477776Y-121673091D01*
X140510144Y-121678218D01*
X140552960Y-121685000D01*
X140552964Y-121685000D01*
X140615930Y-121685000D01*
X140658745Y-121678218D01*
X140691047Y-121673102D01*
X140760339Y-121682056D01*
X140813792Y-121727052D01*
X140834432Y-121793803D01*
X140834445Y-121795575D01*
X140834445Y-122563872D01*
X141030762Y-122511269D01*
X141030771Y-122511265D01*
X141236927Y-122415134D01*
X141423265Y-122284657D01*
X141584102Y-122123820D01*
X141714579Y-121937482D01*
X141810710Y-121731326D01*
X141810714Y-121731317D01*
X141863317Y-121535000D01*
X141095021Y-121535000D01*
X141027982Y-121515315D01*
X140982227Y-121462511D01*
X140972283Y-121393353D01*
X140972548Y-121391603D01*
X140989431Y-121285003D01*
X140989431Y-121284996D01*
X140972548Y-121178397D01*
X140981503Y-121109104D01*
X141026499Y-121055652D01*
X141093251Y-121035013D01*
X141095021Y-121035000D01*
X141863317Y-121035000D01*
X141863317Y-121034999D01*
X143115572Y-121034999D01*
X143115573Y-121035000D01*
X143883869Y-121035000D01*
X143950908Y-121054685D01*
X143996663Y-121107489D01*
X144006607Y-121176647D01*
X144006342Y-121178397D01*
X143989459Y-121284996D01*
X143989459Y-121285003D01*
X144006342Y-121391603D01*
X143997387Y-121460896D01*
X143952391Y-121514348D01*
X143885639Y-121534987D01*
X143883869Y-121535000D01*
X143115573Y-121535000D01*
X143168175Y-121731317D01*
X143168179Y-121731326D01*
X143264310Y-121937482D01*
X143394787Y-122123820D01*
X143555624Y-122284657D01*
X143741962Y-122415134D01*
X143948118Y-122511265D01*
X143948127Y-122511269D01*
X144144444Y-122563872D01*
X144144445Y-122563871D01*
X144144445Y-121795575D01*
X144164130Y-121728536D01*
X144216934Y-121682781D01*
X144286092Y-121672837D01*
X144287776Y-121673091D01*
X144320144Y-121678218D01*
X144362960Y-121685000D01*
X144362964Y-121685000D01*
X144425930Y-121685000D01*
X144468745Y-121678218D01*
X144501047Y-121673102D01*
X144570339Y-121682056D01*
X144623792Y-121727052D01*
X144644432Y-121793803D01*
X144644445Y-121795575D01*
X144644445Y-122563872D01*
X144840762Y-122511269D01*
X144840771Y-122511265D01*
X145046927Y-122415134D01*
X145233265Y-122284657D01*
X145394102Y-122123820D01*
X145524579Y-121937482D01*
X145620710Y-121731326D01*
X145620714Y-121731317D01*
X145673317Y-121535000D01*
X144905021Y-121535000D01*
X144837982Y-121515315D01*
X144792227Y-121462511D01*
X144782283Y-121393353D01*
X144782548Y-121391603D01*
X144799431Y-121285003D01*
X144799431Y-121284996D01*
X144782548Y-121178397D01*
X144791503Y-121109104D01*
X144836499Y-121055652D01*
X144903251Y-121035013D01*
X144905021Y-121035000D01*
X145673317Y-121035000D01*
X145673317Y-121034999D01*
X146925572Y-121034999D01*
X146925573Y-121035000D01*
X147693869Y-121035000D01*
X147760908Y-121054685D01*
X147806663Y-121107489D01*
X147816607Y-121176647D01*
X147816342Y-121178397D01*
X147799459Y-121284996D01*
X147799459Y-121285003D01*
X147816342Y-121391603D01*
X147807387Y-121460896D01*
X147762391Y-121514348D01*
X147695639Y-121534987D01*
X147693869Y-121535000D01*
X146925573Y-121535000D01*
X146978175Y-121731317D01*
X146978179Y-121731326D01*
X147074310Y-121937482D01*
X147204787Y-122123820D01*
X147365624Y-122284657D01*
X147551962Y-122415134D01*
X147758118Y-122511265D01*
X147758127Y-122511269D01*
X147954444Y-122563872D01*
X147954445Y-122563871D01*
X147954445Y-121795575D01*
X147974130Y-121728536D01*
X148026934Y-121682781D01*
X148096092Y-121672837D01*
X148097776Y-121673091D01*
X148130144Y-121678218D01*
X148172960Y-121685000D01*
X148172964Y-121685000D01*
X148235930Y-121685000D01*
X148278745Y-121678218D01*
X148311047Y-121673102D01*
X148380339Y-121682056D01*
X148433792Y-121727052D01*
X148454432Y-121793803D01*
X148454445Y-121795575D01*
X148454445Y-122563872D01*
X148650762Y-122511269D01*
X148650771Y-122511265D01*
X148856927Y-122415134D01*
X149043265Y-122284657D01*
X149204102Y-122123820D01*
X149334579Y-121937482D01*
X149430710Y-121731326D01*
X149430714Y-121731317D01*
X149483317Y-121535000D01*
X148715021Y-121535000D01*
X148647982Y-121515315D01*
X148602227Y-121462511D01*
X148592283Y-121393353D01*
X148592548Y-121391603D01*
X148609431Y-121285003D01*
X148609431Y-121284996D01*
X148592548Y-121178397D01*
X148601503Y-121109104D01*
X148646499Y-121055652D01*
X148713251Y-121035013D01*
X148715021Y-121035000D01*
X149483317Y-121035000D01*
X149483317Y-121034999D01*
X149430714Y-120838682D01*
X149430710Y-120838673D01*
X149334579Y-120632517D01*
X149204102Y-120446179D01*
X149043265Y-120285342D01*
X148856927Y-120154865D01*
X148650773Y-120058734D01*
X148454445Y-120006127D01*
X148454445Y-120774424D01*
X148434760Y-120841463D01*
X148381956Y-120887218D01*
X148312798Y-120897162D01*
X148311047Y-120896897D01*
X148235931Y-120885000D01*
X148235926Y-120885000D01*
X148172964Y-120885000D01*
X148172959Y-120885000D01*
X148097843Y-120896897D01*
X148028549Y-120887942D01*
X147975097Y-120842946D01*
X147954458Y-120776194D01*
X147954445Y-120774424D01*
X147954445Y-120006127D01*
X147758116Y-120058734D01*
X147551962Y-120154865D01*
X147365624Y-120285342D01*
X147204787Y-120446179D01*
X147074310Y-120632517D01*
X146978179Y-120838673D01*
X146978175Y-120838682D01*
X146925572Y-121034999D01*
X145673317Y-121034999D01*
X145620714Y-120838682D01*
X145620710Y-120838673D01*
X145524579Y-120632517D01*
X145394102Y-120446179D01*
X145233265Y-120285342D01*
X145046927Y-120154865D01*
X144840773Y-120058734D01*
X144644445Y-120006127D01*
X144644445Y-120774424D01*
X144624760Y-120841463D01*
X144571956Y-120887218D01*
X144502798Y-120897162D01*
X144501047Y-120896897D01*
X144425931Y-120885000D01*
X144425926Y-120885000D01*
X144362964Y-120885000D01*
X144362959Y-120885000D01*
X144287843Y-120896897D01*
X144218549Y-120887942D01*
X144165097Y-120842946D01*
X144144458Y-120776194D01*
X144144445Y-120774424D01*
X144144445Y-120006127D01*
X143948116Y-120058734D01*
X143741962Y-120154865D01*
X143555624Y-120285342D01*
X143394787Y-120446179D01*
X143264310Y-120632517D01*
X143168179Y-120838673D01*
X143168175Y-120838682D01*
X143115572Y-121034999D01*
X141863317Y-121034999D01*
X141810714Y-120838682D01*
X141810710Y-120838673D01*
X141714579Y-120632517D01*
X141584102Y-120446179D01*
X141423265Y-120285342D01*
X141236927Y-120154865D01*
X141030771Y-120058734D01*
X141030764Y-120058731D01*
X140851842Y-120010789D01*
X140792182Y-119974424D01*
X140761653Y-119911577D01*
X140769948Y-119842201D01*
X140796250Y-119803339D01*
X146272771Y-114326819D01*
X146334095Y-114293334D01*
X146360453Y-114290500D01*
X146990257Y-114290500D01*
X147057296Y-114310185D01*
X147091832Y-114343377D01*
X147204399Y-114504141D01*
X147365303Y-114665045D01*
X147400269Y-114689528D01*
X147551711Y-114795568D01*
X147757949Y-114891739D01*
X147977753Y-114950635D01*
X148139675Y-114964801D01*
X148204443Y-114970468D01*
X148204445Y-114970468D01*
X148204447Y-114970468D01*
X148261117Y-114965509D01*
X148431137Y-114950635D01*
X148650941Y-114891739D01*
X148857179Y-114795568D01*
X149043584Y-114665047D01*
X149204492Y-114504139D01*
X149335013Y-114317734D01*
X149431184Y-114111496D01*
X149490080Y-113891692D01*
X149507079Y-113697384D01*
X149509913Y-113665001D01*
X149509913Y-113664998D01*
X149500841Y-113561307D01*
X149490080Y-113438308D01*
X149431184Y-113218504D01*
X149335013Y-113012266D01*
X149204492Y-112825861D01*
X149204490Y-112825858D01*
X149043586Y-112664954D01*
X148857179Y-112534432D01*
X148857177Y-112534431D01*
X148650942Y-112438261D01*
X148650933Y-112438258D01*
X148431142Y-112379366D01*
X148431138Y-112379365D01*
X148431137Y-112379365D01*
X148431136Y-112379364D01*
X148431131Y-112379364D01*
X148204447Y-112359532D01*
X148204443Y-112359532D01*
X147977758Y-112379364D01*
X147977747Y-112379366D01*
X147757956Y-112438258D01*
X147757947Y-112438261D01*
X147551712Y-112534431D01*
X147551710Y-112534432D01*
X147365303Y-112664954D01*
X147204399Y-112825858D01*
X147091832Y-112986623D01*
X147037256Y-113030248D01*
X146990257Y-113039500D01*
X146132737Y-113039500D01*
X146117120Y-113037776D01*
X146117093Y-113038062D01*
X146109331Y-113037327D01*
X146040203Y-113039500D01*
X146010650Y-113039500D01*
X146009929Y-113039590D01*
X146003757Y-113040369D01*
X145997945Y-113040826D01*
X145951373Y-113042290D01*
X145951372Y-113042290D01*
X145932129Y-113047881D01*
X145913079Y-113051825D01*
X145893211Y-113054334D01*
X145893209Y-113054335D01*
X145849884Y-113071488D01*
X145844357Y-113073380D01*
X145799610Y-113086381D01*
X145799609Y-113086382D01*
X145782367Y-113096579D01*
X145764899Y-113105137D01*
X145746269Y-113112513D01*
X145746266Y-113112515D01*
X145737608Y-113118805D01*
X145671800Y-113142279D01*
X145603747Y-113126449D01*
X145555056Y-113076340D01*
X145552348Y-113070885D01*
X145525016Y-113012272D01*
X145525014Y-113012268D01*
X145507057Y-112986623D01*
X145394492Y-112825861D01*
X145394490Y-112825858D01*
X145233586Y-112664954D01*
X145047179Y-112534432D01*
X145047177Y-112534431D01*
X144840942Y-112438261D01*
X144840933Y-112438258D01*
X144621142Y-112379366D01*
X144621138Y-112379365D01*
X144621137Y-112379365D01*
X144621136Y-112379364D01*
X144621131Y-112379364D01*
X144394447Y-112359532D01*
X144394443Y-112359532D01*
X144167758Y-112379364D01*
X144167747Y-112379366D01*
X143947956Y-112438258D01*
X143947947Y-112438261D01*
X143741712Y-112534431D01*
X143741710Y-112534432D01*
X143555303Y-112664954D01*
X143394399Y-112825858D01*
X143263877Y-113012265D01*
X143263876Y-113012267D01*
X143167706Y-113218502D01*
X143167703Y-113218511D01*
X143108811Y-113438302D01*
X143108809Y-113438313D01*
X143103579Y-113498095D01*
X143088977Y-113665000D01*
X143108809Y-113891686D01*
X143108810Y-113891691D01*
X143108811Y-113891697D01*
X143127125Y-113960048D01*
X143125462Y-114029897D01*
X143095031Y-114079821D01*
X137393173Y-119781679D01*
X137331850Y-119815164D01*
X137262158Y-119810180D01*
X137217811Y-119781679D01*
X137086086Y-119649954D01*
X136899679Y-119519432D01*
X136899673Y-119519429D01*
X136841670Y-119492382D01*
X136789230Y-119446210D01*
X136770078Y-119379017D01*
X136790293Y-119312135D01*
X136841670Y-119267618D01*
X136899679Y-119240568D01*
X137086084Y-119110047D01*
X137246992Y-118949139D01*
X137377513Y-118762734D01*
X137473684Y-118556496D01*
X137532580Y-118336692D01*
X137552413Y-118110000D01*
X137532580Y-117883308D01*
X137473684Y-117663504D01*
X137377513Y-117457266D01*
X137246992Y-117270861D01*
X137246990Y-117270858D01*
X137086086Y-117109954D01*
X136899679Y-116979432D01*
X136899673Y-116979429D01*
X136841670Y-116952382D01*
X136789230Y-116906210D01*
X136770078Y-116839017D01*
X136790293Y-116772135D01*
X136841670Y-116727618D01*
X136899679Y-116700568D01*
X137086084Y-116570047D01*
X137246992Y-116409139D01*
X137377513Y-116222734D01*
X137473684Y-116016496D01*
X137532580Y-115796692D01*
X137552413Y-115570000D01*
X137532580Y-115343308D01*
X137487861Y-115176415D01*
X137473686Y-115123511D01*
X137473685Y-115123510D01*
X137473684Y-115123504D01*
X137463611Y-115101904D01*
X137453120Y-115032827D01*
X137481640Y-114969043D01*
X137540116Y-114930804D01*
X137575994Y-114925500D01*
X139866702Y-114925500D01*
X139882322Y-114927224D01*
X139882349Y-114926939D01*
X139890105Y-114927671D01*
X139890112Y-114927673D01*
X139959259Y-114925500D01*
X139988795Y-114925500D01*
X139995673Y-114924630D01*
X140001486Y-114924172D01*
X140048072Y-114922709D01*
X140067314Y-114917117D01*
X140086357Y-114913174D01*
X140106237Y-114910664D01*
X140109412Y-114909406D01*
X140112085Y-114909161D01*
X140113794Y-114908723D01*
X140113864Y-114908998D01*
X140178987Y-114903028D01*
X140187152Y-114904922D01*
X140357753Y-114950635D01*
X140519675Y-114964801D01*
X140584443Y-114970468D01*
X140584445Y-114970468D01*
X140584447Y-114970468D01*
X140641118Y-114965509D01*
X140811137Y-114950635D01*
X141030941Y-114891739D01*
X141237179Y-114795568D01*
X141423584Y-114665047D01*
X141584492Y-114504139D01*
X141715013Y-114317734D01*
X141811184Y-114111496D01*
X141870080Y-113891692D01*
X141887079Y-113697384D01*
X141889913Y-113665001D01*
X141889913Y-113664998D01*
X141880841Y-113561307D01*
X141870080Y-113438308D01*
X141811184Y-113218504D01*
X141715013Y-113012266D01*
X141584492Y-112825861D01*
X141584490Y-112825858D01*
X141423586Y-112664954D01*
X141237179Y-112534432D01*
X141237177Y-112534431D01*
X141030942Y-112438261D01*
X141030933Y-112438258D01*
X140811142Y-112379366D01*
X140811138Y-112379365D01*
X140811137Y-112379365D01*
X140811136Y-112379364D01*
X140811131Y-112379364D01*
X140584447Y-112359532D01*
X140584443Y-112359532D01*
X140357758Y-112379364D01*
X140357747Y-112379366D01*
X140137956Y-112438258D01*
X140137947Y-112438261D01*
X139931712Y-112534431D01*
X139931710Y-112534432D01*
X139745303Y-112664954D01*
X139584399Y-112825858D01*
X139453877Y-113012265D01*
X139453876Y-113012267D01*
X139357706Y-113218502D01*
X139357703Y-113218511D01*
X139298811Y-113438302D01*
X139298809Y-113438313D01*
X139288049Y-113561307D01*
X139262597Y-113626376D01*
X139206006Y-113667355D01*
X139164521Y-113674500D01*
X137575994Y-113674500D01*
X137508955Y-113654815D01*
X137463200Y-113602011D01*
X137453256Y-113532853D01*
X137463612Y-113498095D01*
X137473684Y-113476496D01*
X137532580Y-113256692D01*
X137552413Y-113030000D01*
X137550861Y-113012266D01*
X137534553Y-112825861D01*
X137532580Y-112803308D01*
X137514263Y-112734948D01*
X137515926Y-112665103D01*
X137546355Y-112615179D01*
X138813788Y-111347746D01*
X138826042Y-111337931D01*
X138825859Y-111337709D01*
X138831866Y-111332737D01*
X138831877Y-111332731D01*
X138864048Y-111298472D01*
X138879227Y-111282309D01*
X138889671Y-111271863D01*
X138900120Y-111261416D01*
X138904379Y-111255923D01*
X138908152Y-111251506D01*
X138940062Y-111217527D01*
X138949715Y-111199965D01*
X138960389Y-111183715D01*
X138972673Y-111167881D01*
X138991180Y-111125112D01*
X138993749Y-111119869D01*
X139016196Y-111079038D01*
X139016197Y-111079037D01*
X139021177Y-111059636D01*
X139027478Y-111041233D01*
X139035438Y-111022841D01*
X139042730Y-110976794D01*
X139043911Y-110971097D01*
X139055500Y-110925964D01*
X139055500Y-110905927D01*
X139057027Y-110886527D01*
X139060160Y-110866749D01*
X139055775Y-110820360D01*
X139055500Y-110814522D01*
X139055500Y-107827316D01*
X139075185Y-107760277D01*
X139127989Y-107714522D01*
X139197147Y-107704578D01*
X139260703Y-107733603D01*
X139284491Y-107761341D01*
X139319629Y-107817262D01*
X139447183Y-107944816D01*
X139599923Y-108040789D01*
X139608697Y-108043859D01*
X139770190Y-108100368D01*
X139770195Y-108100369D01*
X139860691Y-108110565D01*
X139904485Y-108115499D01*
X139904488Y-108115500D01*
X139904491Y-108115500D01*
X139994402Y-108115500D01*
X139994403Y-108115499D01*
X140061549Y-108107933D01*
X140128694Y-108100369D01*
X140128697Y-108100368D01*
X140128700Y-108100368D01*
X140298967Y-108040789D01*
X140451707Y-107944816D01*
X140579261Y-107817262D01*
X140675234Y-107664522D01*
X140685560Y-107635009D01*
X140726280Y-107578235D01*
X140791232Y-107552486D01*
X140859794Y-107565941D01*
X140910198Y-107614327D01*
X140923176Y-107647017D01*
X140962571Y-107811110D01*
X141058978Y-108043859D01*
X141190605Y-108258653D01*
X141190606Y-108258656D01*
X141190609Y-108258659D01*
X141354221Y-108450224D01*
X141502511Y-108576875D01*
X141545788Y-108613838D01*
X141545791Y-108613839D01*
X141760585Y-108745466D01*
X141866022Y-108789139D01*
X141993334Y-108841873D01*
X142238297Y-108900683D01*
X142489445Y-108920449D01*
X142740593Y-108900683D01*
X142985556Y-108841873D01*
X143218304Y-108745466D01*
X143433104Y-108613836D01*
X143624669Y-108450224D01*
X143788281Y-108258659D01*
X143919911Y-108043859D01*
X144016318Y-107811111D01*
X144075128Y-107566148D01*
X144094894Y-107315000D01*
X144075128Y-107063852D01*
X144016318Y-106818889D01*
X144009605Y-106802683D01*
X143919911Y-106586140D01*
X143838924Y-106453983D01*
X143820679Y-106386538D01*
X143841795Y-106319935D01*
X143870336Y-106289929D01*
X143946991Y-106232546D01*
X144033241Y-106117331D01*
X144083536Y-105982483D01*
X144089945Y-105922873D01*
X144089944Y-104099499D01*
X144109629Y-104032461D01*
X144162432Y-103986706D01*
X144213944Y-103975500D01*
X148373993Y-103975500D01*
X148441032Y-103995185D01*
X148461674Y-104011819D01*
X148566797Y-104116942D01*
X148600282Y-104178265D01*
X148595298Y-104247957D01*
X148593678Y-104252072D01*
X148582574Y-104278881D01*
X148582572Y-104278887D01*
X148523762Y-104523848D01*
X148503996Y-104775000D01*
X148523762Y-105026151D01*
X148582571Y-105271110D01*
X148678978Y-105503859D01*
X148759965Y-105636016D01*
X148778210Y-105703462D01*
X148757094Y-105770064D01*
X148728550Y-105800072D01*
X148651897Y-105857455D01*
X148565651Y-105972664D01*
X148565647Y-105972671D01*
X148515353Y-106107517D01*
X148514298Y-106117335D01*
X148508946Y-106167123D01*
X148508945Y-106167135D01*
X148508945Y-108462870D01*
X148508946Y-108462876D01*
X148515353Y-108522483D01*
X148565647Y-108657328D01*
X148565651Y-108657335D01*
X148651897Y-108772544D01*
X148651900Y-108772547D01*
X148767109Y-108858793D01*
X148767116Y-108858797D01*
X148901962Y-108909091D01*
X148901961Y-108909091D01*
X148908889Y-108909835D01*
X148961572Y-108915500D01*
X151257317Y-108915499D01*
X151316928Y-108909091D01*
X151451776Y-108858796D01*
X151566991Y-108772546D01*
X151653241Y-108657331D01*
X151703536Y-108522483D01*
X151709945Y-108462873D01*
X151709944Y-107754813D01*
X151729628Y-107687777D01*
X151782432Y-107642022D01*
X151851591Y-107632078D01*
X151915147Y-107661103D01*
X151938937Y-107688844D01*
X152019624Y-107817256D01*
X152019629Y-107817262D01*
X152147183Y-107944816D01*
X152299923Y-108040789D01*
X152308697Y-108043859D01*
X152470190Y-108100368D01*
X152470195Y-108100369D01*
X152560691Y-108110565D01*
X152604485Y-108115499D01*
X152604488Y-108115500D01*
X152604491Y-108115500D01*
X152694402Y-108115500D01*
X152694403Y-108115499D01*
X152761549Y-108107933D01*
X152828694Y-108100369D01*
X152828697Y-108100368D01*
X152828700Y-108100368D01*
X152998967Y-108040789D01*
X153151707Y-107944816D01*
X153279261Y-107817262D01*
X153375234Y-107664522D01*
X153434813Y-107494255D01*
X153455010Y-107315000D01*
X153434813Y-107135745D01*
X153375234Y-106965478D01*
X153359951Y-106941156D01*
X153295655Y-106838829D01*
X153279261Y-106812738D01*
X153151707Y-106685184D01*
X153141888Y-106679014D01*
X152998968Y-106589211D01*
X152828699Y-106529631D01*
X152828694Y-106529630D01*
X152694405Y-106514500D01*
X152694399Y-106514500D01*
X152604491Y-106514500D01*
X152604484Y-106514500D01*
X152470195Y-106529630D01*
X152470190Y-106529631D01*
X152299921Y-106589211D01*
X152147182Y-106685184D01*
X152019629Y-106812737D01*
X152019624Y-106812743D01*
X151938937Y-106941156D01*
X151886603Y-106987447D01*
X151817549Y-106998095D01*
X151753701Y-106969720D01*
X151715329Y-106911330D01*
X151709944Y-106875184D01*
X151709944Y-106167129D01*
X151709943Y-106167123D01*
X151709942Y-106167116D01*
X151703536Y-106107517D01*
X151686832Y-106062732D01*
X151653242Y-105972671D01*
X151653238Y-105972664D01*
X151566992Y-105857455D01*
X151565712Y-105856497D01*
X151490339Y-105800072D01*
X151448469Y-105744138D01*
X151443485Y-105674446D01*
X151458921Y-105636021D01*
X151539911Y-105503859D01*
X151636318Y-105271111D01*
X151675713Y-105107016D01*
X151710503Y-105046425D01*
X151772530Y-105014261D01*
X151842099Y-105020737D01*
X151897123Y-105063796D01*
X151913329Y-105095010D01*
X151923655Y-105124521D01*
X151982885Y-105218785D01*
X152019629Y-105277262D01*
X152147183Y-105404816D01*
X152299923Y-105500789D01*
X152308697Y-105503859D01*
X152470190Y-105560368D01*
X152470195Y-105560369D01*
X152560691Y-105570565D01*
X152604485Y-105575499D01*
X152604488Y-105575500D01*
X152604491Y-105575500D01*
X152694402Y-105575500D01*
X152694403Y-105575499D01*
X152761549Y-105567933D01*
X152828694Y-105560369D01*
X152828697Y-105560368D01*
X152828700Y-105560368D01*
X152998967Y-105500789D01*
X153151707Y-105404816D01*
X153279261Y-105277262D01*
X153375234Y-105124522D01*
X153434813Y-104954255D01*
X153435663Y-104946712D01*
X153455010Y-104775003D01*
X153455010Y-104774996D01*
X153434814Y-104595750D01*
X153434813Y-104595745D01*
X153409728Y-104524056D01*
X153375234Y-104425478D01*
X153279261Y-104272738D01*
X153151707Y-104145184D01*
X153106760Y-104116942D01*
X152998968Y-104049211D01*
X152828699Y-103989631D01*
X152828694Y-103989630D01*
X152694405Y-103974500D01*
X152694399Y-103974500D01*
X152604491Y-103974500D01*
X152604484Y-103974500D01*
X152470195Y-103989630D01*
X152470190Y-103989631D01*
X152299921Y-104049211D01*
X152147182Y-104145184D01*
X152019629Y-104272737D01*
X151923654Y-104425479D01*
X151913328Y-104454991D01*
X151872606Y-104511766D01*
X151807653Y-104537513D01*
X151739092Y-104524056D01*
X151688689Y-104475669D01*
X151675713Y-104442982D01*
X151636318Y-104278889D01*
X151539911Y-104046140D01*
X151408284Y-103831346D01*
X151408283Y-103831343D01*
X151303912Y-103709141D01*
X151244669Y-103639776D01*
X151118016Y-103531604D01*
X151053101Y-103476161D01*
X151053098Y-103476160D01*
X150838304Y-103344533D01*
X150605555Y-103248126D01*
X150360596Y-103189317D01*
X150172231Y-103174492D01*
X150109445Y-103169551D01*
X150109444Y-103169551D01*
X149858293Y-103189317D01*
X149613334Y-103248126D01*
X149586520Y-103259233D01*
X149517050Y-103266700D01*
X149454571Y-103235424D01*
X149451388Y-103232352D01*
X149185248Y-102966212D01*
X149175425Y-102953950D01*
X149175204Y-102954134D01*
X149170231Y-102948123D01*
X149151604Y-102930631D01*
X149119809Y-102900773D01*
X149109364Y-102890328D01*
X149098920Y-102879883D01*
X149093431Y-102875625D01*
X149089006Y-102871847D01*
X149055027Y-102839938D01*
X149055025Y-102839936D01*
X149055022Y-102839935D01*
X149037474Y-102830288D01*
X149021208Y-102819604D01*
X149005378Y-102807325D01*
X148962613Y-102788818D01*
X148957367Y-102786248D01*
X148916538Y-102763803D01*
X148916537Y-102763802D01*
X148897138Y-102758822D01*
X148878726Y-102752518D01*
X148860343Y-102744562D01*
X148860337Y-102744560D01*
X148814319Y-102737272D01*
X148808597Y-102736087D01*
X148763466Y-102724500D01*
X148763464Y-102724500D01*
X148743429Y-102724500D01*
X148724031Y-102722973D01*
X148716607Y-102721797D01*
X148704250Y-102719840D01*
X148704249Y-102719840D01*
X148657861Y-102724225D01*
X148652023Y-102724500D01*
X140149034Y-102724500D01*
X140133417Y-102722776D01*
X140133390Y-102723062D01*
X140125628Y-102722327D01*
X140056500Y-102724500D01*
X140026947Y-102724500D01*
X140026226Y-102724590D01*
X140020054Y-102725369D01*
X140014242Y-102725826D01*
X139967669Y-102727290D01*
X139967666Y-102727291D01*
X139948423Y-102732881D01*
X139929380Y-102736825D01*
X139909501Y-102739336D01*
X139909500Y-102739337D01*
X139866175Y-102756490D01*
X139860649Y-102758382D01*
X139815905Y-102771383D01*
X139815901Y-102771385D01*
X139798662Y-102781580D01*
X139781195Y-102790137D01*
X139762566Y-102797512D01*
X139762564Y-102797513D01*
X139724861Y-102824906D01*
X139719979Y-102828112D01*
X139679877Y-102851828D01*
X139665705Y-102866000D01*
X139650920Y-102878628D01*
X139634709Y-102890407D01*
X139605006Y-102926310D01*
X139601074Y-102930631D01*
X138046208Y-104485496D01*
X138033951Y-104495317D01*
X138034134Y-104495538D01*
X138028123Y-104500510D01*
X137980772Y-104550933D01*
X137959889Y-104571816D01*
X137959877Y-104571829D01*
X137955621Y-104577314D01*
X137951837Y-104581744D01*
X137919937Y-104615715D01*
X137919936Y-104615717D01*
X137910284Y-104633273D01*
X137899610Y-104649523D01*
X137887329Y-104665358D01*
X137887324Y-104665365D01*
X137868815Y-104708135D01*
X137866245Y-104713381D01*
X137843803Y-104754203D01*
X137838822Y-104773604D01*
X137832521Y-104792007D01*
X137824562Y-104810399D01*
X137824561Y-104810402D01*
X137817271Y-104856424D01*
X137816087Y-104862143D01*
X137804501Y-104907269D01*
X137804500Y-104907279D01*
X137804500Y-104927313D01*
X137802973Y-104946712D01*
X137799840Y-104966491D01*
X137799840Y-104966492D01*
X137804225Y-105012880D01*
X137804500Y-105018718D01*
X137804500Y-110536492D01*
X137784815Y-110603531D01*
X137768176Y-110624178D01*
X137759758Y-110632595D01*
X137698433Y-110666077D01*
X137628742Y-110661088D01*
X137572810Y-110619214D01*
X137548397Y-110553748D01*
X137548553Y-110534109D01*
X137552413Y-110490000D01*
X137532580Y-110263308D01*
X137473684Y-110043504D01*
X137377513Y-109837266D01*
X137246992Y-109650861D01*
X137246990Y-109650858D01*
X137086086Y-109489954D01*
X136899679Y-109359432D01*
X136899673Y-109359429D01*
X136841670Y-109332382D01*
X136789230Y-109286210D01*
X136770078Y-109219017D01*
X136790293Y-109152135D01*
X136841670Y-109107618D01*
X136899679Y-109080568D01*
X137086084Y-108950047D01*
X137246992Y-108789139D01*
X137377513Y-108602734D01*
X137473684Y-108396496D01*
X137532580Y-108176692D01*
X137552413Y-107950000D01*
X137551959Y-107944816D01*
X137546746Y-107885230D01*
X137532580Y-107723308D01*
X137473684Y-107503504D01*
X137377513Y-107297266D01*
X137246992Y-107110861D01*
X137246990Y-107110858D01*
X137086086Y-106949954D01*
X136899679Y-106819432D01*
X136899673Y-106819429D01*
X136841670Y-106792382D01*
X136789230Y-106746210D01*
X136770078Y-106679017D01*
X136790293Y-106612135D01*
X136841670Y-106567618D01*
X136899679Y-106540568D01*
X137086084Y-106410047D01*
X137246992Y-106249139D01*
X137377513Y-106062734D01*
X137473684Y-105856496D01*
X137532580Y-105636692D01*
X137552413Y-105410000D01*
X137551959Y-105404816D01*
X137540800Y-105277262D01*
X137532580Y-105183308D01*
X137473684Y-104963504D01*
X137377513Y-104757266D01*
X137246992Y-104570861D01*
X137246990Y-104570858D01*
X137086086Y-104409954D01*
X136899679Y-104279432D01*
X136899673Y-104279429D01*
X136841670Y-104252382D01*
X136789230Y-104206210D01*
X136770078Y-104139017D01*
X136790293Y-104072135D01*
X136841670Y-104027618D01*
X136899679Y-104000568D01*
X137086084Y-103870047D01*
X137246992Y-103709139D01*
X137377513Y-103522734D01*
X137473684Y-103316496D01*
X137532580Y-103096692D01*
X137552413Y-102870000D01*
X137532580Y-102643308D01*
X137473684Y-102423504D01*
X137377513Y-102217266D01*
X137246992Y-102030861D01*
X137246990Y-102030858D01*
X137086086Y-101869954D01*
X136899679Y-101739432D01*
X136899673Y-101739429D01*
X136841670Y-101712382D01*
X136789230Y-101666210D01*
X136770078Y-101599017D01*
X136790293Y-101532135D01*
X136841670Y-101487618D01*
X136899679Y-101460568D01*
X137086084Y-101330047D01*
X137246992Y-101169139D01*
X137377513Y-100982734D01*
X137473684Y-100776496D01*
X137532580Y-100556692D01*
X137552413Y-100330003D01*
X139143880Y-100330003D01*
X139164075Y-100509249D01*
X139164076Y-100509254D01*
X139223656Y-100679523D01*
X139284584Y-100776488D01*
X139319629Y-100832262D01*
X139447183Y-100959816D01*
X139599923Y-101055789D01*
X139608697Y-101058859D01*
X139770190Y-101115368D01*
X139770195Y-101115369D01*
X139860691Y-101125565D01*
X139904485Y-101130499D01*
X139904488Y-101130500D01*
X139904491Y-101130500D01*
X139994402Y-101130500D01*
X139994403Y-101130499D01*
X140061549Y-101122933D01*
X140128694Y-101115369D01*
X140128697Y-101115368D01*
X140128700Y-101115368D01*
X140298967Y-101055789D01*
X140451707Y-100959816D01*
X140579261Y-100832262D01*
X140675234Y-100679522D01*
X140685560Y-100650009D01*
X140726280Y-100593235D01*
X140791232Y-100567486D01*
X140859794Y-100580941D01*
X140910198Y-100629327D01*
X140923176Y-100662017D01*
X140962571Y-100826110D01*
X141058978Y-101058859D01*
X141190605Y-101273653D01*
X141190606Y-101273656D01*
X141190609Y-101273659D01*
X141354221Y-101465224D01*
X141502511Y-101591875D01*
X141545788Y-101628838D01*
X141545791Y-101628839D01*
X141760585Y-101760466D01*
X141993333Y-101856873D01*
X141993334Y-101856873D01*
X142238297Y-101915683D01*
X142489445Y-101935449D01*
X142740593Y-101915683D01*
X142985556Y-101856873D01*
X143218304Y-101760466D01*
X143433104Y-101628836D01*
X143624669Y-101465224D01*
X143788281Y-101273659D01*
X143919911Y-101058859D01*
X144016318Y-100826111D01*
X144075128Y-100581148D01*
X144094894Y-100330000D01*
X144075128Y-100078852D01*
X144016318Y-99833889D01*
X143960936Y-99700184D01*
X143919911Y-99601140D01*
X143838924Y-99468983D01*
X143820679Y-99401538D01*
X143841795Y-99334935D01*
X143870336Y-99304929D01*
X143946991Y-99247546D01*
X144033241Y-99132331D01*
X144083536Y-98997483D01*
X144089945Y-98937873D01*
X144089944Y-97789999D01*
X148503996Y-97789999D01*
X148523762Y-98041151D01*
X148582571Y-98286110D01*
X148678978Y-98518859D01*
X148759965Y-98651016D01*
X148778210Y-98718462D01*
X148757094Y-98785064D01*
X148728550Y-98815072D01*
X148651897Y-98872455D01*
X148565651Y-98987664D01*
X148565647Y-98987671D01*
X148515353Y-99122517D01*
X148508946Y-99182116D01*
X148508946Y-99182123D01*
X148508945Y-99182135D01*
X148508945Y-101477870D01*
X148508946Y-101477876D01*
X148515353Y-101537483D01*
X148565647Y-101672328D01*
X148565651Y-101672335D01*
X148651897Y-101787544D01*
X148651900Y-101787547D01*
X148767109Y-101873793D01*
X148767116Y-101873797D01*
X148901962Y-101924091D01*
X148901961Y-101924091D01*
X148908889Y-101924835D01*
X148961572Y-101930500D01*
X151257317Y-101930499D01*
X151316928Y-101924091D01*
X151451776Y-101873796D01*
X151566991Y-101787546D01*
X151653241Y-101672331D01*
X151703536Y-101537483D01*
X151709945Y-101477873D01*
X151709944Y-100769813D01*
X151729628Y-100702777D01*
X151782432Y-100657022D01*
X151851591Y-100647078D01*
X151915147Y-100676103D01*
X151938937Y-100703844D01*
X152019624Y-100832256D01*
X152019629Y-100832262D01*
X152147183Y-100959816D01*
X152299923Y-101055789D01*
X152308697Y-101058859D01*
X152470190Y-101115368D01*
X152470195Y-101115369D01*
X152560691Y-101125565D01*
X152604485Y-101130499D01*
X152604488Y-101130500D01*
X152604491Y-101130500D01*
X152694402Y-101130500D01*
X152694403Y-101130499D01*
X152761549Y-101122933D01*
X152828694Y-101115369D01*
X152828697Y-101115368D01*
X152828700Y-101115368D01*
X152998967Y-101055789D01*
X153151707Y-100959816D01*
X153279261Y-100832262D01*
X153375234Y-100679522D01*
X153434813Y-100509255D01*
X153455010Y-100330000D01*
X153434813Y-100150745D01*
X153375234Y-99980478D01*
X153359951Y-99956156D01*
X153318498Y-99890184D01*
X153279261Y-99827738D01*
X153151707Y-99700184D01*
X153115232Y-99677265D01*
X152998968Y-99604211D01*
X152828699Y-99544631D01*
X152828694Y-99544630D01*
X152694405Y-99529500D01*
X152694399Y-99529500D01*
X152604491Y-99529500D01*
X152604484Y-99529500D01*
X152470195Y-99544630D01*
X152470190Y-99544631D01*
X152299921Y-99604211D01*
X152147182Y-99700184D01*
X152019629Y-99827737D01*
X152019624Y-99827743D01*
X151938937Y-99956156D01*
X151886603Y-100002447D01*
X151817549Y-100013095D01*
X151753701Y-99984720D01*
X151715329Y-99926330D01*
X151709944Y-99890184D01*
X151709944Y-99182129D01*
X151709943Y-99182123D01*
X151709942Y-99182116D01*
X151703536Y-99122517D01*
X151664083Y-99016739D01*
X151653242Y-98987671D01*
X151653238Y-98987664D01*
X151566992Y-98872455D01*
X151490339Y-98815072D01*
X151448469Y-98759138D01*
X151443485Y-98689446D01*
X151458921Y-98651021D01*
X151539911Y-98518859D01*
X151636318Y-98286111D01*
X151675713Y-98122016D01*
X151710503Y-98061425D01*
X151772530Y-98029261D01*
X151842099Y-98035737D01*
X151897123Y-98078796D01*
X151913329Y-98110010D01*
X151923655Y-98139521D01*
X151938938Y-98163843D01*
X152019629Y-98292262D01*
X152147183Y-98419816D01*
X152299923Y-98515789D01*
X152308697Y-98518859D01*
X152470190Y-98575368D01*
X152470195Y-98575369D01*
X152560691Y-98585565D01*
X152604485Y-98590499D01*
X152604488Y-98590500D01*
X152604491Y-98590500D01*
X152694402Y-98590500D01*
X152694403Y-98590499D01*
X152761549Y-98582933D01*
X152828694Y-98575369D01*
X152828697Y-98575368D01*
X152828700Y-98575368D01*
X152998967Y-98515789D01*
X153151707Y-98419816D01*
X153279261Y-98292262D01*
X153375234Y-98139522D01*
X153434813Y-97969255D01*
X153455010Y-97790000D01*
X153434813Y-97610745D01*
X153375234Y-97440478D01*
X153279261Y-97287738D01*
X153151707Y-97160184D01*
X153115232Y-97137265D01*
X152998968Y-97064211D01*
X152828699Y-97004631D01*
X152828694Y-97004630D01*
X152694405Y-96989500D01*
X152694399Y-96989500D01*
X152604491Y-96989500D01*
X152604484Y-96989500D01*
X152470195Y-97004630D01*
X152470190Y-97004631D01*
X152299921Y-97064211D01*
X152147182Y-97160184D01*
X152019629Y-97287737D01*
X151923654Y-97440479D01*
X151913328Y-97469991D01*
X151872606Y-97526766D01*
X151807653Y-97552513D01*
X151739092Y-97539056D01*
X151688689Y-97490669D01*
X151675713Y-97457982D01*
X151636318Y-97293889D01*
X151539911Y-97061140D01*
X151408284Y-96846346D01*
X151408283Y-96846343D01*
X151360121Y-96789953D01*
X151244669Y-96654776D01*
X151068562Y-96504366D01*
X151053101Y-96491161D01*
X151053098Y-96491160D01*
X150838304Y-96359533D01*
X150605555Y-96263126D01*
X150360596Y-96204317D01*
X150172231Y-96189492D01*
X150109445Y-96184551D01*
X150109444Y-96184551D01*
X149858293Y-96204317D01*
X149613334Y-96263126D01*
X149380585Y-96359533D01*
X149165791Y-96491160D01*
X149165788Y-96491161D01*
X148974221Y-96654776D01*
X148810606Y-96846343D01*
X148810605Y-96846346D01*
X148678978Y-97061140D01*
X148582571Y-97293889D01*
X148523762Y-97538848D01*
X148503996Y-97789999D01*
X144089944Y-97789999D01*
X144089944Y-96642128D01*
X144083536Y-96582517D01*
X144054387Y-96504365D01*
X144033242Y-96447671D01*
X144033238Y-96447664D01*
X143946992Y-96332455D01*
X143946989Y-96332452D01*
X143831780Y-96246206D01*
X143831773Y-96246202D01*
X143696927Y-96195908D01*
X143696928Y-96195908D01*
X143637328Y-96189501D01*
X143637326Y-96189500D01*
X143637318Y-96189500D01*
X143637309Y-96189500D01*
X141341574Y-96189500D01*
X141341568Y-96189501D01*
X141281961Y-96195908D01*
X141147116Y-96246202D01*
X141147109Y-96246206D01*
X141031900Y-96332452D01*
X141031897Y-96332455D01*
X140945651Y-96447664D01*
X140945647Y-96447671D01*
X140895353Y-96582517D01*
X140888946Y-96642116D01*
X140888946Y-96642123D01*
X140888945Y-96642135D01*
X140888945Y-97350183D01*
X140869260Y-97417222D01*
X140816456Y-97462977D01*
X140747298Y-97472921D01*
X140683742Y-97443896D01*
X140659951Y-97416155D01*
X140618498Y-97350183D01*
X140579261Y-97287738D01*
X140451707Y-97160184D01*
X140415232Y-97137265D01*
X140298968Y-97064211D01*
X140128699Y-97004631D01*
X140128694Y-97004630D01*
X139994405Y-96989500D01*
X139994399Y-96989500D01*
X139904491Y-96989500D01*
X139904484Y-96989500D01*
X139770195Y-97004630D01*
X139770190Y-97004631D01*
X139599921Y-97064211D01*
X139447182Y-97160184D01*
X139319629Y-97287737D01*
X139223656Y-97440476D01*
X139164076Y-97610745D01*
X139164075Y-97610750D01*
X139143880Y-97789996D01*
X139143880Y-97790003D01*
X139164075Y-97969249D01*
X139164076Y-97969254D01*
X139223656Y-98139523D01*
X139257678Y-98193668D01*
X139319629Y-98292262D01*
X139447183Y-98419816D01*
X139599923Y-98515789D01*
X139608697Y-98518859D01*
X139770190Y-98575368D01*
X139770195Y-98575369D01*
X139860691Y-98585565D01*
X139904485Y-98590499D01*
X139904488Y-98590500D01*
X139904491Y-98590500D01*
X139994402Y-98590500D01*
X139994403Y-98590499D01*
X140061549Y-98582933D01*
X140128694Y-98575369D01*
X140128697Y-98575368D01*
X140128700Y-98575368D01*
X140298967Y-98515789D01*
X140451707Y-98419816D01*
X140579261Y-98292262D01*
X140659953Y-98163840D01*
X140712285Y-98117552D01*
X140781339Y-98106903D01*
X140845187Y-98135278D01*
X140883559Y-98193668D01*
X140888945Y-98229815D01*
X140888945Y-98937870D01*
X140888946Y-98937876D01*
X140895353Y-98997483D01*
X140945647Y-99132328D01*
X140945651Y-99132335D01*
X141031897Y-99247544D01*
X141031900Y-99247547D01*
X141108549Y-99304927D01*
X141150420Y-99360861D01*
X141155404Y-99430552D01*
X141139965Y-99468983D01*
X141058978Y-99601140D01*
X140962572Y-99833887D01*
X140923176Y-99997983D01*
X140888385Y-100058574D01*
X140826359Y-100090738D01*
X140756790Y-100084262D01*
X140701766Y-100041202D01*
X140685560Y-100009988D01*
X140675234Y-99980479D01*
X140675234Y-99980478D01*
X140579261Y-99827738D01*
X140451707Y-99700184D01*
X140415232Y-99677265D01*
X140298968Y-99604211D01*
X140128699Y-99544631D01*
X140128694Y-99544630D01*
X139994405Y-99529500D01*
X139994399Y-99529500D01*
X139904491Y-99529500D01*
X139904484Y-99529500D01*
X139770195Y-99544630D01*
X139770190Y-99544631D01*
X139599921Y-99604211D01*
X139447182Y-99700184D01*
X139319629Y-99827737D01*
X139223656Y-99980476D01*
X139164076Y-100150745D01*
X139164075Y-100150750D01*
X139143880Y-100329996D01*
X139143880Y-100330003D01*
X137552413Y-100330003D01*
X137552413Y-100330000D01*
X137532580Y-100103308D01*
X137473684Y-99883504D01*
X137377513Y-99677266D01*
X137246992Y-99490861D01*
X137246990Y-99490858D01*
X137086086Y-99329954D01*
X136899679Y-99199432D01*
X136899673Y-99199429D01*
X136862571Y-99182128D01*
X136841669Y-99172381D01*
X136789230Y-99126210D01*
X136770078Y-99059017D01*
X136790293Y-98992135D01*
X136841670Y-98947618D01*
X136899679Y-98920568D01*
X137086084Y-98790047D01*
X137246992Y-98629139D01*
X137377513Y-98442734D01*
X137473684Y-98236496D01*
X137532580Y-98016692D01*
X137552413Y-97790000D01*
X137532580Y-97563308D01*
X137473684Y-97343504D01*
X137377513Y-97137266D01*
X137246992Y-96950861D01*
X137246990Y-96950858D01*
X137086086Y-96789954D01*
X136899679Y-96659432D01*
X136899677Y-96659431D01*
X136693442Y-96563261D01*
X136693433Y-96563258D01*
X136473642Y-96504366D01*
X136473638Y-96504365D01*
X136473637Y-96504365D01*
X136473636Y-96504364D01*
X136473631Y-96504364D01*
X136246947Y-96484532D01*
X136246943Y-96484532D01*
X136020258Y-96504364D01*
X136020247Y-96504366D01*
X135800456Y-96563258D01*
X135800447Y-96563261D01*
X135594212Y-96659431D01*
X135594210Y-96659432D01*
X135407803Y-96789954D01*
X135246899Y-96950858D01*
X135116377Y-97137265D01*
X135116376Y-97137267D01*
X135020206Y-97343502D01*
X135020203Y-97343511D01*
X134961311Y-97563302D01*
X134961309Y-97563313D01*
X134941477Y-97789998D01*
X134941477Y-97790001D01*
X134961309Y-98016686D01*
X134961311Y-98016697D01*
X135020203Y-98236488D01*
X135020206Y-98236497D01*
X135116376Y-98442732D01*
X135116377Y-98442734D01*
X135246899Y-98629141D01*
X135407803Y-98790045D01*
X135407806Y-98790047D01*
X135594211Y-98920568D01*
X135652220Y-98947618D01*
X135704659Y-98993791D01*
X135723811Y-99060984D01*
X135703595Y-99127865D01*
X135652220Y-99172382D01*
X135594212Y-99199431D01*
X135594210Y-99199432D01*
X135407803Y-99329954D01*
X135246899Y-99490858D01*
X135116377Y-99677265D01*
X135116376Y-99677267D01*
X135020206Y-99883502D01*
X135020203Y-99883511D01*
X134961311Y-100103302D01*
X134961309Y-100103313D01*
X134941477Y-100329998D01*
X134941477Y-100330001D01*
X134961309Y-100556686D01*
X134961311Y-100556697D01*
X135020203Y-100776488D01*
X135020206Y-100776497D01*
X135116376Y-100982732D01*
X135116377Y-100982734D01*
X135246899Y-101169141D01*
X135407803Y-101330045D01*
X135407806Y-101330047D01*
X135594211Y-101460568D01*
X135652223Y-101487619D01*
X135704658Y-101533788D01*
X135723811Y-101600982D01*
X135703596Y-101667863D01*
X135652222Y-101712380D01*
X135594213Y-101739430D01*
X135594210Y-101739432D01*
X135407803Y-101869954D01*
X135246899Y-102030858D01*
X135116377Y-102217265D01*
X135116376Y-102217267D01*
X135020206Y-102423502D01*
X135020203Y-102423511D01*
X134961311Y-102643302D01*
X134961309Y-102643313D01*
X134941477Y-102869998D01*
X134941477Y-102870001D01*
X134961309Y-103096686D01*
X134961311Y-103096697D01*
X135020203Y-103316488D01*
X135020206Y-103316497D01*
X135116376Y-103522732D01*
X135116377Y-103522734D01*
X135246899Y-103709141D01*
X135407803Y-103870045D01*
X135593733Y-104000233D01*
X135594211Y-104000568D01*
X135652223Y-104027619D01*
X135704658Y-104073788D01*
X135723811Y-104140982D01*
X135703596Y-104207863D01*
X135652222Y-104252380D01*
X135594213Y-104279430D01*
X135594210Y-104279432D01*
X135407803Y-104409954D01*
X135246899Y-104570858D01*
X135116377Y-104757265D01*
X135116376Y-104757267D01*
X135020206Y-104963502D01*
X135020203Y-104963511D01*
X134961311Y-105183302D01*
X134961309Y-105183313D01*
X134941477Y-105409998D01*
X134941477Y-105410001D01*
X134961309Y-105636686D01*
X134961311Y-105636697D01*
X135020203Y-105856488D01*
X135020206Y-105856497D01*
X135116376Y-106062732D01*
X135116377Y-106062734D01*
X135246899Y-106249141D01*
X135407803Y-106410045D01*
X135578593Y-106529632D01*
X135594211Y-106540568D01*
X135652223Y-106567619D01*
X135704658Y-106613788D01*
X135723811Y-106680982D01*
X135703596Y-106747863D01*
X135652222Y-106792380D01*
X135594213Y-106819430D01*
X135594210Y-106819432D01*
X135407803Y-106949954D01*
X135246899Y-107110858D01*
X135116377Y-107297265D01*
X135116376Y-107297267D01*
X135020206Y-107503502D01*
X135020203Y-107503511D01*
X134961311Y-107723302D01*
X134961309Y-107723313D01*
X134941477Y-107949998D01*
X134941477Y-107950001D01*
X134961309Y-108176686D01*
X134961311Y-108176697D01*
X135020203Y-108396488D01*
X135020206Y-108396497D01*
X135116376Y-108602732D01*
X135116377Y-108602734D01*
X135246899Y-108789141D01*
X135407803Y-108950045D01*
X135407806Y-108950047D01*
X135594211Y-109080568D01*
X135652220Y-109107618D01*
X135704659Y-109153791D01*
X135723811Y-109220984D01*
X135703595Y-109287865D01*
X135652220Y-109332382D01*
X135594212Y-109359431D01*
X135594210Y-109359432D01*
X135407803Y-109489954D01*
X135246899Y-109650858D01*
X135116377Y-109837265D01*
X135116376Y-109837267D01*
X135020206Y-110043502D01*
X135020203Y-110043511D01*
X134961311Y-110263302D01*
X134961309Y-110263313D01*
X134941477Y-110489998D01*
X134941477Y-110490001D01*
X134961309Y-110716686D01*
X134961311Y-110716697D01*
X135020203Y-110936488D01*
X135020206Y-110936497D01*
X135116376Y-111142732D01*
X135116377Y-111142734D01*
X135246899Y-111329141D01*
X135407803Y-111490045D01*
X135407806Y-111490047D01*
X135594211Y-111620568D01*
X135652220Y-111647618D01*
X135704659Y-111693791D01*
X135723811Y-111760984D01*
X135703595Y-111827865D01*
X135652220Y-111872382D01*
X135594212Y-111899431D01*
X135594210Y-111899432D01*
X135407803Y-112029954D01*
X135246899Y-112190858D01*
X135116377Y-112377265D01*
X135116376Y-112377267D01*
X135020206Y-112583502D01*
X135020203Y-112583511D01*
X134961311Y-112803302D01*
X134961309Y-112803313D01*
X134941477Y-113029998D01*
X134941477Y-113030001D01*
X134961309Y-113256686D01*
X134961311Y-113256697D01*
X135020203Y-113476488D01*
X135020206Y-113476497D01*
X135116376Y-113682732D01*
X135116377Y-113682734D01*
X135246899Y-113869141D01*
X135271879Y-113894121D01*
X135305364Y-113955444D01*
X135300380Y-114025136D01*
X135271879Y-114069483D01*
X134738153Y-114603208D01*
X134725896Y-114613029D01*
X134726079Y-114613250D01*
X134720068Y-114618222D01*
X134672717Y-114668645D01*
X134651834Y-114689528D01*
X134651822Y-114689541D01*
X134647566Y-114695026D01*
X134643782Y-114699456D01*
X134611882Y-114733427D01*
X134611881Y-114733429D01*
X134602229Y-114750985D01*
X134591555Y-114767235D01*
X134579274Y-114783070D01*
X134579269Y-114783077D01*
X134560760Y-114825847D01*
X134558190Y-114831093D01*
X134535748Y-114871915D01*
X134530767Y-114891316D01*
X134524466Y-114909719D01*
X134516507Y-114928111D01*
X134516506Y-114928114D01*
X134509216Y-114974136D01*
X134508032Y-114979855D01*
X134496446Y-115024981D01*
X134496445Y-115024991D01*
X134496445Y-115045025D01*
X134494918Y-115064424D01*
X134491785Y-115084203D01*
X134491785Y-115084204D01*
X132080500Y-115084204D01*
X132080500Y-93265000D01*
X132089493Y-93047569D01*
X132098160Y-92849061D01*
X132098574Y-92844138D01*
X132125487Y-92628223D01*
X132151884Y-92427726D01*
X132152669Y-92423114D01*
X132197191Y-92210778D01*
X132241160Y-92012451D01*
X132242253Y-92008235D01*
X132304112Y-91800457D01*
X132365324Y-91606320D01*
X132366673Y-91602488D01*
X132445469Y-91400551D01*
X132523499Y-91212170D01*
X132525033Y-91208771D01*
X132620076Y-91014360D01*
X132620249Y-91014007D01*
X132653419Y-90950284D01*
X132714494Y-90832960D01*
X132716207Y-90829891D01*
X132716307Y-90829723D01*
X132827211Y-90643601D01*
X132936972Y-90471313D01*
X132938765Y-90468656D01*
X133064856Y-90292054D01*
X133189313Y-90129861D01*
X133191135Y-90127601D01*
X133331448Y-89961933D01*
X133470563Y-89810115D01*
X133625115Y-89655563D01*
X133776933Y-89516448D01*
X133942601Y-89376135D01*
X133944861Y-89374313D01*
X134107054Y-89249856D01*
X134283656Y-89123765D01*
X134286313Y-89121972D01*
X134458601Y-89012211D01*
X134644900Y-88901201D01*
X134647960Y-88899494D01*
X134765284Y-88838419D01*
X134829007Y-88805249D01*
X134903661Y-88768752D01*
X135023771Y-88710033D01*
X135027170Y-88708499D01*
X135215551Y-88630469D01*
X135417488Y-88551673D01*
X135421320Y-88550324D01*
X135615457Y-88489112D01*
X135823235Y-88427253D01*
X135827451Y-88426160D01*
X136025778Y-88382191D01*
X136238114Y-88337669D01*
X136242726Y-88336884D01*
X136443223Y-88310487D01*
X136659138Y-88283574D01*
X136664061Y-88283160D01*
X136862569Y-88274493D01*
X137080000Y-88265500D01*
X137080500Y-88265500D01*
X155518390Y-88265500D01*
X155518890Y-88265500D01*
X155734022Y-88274397D01*
G37*
%TD.AperFunction*%
%TD*%
M02*
