%TF.GenerationSoftware,KiCad,Pcbnew,7.0.7*%
%TF.CreationDate,2024-05-20T11:42:57-06:00*%
%TF.ProjectId,KindFlowerPCB,4b696e64-466c-46f7-9765-725043422e6b,rev?*%
%TF.SameCoordinates,Original*%
%TF.FileFunction,Soldermask,Bot*%
%TF.FilePolarity,Negative*%
%FSLAX46Y46*%
G04 Gerber Fmt 4.6, Leading zero omitted, Abs format (unit mm)*
G04 Created by KiCad (PCBNEW 7.0.7) date 2024-05-20 11:42:57*
%MOMM*%
%LPD*%
G01*
G04 APERTURE LIST*
%ADD10R,1.600000X1.600000*%
%ADD11C,1.600000*%
%ADD12C,2.200000*%
%ADD13R,2.200000X2.200000*%
%ADD14C,1.100000*%
%ADD15O,1.600000X1.600000*%
G04 APERTURE END LIST*
D10*
%TO.C,A1*%
X136246945Y-135890000D03*
D11*
X136246945Y-133350000D03*
X136246945Y-130810000D03*
X136246945Y-128270000D03*
X136246945Y-125730000D03*
X136246945Y-123190000D03*
X136246945Y-120650000D03*
X136246945Y-118110000D03*
X136246945Y-115570000D03*
X136246945Y-113030000D03*
X136246945Y-110490000D03*
X136246945Y-107950000D03*
X136246945Y-105410000D03*
X136246945Y-102870000D03*
X136246945Y-100330000D03*
X136246945Y-97790000D03*
X156566945Y-97790000D03*
X156566945Y-100330000D03*
X156566945Y-102870000D03*
X156566945Y-105410000D03*
X156566945Y-107950000D03*
X156566945Y-110490000D03*
X156566945Y-113030000D03*
X156566945Y-115570000D03*
X156566945Y-118110000D03*
X156566945Y-120650000D03*
X156566945Y-123190000D03*
X156566945Y-125730000D03*
%TD*%
D12*
%TO.C,J1*%
X144076945Y-145415000D03*
D13*
X141536945Y-145415000D03*
D14*
X144076945Y-147955000D03*
X141536945Y-147955000D03*
%TD*%
D15*
%TO.C,R2*%
X152014445Y-121285000D03*
D11*
X152014445Y-113665000D03*
%TD*%
D14*
%TO.C,J6*%
X152649445Y-107315000D03*
X152649445Y-104775000D03*
D13*
X150109445Y-107315000D03*
D12*
X150109445Y-104775000D03*
%TD*%
D14*
%TO.C,J3*%
X148521945Y-147955000D03*
X151061945Y-147955000D03*
D13*
X148521945Y-145415000D03*
D12*
X151061945Y-145415000D03*
%TD*%
D14*
%TO.C,J4*%
X139949445Y-104775000D03*
X139949445Y-107315000D03*
D13*
X142489445Y-104775000D03*
D12*
X142489445Y-107315000D03*
%TD*%
D14*
%TO.C,J5*%
X139949445Y-97790000D03*
X139949445Y-100330000D03*
D13*
X142489445Y-97790000D03*
D12*
X142489445Y-100330000D03*
%TD*%
D14*
%TO.C,J8*%
X153670000Y-134620000D03*
X153670000Y-132080000D03*
X153670000Y-129540000D03*
D13*
X151130000Y-134620000D03*
D12*
X151130000Y-132080000D03*
X151130000Y-129540000D03*
%TD*%
D15*
%TO.C,R3*%
X148204445Y-121285000D03*
D11*
X148204445Y-113665000D03*
%TD*%
D14*
%TO.C,J2*%
X152649445Y-100330000D03*
X152649445Y-97790000D03*
D13*
X150109445Y-100330000D03*
D12*
X150109445Y-97790000D03*
%TD*%
%TO.C,J7*%
X143510000Y-134620000D03*
X143510000Y-132080000D03*
D13*
X143510000Y-129540000D03*
D14*
X140970000Y-134620000D03*
X140970000Y-132080000D03*
X140970000Y-129540000D03*
%TD*%
D15*
%TO.C,R5*%
X140584445Y-121285000D03*
D11*
X140584445Y-113665000D03*
%TD*%
D15*
%TO.C,R4*%
X144394445Y-121285000D03*
D11*
X144394445Y-113665000D03*
%TD*%
M02*
